{
.appVersion = "1064";
copyright = "Digitized data copyright (C) 1991-1996 The Monotype Corporation. All rights reserved. Impact is a trademark of Stephenson Blake (Holdings) Ltd.";
customParameters = (
{
name = vendorID;
value = MONO;
},
{
name = panose;
value = (
2,
11,
8,
6,
3,
9,
2,
5,
2,
4
);
},
{
name = unicodeRanges;
value = (
0,
1,
2,
7,
9
);
},
{
name = codePageRanges;
value = (
1252,
1250,
1251,
1253,
1254,
1257,
869,
866,
865,
863,
861,
860,
857,
855,
852,
775,
737,
850,
437
);
},
{
name = glyphOrder;
value = (
.notdef,
uni0000,
uni000D,
space,
exclam,
quotedbl,
numbersign,
dollar,
percent,
ampersand,
quotesingle,
parenleft,
parenright,
asterisk,
plus,
comma,
hyphen,
period,
slash,
zero,
one,
two,
three,
four,
five,
six,
seven,
eight,
nine,
colon,
semicolon,
less,
equal,
greater,
question,
at,
A,
B,
C,
D,
E,
F,
G,
H,
I,
J,
K,
L,
M,
N,
O,
P,
Q,
R,
S,
T,
U,
V,
W,
X,
Y,
Z,
bracketleft,
backslash,
bracketright,
asciicircum,
underscore,
grave,
a,
b,
c,
d,
e,
f,
g,
h,
i,
j,
k,
l,
m,
n,
o,
p,
q,
r,
s,
t,
u,
v,
w,
x,
y,
z,
braceleft,
bar,
braceright,
asciitilde,
Adieresis,
Aring,
Ccedilla,
Eacute,
Ntilde,
Odieresis,
Udieresis,
aacute,
agrave,
acircumflex,
adieresis,
atilde,
aring,
ccedilla,
eacute,
egrave,
ecircumflex,
edieresis,
iacute,
igrave,
icircumflex,
idieresis,
ntilde,
oacute,
ograve,
ocircumflex,
odieresis,
otilde,
uacute,
ugrave,
ucircumflex,
udieresis,
dagger,
degree,
cent,
sterling,
section,
bullet,
paragraph,
germandbls,
registered,
copyright,
trademark,
acute,
dieresis,
notequal,
AE,
Oslash,
infinity,
plusminus,
lessequal,
greaterequal,
yen,
mu1,
partialdiff,
summation,
product,
pi1,
integral,
ordfeminine,
ordmasculine,
Ohm,
ae,
oslash,
questiondown,
exclamdown,
logicalnot,
radical,
florin,
approxequal,
Delta,
guillemotleft,
guillemotright,
ellipsis,
uni00A0,
Agrave,
Atilde,
Otilde,
OE,
oe,
endash,
emdash,
quotedblleft,
quotedblright,
quoteleft,
quoteright,
divide,
lozenge,
ydieresis,
Ydieresis,
fraction,
Euro,
guilsinglleft,
guilsinglright,
fi,

glyphs = (
{
glyphname = .notdef;
lastChange = "2017-09-25 17:37:43 +0000";
layers = (
{
layerId = "BBA80624-4CF6-45E1-9846-B55476475641";
paths = (
{
closed = 1;
nodes = (
"1280 1280 LINE",
"256 1280 LINE",
"256 0 LINE",
"1280 0 LINE"
);
},
{
closed = 1;
nodes = (
"1248 1248 LINE",
"1248 32 LINE",
"288 32 LINE",
"288 1248 LINE"
);
}
);
width = 1536;
}
);
note = .notdef;
},
{
glyphname = exclam;
lastChange = "2017-09-25 19:41:09 +0000";
layers = (
{
layerId = "BBA80624-4CF6-45E1-9846-B55476475641";
paths = (
{
closed = 1;
nodes = (
"190 470 LINE",
"388 470 LINE",
"445 1557 LINE",
"127 1557 LINE"
);
},
{
closed = 1;
nodes = (
"152 55 LINE",
"432 55 LINE",
"432 273 LINE",
"152 273 LINE"
);
}
);
width = 553;
}
);
note = exclam;
unicode = 0021;
changeCount = 27;
},
{
glyphname = quotedbl;
lastChange = "2017-09-25 19:41:43 +0000";
layers = (
{
layerId = "BBA80624-4CF6-45E1-9846-B55476475641";
paths = (
{
closed = 1;
nodes = (
"289 1369 LINE",
"289 1574 LINE",
"80 1574 LINE",
"80 1369 LINE",
"124 1143 LINE",
"251 1143 LINE"
);
},
{
closed = 1;
nodes = (
"674 1369 LINE",
"674 1574 LINE",
"464 1574 LINE",
"464 1369 LINE",
"507 1143 LINE",
"635 1143 LINE"
);
}
);
width = 757;
}
);
note = quotedbl;
unicode = 0022;
changeCount = 33;
},
{
glyphname = numbersign;
lastChange = "2017-09-25 19:44:56 +0000";
layers = (
{
layerId = "BBA80624-4CF6-45E1-9846-B55476475641";
paths = (
{
closed = 1;
nodes = (
"351 903 LINE",
"271 525 LINE",
"79 525 LINE",
"79 411 LINE",
"246 411 LINE",
"167 41 LINE",
"294 41 LINE",
"370 411 LINE",
"800 411 LINE",
"716 40 LINE",
"832 40 LINE",
"915 411 LINE",
"1205 411 LINE",
"1205 532 LINE",
"925 532 LINE",
"1005 901 LINE",
"1205 901 LINE",
"1205 1030 LINE",
"1037 1030 LINE",
"1114 1398 LINE",
"994 1398 LINE",
"918 1030 LINE",
"486 1030 LINE",
"565 1394 LINE",
"461 1394 LINE",
"382 1030 LINE",
"79 1030 LINE",
"79 903 LINE"
);
},
{
closed = 1;
nodes = (
"818 525 LINE",
"390 525 LINE",
"470 901 LINE",
"897 901 LINE"
);
}
);
width = 1283;
}
);
note = numbersign;
unicode = 0023;
changeCount = 93;
},
{
glyphname = dollar;
lastChange = "2017-09-25 19:50:47 +0000";
layers = (
{
layerId = "BBA80624-4CF6-45E1-9846-B55476475641";
paths = (
{
closed = 1;
nodes = (
"984 1216 OFFCURVE",
"975 1229 OFFCURVE",
"975 1245 CURVE SMOOTH",
"975 1462 OFFCURVE",
"844 1561 OFFCURVE",
"618 1590 CURVE",
"617 1722 LINE",
"502 1722 LINE",
"503 1597 LINE",
"255 1568 OFFCURVE",
"100 1399 OFFCURVE",
"100 1180 CURVE SMOOTH",
"100 1105 OFFCURVE",
"115 1036 OFFCURVE",
"145 976 CURVE SMOOTH",
"203 856 OFFCURVE",
"268 839 OFFCURVE",
"492 700 CURVE SMOOTH",
"695 574 OFFCURVE",
"650 459 OFFCURVE",
"650 294 CURVE SMOOTH",
"650 229 OFFCURVE",
"589 195 OFFCURVE",
"539 195 CURVE SMOOTH",
"510 195 OFFCURVE",
"480 203 OFFCURVE",
"455 231 CURVE",
"428 276 OFFCURVE",
"434 411 OFFCURVE",
"431 510 CURVE SMOOTH",
"430 544 LINE",
"104 544 LINE",
"104 496 LINE SMOOTH",
"104 169 OFFCURVE",
"300 51 OFFCURVE",
"497 32 CURVE",
"498 -108 LINE",
"607 -108 LINE",
"607 32 LINE",
"859 68 OFFCURVE",
"1019 227 OFFCURVE",
"1019 489 CURVE SMOOTH",
"1019 571 OFFCURVE",
"998 650 OFFCURVE",
"975 705 CURVE SMOOTH",
"928 814 OFFCURVE",
"895 821 OFFCURVE",
"708 934 CURVE SMOOTH",
"598 1000 OFFCURVE",
"485 1077 OFFCURVE",
"462 1100 CURVE SMOOTH",
"439 1123 OFFCURVE",
"411 1225 OFFCURVE",
"430 1334 CURVE SMOOTH",
"442 1403 OFFCURVE",
"498 1438 OFFCURVE",
"543 1438 CURVE SMOOTH",
"592 1438 OFFCURVE",
"636 1432 OFFCURVE",
"650 1405 CURVE SMOOTH",
"676 1355 OFFCURVE",
"677 1311 OFFCURVE",
"677 1185 CURVE",
"981 1185 LINE"
);
}
);
width = 1121;
}
);
note = dollar;
unicode = 0024;
changeCount = 141;
},
{
glyphname = percent;
lastChange = "2017-09-25 19:54:32 +0000";
layers = (
{
layerId = "BBA80624-4CF6-45E1-9846-B55476475641";
paths = (
{
closed = 1;
nodes = (
"366 1 LINE",
"448 0 LINE",
"1049 1606 LINE",
"969 1607 LINE"
);
},
{
closed = 1;
nodes = (
"605 1401 OFFCURVE",
"598 1453 OFFCURVE",
"583 1487 CURVE SMOOTH",
"554 1555 OFFCURVE",
"467 1610 OFFCURVE",
"329 1610 CURVE SMOOTH",
"266 1610 OFFCURVE",
"214 1599 OFFCURVE",
"171 1577 CURVE SMOOTH",
"87 1533 OFFCURVE",
"63 1476 OFFCURVE",
"63 1331 CURVE SMOOTH",
"63 1066 LINE SMOOTH",
"63 1005 OFFCURVE",
"70 958 OFFCURVE",
"85 925 CURVE SMOOTH",
"113 860 OFFCURVE",
"189 806 OFFCURVE",
"344 806 CURVE SMOOTH",
"411 806 OFFCURVE",
"466 819 OFFCURVE",
"507 843 CURVE SMOOTH",
"589 893 OFFCURVE",
"605 946 OFFCURVE",
"605 1078 CURVE SMOOTH",
"605 1331 LINE SMOOTH"
);
},
{
closed = 1;
nodes = (
"409 948 OFFCURVE",
"401 913 OFFCURVE",
"396 903 CURVE SMOOTH",
"392 893 OFFCURVE",
"352 885 OFFCURVE",
"336 885 CURVE SMOOTH",
"318 885 OFFCURVE",
"275 892 OFFCURVE",
"271 900 CURVE SMOOTH",
"266 909 OFFCURVE",
"258 948 OFFCURVE",
"258 991 CURVE SMOOTH",
"258 1430 LINE SMOOTH",
"258 1467 OFFCURVE",
"268 1503 OFFCURVE",
"272 1513 CURVE SMOOTH",
"277 1523 OFFCURVE",
"318 1531 OFFCURVE",
"334 1531 CURVE SMOOTH",
"352 1531 OFFCURVE",
"394 1524 OFFCURVE",
"398 1515 CURVE",
"402 1505 OFFCURVE",
"409 1469 OFFCURVE",
"409 1430 CURVE SMOOTH",
"409 983 LINE SMOOTH"
);
},
{
closed = 1;
nodes = (
"1356 619 OFFCURVE",
"1349 671 OFFCURVE",
"1335 704 CURVE SMOOTH",
"1306 772 OFFCURVE",
"1219 828 OFFCURVE",
"1080 828 CURVE SMOOTH",
"1017 828 OFFCURVE",
"965 817 OFFCURVE",
"922 795 CURVE SMOOTH",
"838 751 OFFCURVE",
"814 693 OFFCURVE",
"814 549 CURVE SMOOTH",
"814 283 LINE SMOOTH",
"814 222 OFFCURVE",
"821 176 OFFCURVE",
"836 143 CURVE SMOOTH",
"864 78 OFFCURVE",
"941 23 OFFCURVE",
"1095 23 CURVE SMOOTH",
"1162 23 OFFCURVE",
"1217 36 OFFCURVE",
"1258 61 CURVE SMOOTH",
"1340 110 OFFCURVE",
"1356 164 OFFCURVE",
"1356 295 CURVE SMOOTH",
"1356 549 LINE SMOOTH"
);
},
{
closed = 1;
nodes = (
"1160 165 OFFCURVE",
"1152 130 OFFCURVE",
"1148 120 CURVE",
"1143 110 OFFCURVE",
"1103 103 OFFCURVE",
"1087 103 CURVE SMOOTH",
"1070 103 OFFCURVE",
"1027 110 OFFCURVE",
"1022 118 CURVE SMOOTH",
"1018 127 OFFCURVE",
"1010 166 OFFCURVE",
"1010 208 CURVE SMOOTH",
"1010 646 LINE SMOOTH",
"1010 685 OFFCURVE",
"1019 721 OFFCURVE",
"1024 731 CURVE SMOOTH",
"1029 741 OFFCURVE",
"1069 749 OFFCURVE",
"1085 749 CURVE SMOOTH",
"1102 749 OFFCURVE",
"1145 742 OFFCURVE",
"1150 732 CURVE",
"1153 722 OFFCURVE",
"1160 686 OFFCURVE",
"1160 646 CURVE SMOOTH",
"1160 201 LINE SMOOTH"
);
}
);
width = 1419;
}
);
note = percent;
unicode = 0025;
changeCount = 166;
},
{
glyphname = ampersand;
lastChange = "2017-09-25 19:57:05 +0000";
layers = (
{
layerId = "BBA80624-4CF6-45E1-9846-B55476475641";
paths = (
{
closed = 1;
nodes = (
"727 728 LINE",
"803 805 OFFCURVE",
"870 906 OFFCURVE",
"870 1005 CURVE SMOOTH",
"870 1194 OFFCURVE",
"753 1334 OFFCURVE",
"535 1334 CURVE SMOOTH",
"293 1334 OFFCURVE",
"146 1179 OFFCURVE",
"146 975 CURVE SMOOTH",
"146 856 OFFCURVE",
"227 771 OFFCURVE",
"325 692 CURVE",
"199 620 OFFCURVE",
"88 553 OFFCURVE",
"88 393 CURVE SMOOTH",
"88 193 OFFCURVE",
"207 30 OFFCURVE",
"421 30 CURVE SMOOTH",
"523 30 OFFCURVE",
"655 68 OFFCURVE",
"768 143 CURVE",
"828 33 LINE",
"1118 33 LINE",
"983 290 LINE",
"1118 363 LINE",
"1118 555 LINE",
"899 414 LINE"
);
},
{
closed = 1;
nodes = (
"465 924 OFFCURVE",
"432 995 OFFCURVE",
"432 1075 CURVE SMOOTH",
"432 1149 OFFCURVE",
"462 1186 OFFCURVE",
"518 1186 CURVE SMOOTH",
"579 1186 OFFCURVE",
"614 1128 OFFCURVE",
"614 1069 CURVE SMOOTH",
"614 1002 OFFCURVE",
"585 931 OFFCURVE",
"528 857 CURVE"
);
},
{
closed = 1;
nodes = (
"596 232 OFFCURVE",
"561 197 OFFCURVE",
"515 197 CURVE SMOOTH",
"432 197 OFFCURVE",
"388 263 OFFCURVE",
"388 363 CURVE SMOOTH",
"388 421 OFFCURVE",
"422 475 OFFCURVE",
"491 524 CURVE",
"655 263 LINE"
);
}
);
width = 1180;
}
);
note = ampersand;
unicode = 0026;
changeCount = 93;
},
{
glyphname = quotesingle;
lastChange = "2017-09-25 19:57:20 +0000";
layers = (
{
layerId = "BBA80624-4CF6-45E1-9846-B55476475641";
paths = (
{
closed = 1;
nodes = (
"315 1369 LINE",
"315 1574 LINE",
"63 1574 LINE",
"63 1369 LINE",
"106 1143 LINE",
"277 1143 LINE"
);
}
);
width = 379;
}
);
note = quotesingle;
unicode = 0027;
changeCount = 17;
},
{
glyphname = parenleft;
lastChange = "2017-09-25 19:58:51 +0000";
layers = (
{
layerId = "BBA80624-4CF6-45E1-9846-B55476475641";
paths = (
{
closed = 1;
nodes = (
"377 1558 OFFCURVE",
"284 1553 OFFCURVE",
"232 1534 CURVE SMOOTH",
"180 1515 OFFCURVE",
"175 1468 OFFCURVE",
"159 1429 CURVE SMOOTH",
"144 1390 OFFCURVE",
"136 1309 OFFCURVE",
"136 1185 CURVE SMOOTH",
"136 434 LINE SMOOTH",
"136 309 OFFCURVE",
"144 228 OFFCURVE",
"160 190 CURVE SMOOTH",
"176 152 OFFCURVE",
"181 123 OFFCURVE",
"231 104 CURVE SMOOTH",
"281 84 OFFCURVE",
"360 74 OFFCURVE",
"466 74 CURVE SMOOTH",
"581 74 LINE",
"582 172 LINE SMOOTH",
"582 172 OFFCURVE",
"486 166 OFFCURVE",
"447 181 CURVE SMOOTH",
"432 187 OFFCURVE",
"421 197 OFFCURVE",
"416 214 CURVE SMOOTH",
"410 231 OFFCURVE",
"406 365 OFFCURVE",
"406 433 CURVE SMOOTH",
"406 1186 LINE SMOOTH",
"406 1258 OFFCURVE",
"408 1387 OFFCURVE",
"415 1402 CURVE",
"422 1418 OFFCURVE",
"434 1424 OFFCURVE",
"448 1431 CURVE SMOOTH",
"490 1451 OFFCURVE",
"512 1448 OFFCURVE",
"562 1448 CURVE",
"564 1577 LINE",
"466 1567 LINE SMOOTH"
);
}
);
width = 642;
}
);
note = parenleft;
unicode = 0028;
changeCount = 75;
},
{
glyphname = parenright;
lastChange = "2017-09-25 20:00:19 +0000";
layers = (
{
layerId = "BBA80624-4CF6-45E1-9846-B55476475641";
paths = (
{
closed = 1;
nodes = (
"128 1453 OFFCURVE",
"190 1450 OFFCURVE",
"206 1445 CURVE SMOOTH",
"220 1441 OFFCURVE",
"226 1433 OFFCURVE",
"234 1417 CURVE SMOOTH",
"241 1402 OFFCURVE",
"242 1258 OFFCURVE",
"242 1186 CURVE SMOOTH",
"245 336 LINE SMOOTH",
"245 268 OFFCURVE",
"243 227 OFFCURVE",
"237 210 CURVE SMOOTH",
"231 193 OFFCURVE",
"221 182 OFFCURVE",
"206 177 CURVE SMOOTH",
"192 171 OFFCURVE",
"132 168 OFFCURVE",
"79 168 CURVE",
"78 48 LINE",
"177 48 LINE SMOOTH",
"284 48 OFFCURVE",
"357 62 OFFCURVE",
"411 104 CURVE SMOOTH",
"454 138 OFFCURVE",
"468 152 OFFCURVE",
"484 190 CURVE SMOOTH",
"499 228 OFFCURVE",
"507 309 OFFCURVE",
"507 434 CURVE SMOOTH",
"507 1185 LINE SMOOTH",
"507 1309 OFFCURVE",
"499 1390 OFFCURVE",
"484 1429 CURVE SMOOTH",
"468 1468 OFFCURVE",
"455 1497 OFFCURVE",
"409 1526 CURVE SMOOTH",
"357 1559 OFFCURVE",
"281 1577 OFFCURVE",
"176 1577 CURVE SMOOTH",
"77 1577 LINE",
"78 1453 LINE"
);
}
);
width = 642;
}
);
note = parenright;
unicode = 0029;
changeCount = 76;
},
{
glyphname = asterisk;
lastChange = "2017-09-25 20:01:15 +0000";
layers = (
{
layerId = "BBA80624-4CF6-45E1-9846-B55476475641";
paths = (
{
closed = 1;
nodes = (
"241 1436 LINE",
"118 1480 LINE",
"84 1387 LINE",
"206 1343 LINE",
"127 1233 LINE",
"210 1175 LINE",
"289 1285 LINE",
"368 1175 LINE",
"448 1233 LINE",
"370 1339 LINE",
"491 1387 LINE",
"455 1480 LINE",
"336 1436 LINE",
"338 1567 LINE",
"239 1567 LINE"
);
}
);
width = 575;
}
);
note = asterisk;
unicode = 002A;
changeCount = 43;
},
{
glyphname = plus;
lastChange = "2017-09-25 20:01:58 +0000";
layers = (
{
layerId = "BBA80624-4CF6-45E1-9846-B55476475641";
paths = (
{
closed = 1;
nodes = (
"457 715 LINE",
"457 372 LINE",
"635 372 LINE",
"635 715 LINE",
"984 715 LINE",
"984 891 LINE",
"635 891 LINE",
"635 1246 LINE",
"457 1246 LINE",
"457 891 LINE",
"108 891 LINE",
"108 715 LINE"
);
}
);
width = 1092;
}
);
note = plus;
unicode = 002B;
changeCount = 31;
},
{
glyphname = comma;
lastChange = "2017-09-25 19:39:09 +0000";
layers = (
{
layerId = "BBA80624-4CF6-45E1-9846-B55476475641";
paths = (
{
closed = 1;
nodes = (
"62 20 LINE",
"137 20 LINE",
"133 -15 OFFCURVE",
"105 -80 OFFCURVE",
"68 -101 CURVE",
"68 -176 LINE",
"119 -156 OFFCURVE",
"123 -152 OFFCURVE",
"164 -121 CURVE SMOOTH",
"244 -60 OFFCURVE",
"273 23 OFFCURVE",
"273 161 CURVE SMOOTH",
"273 288 LINE",
"62 288 LINE"
);
}
);
width = 344;
}
);
note = comma;
unicode = 002C;
changeCount = 36;
},
{
glyphname = hyphen;
lastChange = "2017-09-25 19:39:42 +0000";
layers = (
{
layerId = "BBA80624-4CF6-45E1-9846-B55476475641";
paths = (
{
closed = 1;
nodes = (
"77 555 LINE",
"532 556 LINE",
"532 764 LINE",
"77 763 LINE"
);
}
);
width = 603;
}
);
note = hyphen;
unicode = 002D;
changeCount = 17;
},
{
glyphname = period;
lastChange = "2017-09-25 19:39:53 +0000";
layers = (
{
layerId = "BBA80624-4CF6-45E1-9846-B55476475641";
paths = (
{
closed = 1;
nodes = (
"62 29 LINE",
"315 29 LINE",
"315 301 LINE",
"62 301 LINE"
);
}
);
width = 378;
}
);
note = period;
unicode = 002E;
changeCount = 13;
},
{
glyphname = slash;
lastChange = "2017-09-25 19:40:24 +0000";
layers = (
{
layerId = "BBA80624-4CF6-45E1-9846-B55476475641";
paths = (
{
closed = 1;
nodes = (
"86 22 LINE",
"268 22 LINE",
"721 1593 LINE",
"542 1593 LINE"
);
}
);
width = 810;
}
);
note = slash;
unicode = 002F;
changeCount = 15;
},
{
glyphname = zero;
lastChange = "2017-09-25 19:11:01 +0000";
layers = (
{
layerId = "BBA80624-4CF6-45E1-9846-B55476475641";
paths = (
{
closed = 1;
nodes = (
"982 1270 OFFCURVE",
"964 1347 OFFCURVE",
"901 1428 CURVE SMOOTH",
"838 1509 OFFCURVE",
"703 1574 OFFCURVE",
"542 1574 CURVE SMOOTH",
"443 1574 OFFCURVE",
"359 1554 OFFCURVE",
"290 1513 CURVE SMOOTH",
"151 1432 OFFCURVE",
"115 1317 OFFCURVE",
"115 1047 CURVE SMOOTH",
"115 534 LINE SMOOTH",
"115 326 OFFCURVE",
"142 257 OFFCURVE",
"211 171 CURVE SMOOTH",
"280 85 OFFCURVE",
"394 45 OFFCURVE",
"569 45 CURVE SMOOTH",
"703 45 OFFCURVE",
"812 82 OFFCURVE",
"888 170 CURVE SMOOTH",
"964 258 OFFCURVE",
"982 334 OFFCURVE",
"982 556 CURVE SMOOTH",
"982 1047 LINE SMOOTH"
);
},
{
closed = 1;
nodes = (
"668 302 OFFCURVE",
"653 229 OFFCURVE",
"645 208 CURVE SMOOTH",
"637 187 OFFCURVE",
"575 172 OFFCURVE",
"548 172 CURVE SMOOTH",
"520 172 OFFCURVE",
"460 186 OFFCURVE",
"452 203 CURVE SMOOTH",
"444 220 OFFCURVE",
"429 301 OFFCURVE",
"429 386 CURVE SMOOTH",
"429 1238 LINE SMOOTH",
"429 1328 OFFCURVE",
"444 1386 OFFCURVE",
"454 1411 CURVE",
"462 1432 OFFCURVE",
"524 1447 OFFCURVE",
"551 1447 CURVE SMOOTH",
"579 1447 OFFCURVE",
"640 1432 OFFCURVE",
"648 1413 CURVE",
"656 1393 OFFCURVE",
"668 1316 OFFCURVE",
"668 1238 CURVE SMOOTH",
"668 373 LINE SMOOTH"
);
}
);
width = 1098;
}
);
note = zero;
unicode = 0030;
changeCount = 78;
},
{
glyphname = one;
lastChange = "2017-09-25 19:12:21 +0000";
layers = (
{
layerId = "BBA80624-4CF6-45E1-9846-B55476475641";
paths = (
{
closed = 1;
nodes = (
"381 1402 OFFCURVE",
"90 1310 OFFCURVE",
"90 1310 CURVE SMOOTH",
"90 1239 LINE",
"126 1239 LINE SMOOTH",
"211 1239 OFFCURVE",
"266 1234 OFFCURVE",
"291 1222 CURVE SMOOTH",
"316 1210 OFFCURVE",
"349 1183 OFFCURVE",
"355 1160 CURVE SMOOTH",
"360 1137 OFFCURVE",
"363 1068 OFFCURVE",
"363 955 CURVE SMOOTH",
"360 74 LINE",
"638 74 LINE",
"638 1545 LINE",
"448 1545 LINE"
);
}
);
width = 780;
}
);
note = one;
unicode = 0031;
changeCount = 39;
},
{
glyphname = two;
lastChange = "2017-09-25 19:17:33 +0000";
layers = (
{
layerId = "BBA80624-4CF6-45E1-9846-B55476475641";
paths = (
{
closed = 1;
nodes = (
"594 520 OFFCURVE",
"810 830 OFFCURVE",
"852 924 CURVE SMOOTH",
"894 1018 OFFCURVE",
"915 1107 OFFCURVE",
"915 1191 CURVE SMOOTH",
"915 1413 OFFCURVE",
"785 1597 OFFCURVE",
"493 1597 CURVE SMOOTH",
"344 1597 OFFCURVE",
"248 1521 OFFCURVE",
"172 1435 CURVE SMOOTH",
"66 1316 OFFCURVE",
"106 932 OFFCURVE",
"106 1127 CURVE",
"342 1127 LINE",
"342 1186 LINE SMOOTH",
"342 1250 OFFCURVE",
"342 1250 OFFCURVE",
"353 1316 CURVE SMOOTH",
"379 1471 OFFCURVE",
"480 1472 OFFCURVE",
"508 1472 CURVE SMOOTH",
"643 1472 OFFCURVE",
"662 1310 OFFCURVE",
"662 1230 CURVE SMOOTH",
"662 1116 OFFCURVE",
"591 1039 OFFCURVE",
"546 946 CURVE SMOOTH",
"501 853 OFFCURVE",
"358 611 OFFCURVE",
"119 219 CURVE",
"119 62 LINE",
"882 62 LINE",
"882 216 LINE",
"388 216 LINE"
);
}
);
width = 1028;
}
);
note = two;
unicode = 0032;
changeCount = 98;
},
{
glyphname = three;
lastChange = "2017-09-25 19:24:43 +0000";
layers = (
{
layerId = "BBA80624-4CF6-45E1-9846-B55476475641";
paths = (
{
closed = 1;
nodes = (
"859 985 OFFCURVE",
"938 1022 OFFCURVE",
"938 1186 CURVE SMOOTH",
"938 1430 OFFCURVE",
"856 1587 OFFCURVE",
"506 1587 CURVE SMOOTH",
"226 1587 OFFCURVE",
"110 1497 OFFCURVE",
"103 1215 CURVE SMOOTH",
"102 1174 LINE",
"416 1174 LINE",
"417 1211 LINE SMOOTH",
"419 1267 OFFCURVE",
"422 1395 OFFCURVE",
"432 1412 CURVE",
"446 1459 OFFCURVE",
"509 1468 OFFCURVE",
"534 1468 CURVE SMOOTH",
"557 1468 OFFCURVE",
"628 1459 OFFCURVE",
"639 1419 CURVE",
"670 1366 OFFCURVE",
"657 1269 OFFCURVE",
"657 1217 CURVE SMOOTH",
"657 1135 LINE SMOOTH",
"657 1040 OFFCURVE",
"591 975 OFFCURVE",
"550 961 CURVE SMOOTH",
"529 955 OFFCURVE",
"501 942 OFFCURVE",
"413 942 CURVE",
"413 804 LINE",
"485 803 OFFCURVE",
"512 799 OFFCURVE",
"537 791 CURVE SMOOTH",
"587 774 OFFCURVE",
"657 729 OFFCURVE",
"657 579 CURVE SMOOTH",
"657 477 LINE SMOOTH",
"657 386 OFFCURVE",
"653 246 OFFCURVE",
"631 195 CURVE SMOOTH",
"622 173 OFFCURVE",
"558 160 OFFCURVE",
"529 160 CURVE SMOOTH",
"503 160 OFFCURVE",
"471 176 OFFCURVE",
"436 193 CURVE",
"414 263 OFFCURVE",
"416 353 OFFCURVE",
"416 417 CURVE SMOOTH",
"416 588 LINE",
"103 590 LINE",
"103 542 LINE SMOOTH",
"103 402 OFFCURVE",
"114 304 OFFCURVE",
"135 247 CURVE SMOOTH",
"177 134 OFFCURVE",
"307 24 OFFCURVE",
"540 24 CURVE SMOOTH",
"642 24 OFFCURVE",
"733 52 OFFCURVE",
"799 85 CURVE SMOOTH",
"929 153 OFFCURVE",
"970 281 OFFCURVE",
"970 515 CURVE SMOOTH",
"970 672 OFFCURVE",
"932 763 OFFCURVE",
"905 805 CURVE SMOOTH",
"878 848 OFFCURVE",
"802 888 OFFCURVE",
"746 907 CURVE"
);
}
);
width = 1086;
}
);
note = three;
unicode = 0033;
changeCount = 139;
},
{
glyphname = four;
lastChange = "2017-09-25 19:26:25 +0000";
layers = (
{
layerId = "BBA80624-4CF6-45E1-9846-B55476475641";
paths = (
{
closed = 1;
nodes = (
"78 561 LINE",
"78 333 LINE",
"559 333 LINE",
"561 63 LINE",
"845 63 LINE",
"843 333 LINE",
"954 333 LINE",
"954 500 LINE",
"838 500 LINE",
"838 1558 LINE",
"398 1558 LINE"
);
},
{
closed = 1;
nodes = (
"512 1445 LINE",
"535 512 LINE",
"256 512 LINE"
);
}
);
width = 1023;
}
);
note = four;
unicode = 0034;
changeCount = 47;
},
{
glyphname = five;
lastChange = "2017-09-25 19:29:11 +0000";
layers = (
{
layerId = "BBA80624-4CF6-45E1-9846-B55476475641";
paths = (
{
closed = 1;
nodes = (
"114 857 LINE",
"417 857 LINE",
"417 900 OFFCURVE",
"440 937 OFFCURVE",
"444 949 CURVE",
"450 973 OFFCURVE",
"514 997 OFFCURVE",
"547 997 CURVE SMOOTH",
"574 997 OFFCURVE",
"623 988 OFFCURVE",
"648 949 CURVE SMOOTH",
"661 929 OFFCURVE",
"682 845 OFFCURVE",
"682 789 CURVE SMOOTH",
"682 500 LINE SMOOTH",
"682 397 OFFCURVE",
"683 271 OFFCURVE",
"670 217 CURVE SMOOTH",
"661 180 OFFCURVE",
"594 160 OFFCURVE",
"557 160 CURVE SMOOTH",
"518 160 OFFCURVE",
"462 180 OFFCURVE",
"440 220 CURVE SMOOTH",
"420 256 OFFCURVE",
"417 438 OFFCURVE",
"417 533 CURVE SMOOTH",
"417 549 LINE",
"110 549 LINE",
"110 469 LINE SMOOTH",
"110 332 OFFCURVE",
"125 307 OFFCURVE",
"155 241 CURVE SMOOTH",
"216 110 OFFCURVE",
"370 17 OFFCURVE",
"559 17 CURVE SMOOTH",
"727 17 OFFCURVE",
"858 89 OFFCURVE",
"923 173 CURVE SMOOTH",
"988 256 OFFCURVE",
"989 329 OFFCURVE",
"989 538 CURVE SMOOTH",
"989 748 LINE SMOOTH",
"989 1070 OFFCURVE",
"898 1143 OFFCURVE",
"695 1143 CURVE SMOOTH",
"605 1143 OFFCURVE",
"474 1069 OFFCURVE",
"417 1002 CURVE",
"417 1406 LINE",
"896 1406 LINE",
"896 1544 LINE",
"129 1544 LINE"
);
}
);
width = 1099;
}
);
note = five;
unicode = 0035;
changeCount = 106;
},
{
glyphname = six;
lastChange = "2017-09-25 19:31:43 +0000";
layers = (
{
layerId = "BBA80624-4CF6-45E1-9846-B55476475641";
paths = (
{
closed = 1;
nodes = (
"988 1337 OFFCURVE",
"966 1359 OFFCURVE",
"938 1420 CURVE SMOOTH",
"881 1541 OFFCURVE",
"766 1586 OFFCURVE",
"560 1586 CURVE SMOOTH",
"476 1586 OFFCURVE",
"402 1562 OFFCURVE",
"339 1535 CURVE SMOOTH",
"211 1483 OFFCURVE",
"134 1367 OFFCURVE",
"124 1249 CURVE SMOOTH",
"119 1190 OFFCURVE",
"116 1073 OFFCURVE",
"116 897 CURVE SMOOTH",
"116 694 LINE SMOOTH",
"116 531 OFFCURVE",
"119 422 OFFCURVE",
"125 365 CURVE SMOOTH",
"131 309 OFFCURVE",
"151 255 OFFCURVE",
"185 205 CURVE SMOOTH",
"253 102 OFFCURVE",
"376 45 OFFCURVE",
"573 45 CURVE SMOOTH",
"732 45 OFFCURVE",
"854 95 OFFCURVE",
"923 181 CURVE SMOOTH",
"992 266 OFFCURVE",
"998 344 OFFCURVE",
"998 550 CURVE SMOOTH",
"998 667 LINE SMOOTH",
"998 754 OFFCURVE",
"991 823 OFFCURVE",
"977 874 CURVE SMOOTH",
"949 975 OFFCURVE",
"849 1022 OFFCURVE",
"715 1022 CURVE SMOOTH",
"608 1022 OFFCURVE",
"471 923 OFFCURVE",
"433 844 CURVE",
"434 1175 LINE SMOOTH",
"434 1231 OFFCURVE",
"435 1376 OFFCURVE",
"437 1394 CURVE SMOOTH",
"441 1431 OFFCURVE",
"516 1456 OFFCURVE",
"553 1456 CURVE SMOOTH",
"598 1456 OFFCURVE",
"674 1429 OFFCURVE",
"678 1394 CURVE",
"679 1375 OFFCURVE",
"680 1314 OFFCURVE",
"680 1246 CURVE",
"988 1246 LINE"
);
},
{
closed = 1;
nodes = (
"684 318 OFFCURVE",
"659 242 OFFCURVE",
"642 227 CURVE SMOOTH",
"624 211 OFFCURVE",
"575 181 OFFCURVE",
"559 181 CURVE SMOOTH",
"533 181 OFFCURVE",
"477 209 OFFCURVE",
"467 229 CURVE SMOOTH",
"455 249 OFFCURVE",
"438 333 OFFCURVE",
"438 397 CURVE SMOOTH",
"438 711 LINE SMOOTH",
"438 765 OFFCURVE",
"455 821 OFFCURVE",
"468 840 CURVE SMOOTH",
"491 874 OFFCURVE",
"536 885 OFFCURVE",
"561 885 CURVE SMOOTH",
"638 885 OFFCURVE",
"684 816 OFFCURVE",
"684 711 CURVE SMOOTH",
"684 386 LINE SMOOTH"
);
}
);
width = 1109;
}
);
note = six;
unicode = 0036;
changeCount = 127;
},
{
glyphname = seven;
lastChange = "2017-09-25 19:32:39 +0000";
layers = (
{
layerId = "BBA80624-4CF6-45E1-9846-B55476475641";
paths = (
{
closed = 1;
nodes = (
"69 1378 LINE",
"482 1378 LINE",
"206 74 LINE",
"482 74 LINE",
"717 1225 LINE",
"717 1557 LINE",
"69 1557 LINE"
);
}
);
width = 802;
}
);
note = seven;
unicode = 0037;
changeCount = 23;
},
{
glyphname = eight;
lastChange = "2017-09-25 19:34:49 +0000";
layers = (
{
layerId = "BBA80624-4CF6-45E1-9846-B55476475641";
paths = (
{
closed = 1;
nodes = (
"895 977 OFFCURVE",
"957 1025 OFFCURVE",
"957 1185 CURVE SMOOTH",
"957 1435 OFFCURVE",
"867 1593 OFFCURVE",
"543 1593 CURVE SMOOTH",
"263 1593 OFFCURVE",
"122 1447 OFFCURVE",
"122 1194 CURVE SMOOTH",
"122 1047 OFFCURVE",
"216 952 OFFCURVE",
"307 908 CURVE",
"162 829 OFFCURVE",
"110 697 OFFCURVE",
"110 519 CURVE SMOOTH",
"110 386 OFFCURVE",
"123 292 OFFCURVE",
"152 235 CURVE SMOOTH",
"206 121 OFFCURVE",
"329 45 OFFCURVE",
"547 45 CURVE SMOOTH",
"659 45 OFFCURVE",
"749 64 OFFCURVE",
"815 100 CURVE SMOOTH",
"949 172 OFFCURVE",
"984 264 OFFCURVE",
"984 501 CURVE SMOOTH",
"984 664 OFFCURVE",
"970 767 OFFCURVE",
"941 811 CURVE SMOOTH",
"912 854 OFFCURVE",
"823 886 OFFCURVE",
"769 908 CURVE"
);
},
{
closed = 1;
nodes = (
"660 1082 OFFCURVE",
"645 1019 OFFCURVE",
"637 1002 CURVE SMOOTH",
"629 985 OFFCURVE",
"573 970 OFFCURVE",
"549 970 CURVE SMOOTH",
"502 970 OFFCURVE",
"434 1032 OFFCURVE",
"434 1120 CURVE SMOOTH",
"434 1264 LINE SMOOTH",
"434 1311 OFFCURVE",
"449 1371 OFFCURVE",
"457 1389 CURVE SMOOTH",
"465 1406 OFFCURVE",
"499 1435 OFFCURVE",
"545 1435 CURVE SMOOTH",
"588 1435 OFFCURVE",
"628 1406 OFFCURVE",
"637 1391 CURVE",
"645 1375 OFFCURVE",
"660 1314 OFFCURVE",
"660 1264 CURVE SMOOTH",
"660 1134 LINE SMOOTH"
);
},
{
closed = 1;
nodes = (
"667 306 OFFCURVE",
"653 235 OFFCURVE",
"644 216 CURVE SMOOTH",
"635 196 OFFCURVE",
"580 180 OFFCURVE",
"553 180 CURVE SMOOTH",
"528 180 OFFCURVE",
"470 195 OFFCURVE",
"457 215 CURVE SMOOTH",
"445 234 OFFCURVE",
"426 303 OFFCURVE",
"426 370 CURVE SMOOTH",
"426 612 LINE SMOOTH",
"426 672 OFFCURVE",
"443 737 OFFCURVE",
"454 756 CURVE SMOOTH",
"465 774 OFFCURVE",
"519 790 OFFCURVE",
"544 790 CURVE SMOOTH",
"568 790 OFFCURVE",
"626 774 OFFCURVE",
"637 755 CURVE SMOOTH",
"649 735 OFFCURVE",
"667 671 OFFCURVE",
"667 612 CURVE SMOOTH",
"667 373 LINE SMOOTH"
);
}
);
width = 1095;
}
);
note = eight;
unicode = 0038;
changeCount = 125;
},
{
glyphname = nine;
lastChange = "2017-09-25 19:37:32 +0000";
layers = (
{
layerId = "BBA80624-4CF6-45E1-9846-B55476475641";
paths = (
{
closed = 1;
nodes = (
"116 292 OFFCURVE",
"120 279 OFFCURVE",
"149 218 CURVE SMOOTH",
"206 97 OFFCURVE",
"348 14 OFFCURVE",
"555 14 CURVE SMOOTH",
"639 14 OFFCURVE",
"734 44 OFFCURVE",
"798 70 CURVE SMOOTH",
"925 123 OFFCURVE",
"981 253 OFFCURVE",
"991 371 CURVE SMOOTH",
"995 430 OFFCURVE",
"998 546 OFFCURVE",
"998 722 CURVE SMOOTH",
"998 926 LINE SMOOTH",
"998 1088 OFFCURVE",
"995 1197 OFFCURVE",
"990 1254 CURVE SMOOTH",
"984 1310 OFFCURVE",
"964 1374 OFFCURVE",
"930 1425 CURVE SMOOTH",
"861 1527 OFFCURVE",
"738 1598 OFFCURVE",
"542 1598 CURVE SMOOTH",
"382 1598 OFFCURVE",
"260 1534 OFFCURVE",
"192 1449 CURVE SMOOTH",
"123 1364 OFFCURVE",
"116 1275 OFFCURVE",
"116 1069 CURVE SMOOTH",
"116 952 LINE SMOOTH",
"116 865 OFFCURVE",
"123 796 OFFCURVE",
"137 745 CURVE SMOOTH",
"165 644 OFFCURVE",
"279 560 OFFCURVE",
"413 560 CURVE SMOOTH",
"567 560 OFFCURVE",
"630 700 OFFCURVE",
"677 773 CURVE",
"677 439 LINE SMOOTH",
"677 382 OFFCURVE",
"662 262 OFFCURVE",
"661 244 CURVE",
"657 207 OFFCURVE",
"599 182 OFFCURVE",
"562 182 CURVE SMOOTH",
"517 182 OFFCURVE",
"455 208 OFFCURVE",
"451 244 CURVE SMOOTH",
"449 262 OFFCURVE",
"440 314 OFFCURVE",
"440 382 CURVE",
"116 383 LINE"
);
},
{
closed = 1;
nodes = (
"433 1319 OFFCURVE",
"458 1385 OFFCURVE",
"475 1400 CURVE SMOOTH",
"493 1416 OFFCURVE",
"542 1427 OFFCURVE",
"558 1427 CURVE SMOOTH",
"584 1427 OFFCURVE",
"640 1412 OFFCURVE",
"652 1392 CURVE SMOOTH",
"663 1371 OFFCURVE",
"679 1304 OFFCURVE",
"679 1239 CURVE SMOOTH",
"679 919 LINE SMOOTH",
"679 864 OFFCURVE",
"662 808 OFFCURVE",
"650 788 CURVE SMOOTH",
"639 769 OFFCURVE",
"581 755 OFFCURVE",
"556 755 CURVE SMOOTH",
"539 755 OFFCURVE",
"489 766 OFFCURVE",
"474 781 CURVE SMOOTH",
"457 795 OFFCURVE",
"433 855 OFFCURVE",
"433 919 CURVE SMOOTH",
"433 1250 LINE SMOOTH"
);
}
);
width = 1109;
}
);
note = nine;
unicode = 0039;
changeCount = 134;
},
{
glyphname = colon;
lastChange = "2017-09-25 19:38:14 +0000";
layers = (
{
layerId = "BBA80624-4CF6-45E1-9846-B55476475641";
paths = (
{
closed = 1;
nodes = (
"120 769 LINE",
"335 769 LINE",
"335 1006 LINE",
"120 1006 LINE"
);
},
{
closed = 1;
nodes = (
"120 48 LINE",
"331 48 LINE",
"331 280 LINE",
"120 280 LINE"
);
}
);
width = 414;
}
);
note = colon;
unicode = 003A;
changeCount = 25;
},
{
glyphname = semicolon;
lastChange = "2017-09-25 20:02:53 +0000";
layers = (
{
layerId = "BBA80624-4CF6-45E1-9846-B55476475641";
paths = (
{
closed = 1;
nodes = (
"72 725 LINE",
"377 725 LINE",
"377 1054 LINE",
"72 1054 LINE"
);
},
{
closed = 1;
nodes = (
"101 770 LINE",
"337 770 LINE",
"337 997 LINE",
"101 997 LINE"
);
},
{
closed = 1;
nodes = (
"131 39 LINE",
"207 39 LINE",
"203 4 OFFCURVE",
"155 -85 OFFCURVE",
"118 -106 CURVE",
"121 -150 LINE",
"172 -140 OFFCURVE",
"199 -120 OFFCURVE",
"240 -89 CURVE SMOOTH",
"320 -27 OFFCURVE",
"329 57 OFFCURVE",
"329 195 CURVE SMOOTH",
"329 264 LINE",
"131 264 LINE"
);
}
);
width = 414;
}
);
note = semicolon;
unicode = 003B;
changeCount = 35;
},
{
glyphname = less;
lastChange = "2017-09-25 20:03:32 +0000";
layers = (
{
layerId = "BBA80624-4CF6-45E1-9846-B55476475641";
paths = (
{
closed = 1;
nodes = (
"349 827 LINE",
"983 1094 LINE",
"983 1263 LINE",
"109 898 LINE",
"109 747 LINE",
"983 383 LINE",
"983 552 LINE"
);
}
);
width = 1092;
}
);
note = less;
unicode = 003C;
changeCount = 24;
},
{
glyphname = equal;
lastChange = "2017-09-25 20:03:52 +0000";
layers = (
{
layerId = "BBA80624-4CF6-45E1-9846-B55476475641";
paths = (
{
closed = 1;
nodes = (
"983 918 LINE",
"983 1094 LINE",
"109 1094 LINE",
"109 918 LINE"
);
},
{
closed = 1;
nodes = (
"983 524 LINE",
"983 700 LINE",
"109 700 LINE",
"109 524 LINE"
);
}
);
width = 1092;
}
);
note = equal;
unicode = 003D;
changeCount = 21;
},
{
glyphname = greater;
lastChange = "2017-09-25 20:04:20 +0000";
layers = (
{
layerId = "BBA80624-4CF6-45E1-9846-B55476475641";
paths = (
{
closed = 1;
nodes = (
"752 827 LINE",
"109 553 LINE",
"109 388 LINE",
"983 753 LINE",
"983 900 LINE",
"109 1263 LINE",
"109 1097 LINE"
);
}
);
width = 1092;
}
);
note = greater;
unicode = 003E;
changeCount = 22;
},
{
glyphname = question;
lastChange = "2017-09-25 20:06:14 +0000";
layers = (
{
layerId = "BBA80624-4CF6-45E1-9846-B55476475641";
paths = (
{
closed = 1;
nodes = (
"454 1248 OFFCURVE",
"455 1412 OFFCURVE",
"463 1437 CURVE SMOOTH",
"472 1461 OFFCURVE",
"530 1473 OFFCURVE",
"558 1473 CURVE SMOOTH",
"581 1473 OFFCURVE",
"643 1464 OFFCURVE",
"652 1446 CURVE",
"659 1427 OFFCURVE",
"664 1281 OFFCURVE",
"664 1228 CURVE SMOOTH",
"664 983 LINE SMOOTH",
"664 886 OFFCURVE",
"645 769 OFFCURVE",
"637 744 CURVE SMOOTH",
"628 720 OFFCURVE",
"570 707 OFFCURVE",
"540 707 CURVE SMOOTH",
"501 707 OFFCURVE",
"438 749 OFFCURVE",
"437 805 CURVE",
"146 805 LINE",
"152 448 LINE",
"455 445 LINE",
"455 668 LINE",
"498 598 OFFCURVE",
"618 518 OFFCURVE",
"707 518 CURVE SMOOTH",
"775 518 OFFCURVE",
"822 518 OFFCURVE",
"873 555 CURVE SMOOTH",
"975 631 OFFCURVE",
"995 720 OFFCURVE",
"995 883 CURVE SMOOTH",
"995 1063 LINE SMOOTH",
"995 1278 OFFCURVE",
"965 1373 OFFCURVE",
"896 1461 CURVE SMOOTH",
"828 1547 OFFCURVE",
"711 1604 OFFCURVE",
"557 1604 CURVE SMOOTH",
"451 1604 OFFCURVE",
"353 1578 OFFCURVE",
"285 1534 CURVE SMOOTH",
"146 1444 OFFCURVE",
"130 1407 OFFCURVE",
"127 1148 CURVE",
"454 1148 LINE",
"454 1162 LINE SMOOTH"
);
},
{
closed = 1;
nodes = (
"152 47 LINE",
"449 47 LINE",
"449 274 LINE",
"152 274 LINE"
);
}
);
width = 1075;
}
);
note = question;
unicode = 003F;
changeCount = 103;
},
{
glyphname = at;
lastChange = "2017-09-25 20:07:59 +0000";
layers = (
{
layerId = "BBA80624-4CF6-45E1-9846-B55476475641";
paths = (
{
closed = 1;
nodes = (
"979 1194 LINE",
"922 1290 OFFCURVE",
"844 1338 OFFCURVE",
"748 1338 CURVE SMOOTH",
"508 1338 OFFCURVE",
"317 1032 OFFCURVE",
"317 699 CURVE SMOOTH",
"317 440 OFFCURVE",
"447 273 OFFCURVE",
"646 273 CURVE SMOOTH",
"738 273 OFFCURVE",
"791 302 OFFCURVE",
"882 390 CURVE",
"901 313 OFFCURVE",
"953 274 OFFCURVE",
"1039 274 CURVE SMOOTH",
"1268 274 OFFCURVE",
"1553 525 OFFCURVE",
"1553 934 CURVE SMOOTH",
"1553 1088 OFFCURVE",
"1521 1217 OFFCURVE",
"1457 1322 CURVE SMOOTH",
"1328 1530 OFFCURVE",
"1148 1653 OFFCURVE",
"845 1653 CURVE SMOOTH",
"337 1653 OFFCURVE",
"36 1262 OFFCURVE",
"36 763 CURVE SMOOTH",
"36 260 OFFCURVE",
"381 -75 OFFCURVE",
"836 -75 CURVE SMOOTH",
"1101 -75 OFFCURVE",
"1377 40 OFFCURVE",
"1550 261 CURVE",
"1340 261 LINE",
"1189 137 OFFCURVE",
"1022 74 OFFCURVE",
"835 74 CURVE SMOOTH",
"456 74 OFFCURVE",
"184 344 OFFCURVE",
"184 772 CURVE SMOOTH",
"184 1216 OFFCURVE",
"464 1504 OFFCURVE",
"849 1504 CURVE SMOOTH",
"1181 1504 OFFCURVE",
"1405 1274 OFFCURVE",
"1405 934 CURVE SMOOTH",
"1405 833 OFFCURVE",
"1388 745 OFFCURVE",
"1353 670 CURVE SMOOTH",
"1283 519 OFFCURVE",
"1179 442 OFFCURVE",
"1099 442 CURVE SMOOTH",
"1074 442 OFFCURVE",
"1062 455 OFFCURVE",
"1062 481 CURVE SMOOTH",
"1062 487 OFFCURVE",
"1063 499 OFFCURVE",
"1066 516 CURVE SMOOTH",
"1193 1308 LINE",
"995 1308 LINE"
);
},
{
closed = 1;
nodes = (
"525 905 OFFCURVE",
"616 1182 OFFCURVE",
"779 1182 CURVE SMOOTH",
"866 1182 OFFCURVE",
"920 1101 OFFCURVE",
"920 981 CURVE SMOOTH",
"920 789 OFFCURVE",
"853 537 OFFCURVE",
"787 469 CURVE SMOOTH",
"754 435 OFFCURVE",
"715 418 OFFCURVE",
"672 418 CURVE SMOOTH",
"583 418 OFFCURVE",
"525 517 OFFCURVE",
"525 642 CURVE SMOOTH"
);
},
{
closed = 1;
nodes = (
"967 1171 LINE",
"914 1261 OFFCURVE",
"841 1306 OFFCURVE",
"751 1306 CURVE SMOOTH",
"527 1306 OFFCURVE",
"348 1018 OFFCURVE",
"348 704 CURVE SMOOTH",
"348 460 OFFCURVE",
"470 303 OFFCURVE",
"656 303 CURVE SMOOTH",
"742 303 OFFCURVE",
"791 330 OFFCURVE",
"876 413 CURVE",
"894 341 OFFCURVE",
"943 304 OFFCURVE",
"1023 304 CURVE SMOOTH",
"1237 304 OFFCURVE",
"1503 540 OFFCURVE",
"1503 926 CURVE SMOOTH",
"1503 1071 OFFCURVE",
"1473 1192 OFFCURVE",
"1413 1291 CURVE SMOOTH",
"1293 1487 OFFCURVE",
"1125 1603 OFFCURVE",
"842 1603 CURVE SMOOTH",
"367 1603 OFFCURVE",
"86 1235 OFFCURVE",
"86 765 CURVE SMOOTH",
"86 291 OFFCURVE",
"408 -25 OFFCURVE",
"833 -25 CURVE SMOOTH",
"1081 -25 OFFCURVE",
"1339 83 OFFCURVE",
"1500 292 CURVE",
"1304 292 LINE",
"1163 175 OFFCURVE",
"1007 115 OFFCURVE",
"832 115 CURVE SMOOTH",
"478 115 OFFCURVE",
"224 370 OFFCURVE",
"224 773 CURVE SMOOTH",
"224 1191 OFFCURVE",
"486 1463 OFFCURVE",
"845 1463 CURVE SMOOTH",
"1156 1463 OFFCURVE",
"1365 1246 OFFCURVE",
"1365 926 CURVE SMOOTH",
"1365 830 OFFCURVE",
"1349 748 OFFCURVE",
"1316 677 CURVE SMOOTH",
"1251 535 OFFCURVE",
"1154 462 OFFCURVE",
"1079 462 CURVE SMOOTH",
"1056 462 OFFCURVE",
"1044 474 OFFCURVE",
"1044 499 CURVE SMOOTH",
"1044 504 OFFCURVE",
"1045 516 OFFCURVE",
"1048 532 CURVE SMOOTH",
"1167 1278 LINE",
"982 1278 LINE"
);
},
{
closed = 1;
nodes = (
"543 898 OFFCURVE",
"628 1159 OFFCURVE",
"780 1159 CURVE SMOOTH",
"861 1159 OFFCURVE",
"912 1083 OFFCURVE",
"912 970 CURVE SMOOTH",
"912 789 OFFCURVE",
"849 552 OFFCURVE",
"787 488 CURVE SMOOTH",
"757 455 OFFCURVE",
"720 439 OFFCURVE",
"680 439 CURVE SMOOTH",
"597 439 OFFCURVE",
"543 533 OFFCURVE",
"543 651 CURVE SMOOTH"
);
}
);
width = 1587;
}
);
note = at;
unicode = 0040;
changeCount = 13;
},
{
glyphname = A;
lastChange = "2017-09-25 17:39:42 +0000";
layers = (
{
layerId = "BBA80624-4CF6-45E1-9846-B55476475641";
paths = (
{
closed = 1;
nodes = (
"36 74 LINE",
"379 74 LINE",
"401 338 LINE",
"635 338 LINE",
"654 74 LINE",
"1004 74 LINE",
"785 1545 LINE",
"231 1545 LINE"
);
},
{
closed = 1;
nodes = (
"524 1362 LINE",
"654 546 LINE",
"387 546 LINE"
);
}
);
width = 1040;
}
);
note = A;
unicode = 0041;
changeCount = 47;
},
{
glyphname = B;
lastChange = "2017-09-25 17:49:45 +0000";
layers = (
{
layerId = "BBA80624-4CF6-45E1-9846-B55476475641";
paths = (
{
closed = 1;
nodes = (
"571 74 LINE SMOOTH",
"725 74 OFFCURVE",
"827 83 OFFCURVE",
"877 100 CURVE SMOOTH",
"976 135 OFFCURVE",
"1019 220 OFFCURVE",
"1019 419 CURVE SMOOTH",
"1019 555 LINE SMOOTH",
"1019 747 OFFCURVE",
"909 834 OFFCURVE",
"732 874 CURVE",
"891 911 OFFCURVE",
"992 955 OFFCURVE",
"992 1126 CURVE SMOOTH",
"992 1254 OFFCURVE",
"973 1346 OFFCURVE",
"935 1404 CURVE SMOOTH",
"859 1518 OFFCURVE",
"751 1545 OFFCURVE",
"510 1545 CURVE SMOOTH",
"143 1545 LINE",
"143 74 LINE"
);
},
{
closed = 1;
nodes = (
"549 1376 OFFCURVE",
"634 1374 OFFCURVE",
"662 1318 CURVE",
"674 1287 OFFCURVE",
"675 1200 OFFCURVE",
"675 1154 CURVE SMOOTH",
"675 1066 OFFCURVE",
"662 1014 OFFCURVE",
"652 995 CURVE SMOOTH",
"642 976 OFFCURVE",
"587 955 OFFCURVE",
"549 955 CURVE SMOOTH",
"540 955 OFFCURVE",
"487 956 OFFCURVE",
"470 955 CURVE",
"470 1377 LINE"
);
},
{
closed = 1;
nodes = (
"589 765 OFFCURVE",
"674 760 OFFCURVE",
"674 635 CURVE SMOOTH",
"674 428 LINE SMOOTH",
"674 208 OFFCURVE",
"583 246 OFFCURVE",
"475 242 CURVE",
"475 768 LINE"
);
}
);
width = 1131;
}
);
note = B;
unicode = 0042;
changeCount = 100;
},
{
glyphname = C;
lastChange = "2017-09-25 18:14:55 +0000";
layers = (
{
layerId = "BBA80624-4CF6-45E1-9846-B55476475641";
paths = (
{
closed = 1;
nodes = (
"1022 1181 OFFCURVE",
"1010 1283 OFFCURVE",
"987 1348 CURVE SMOOTH",
"941 1478 OFFCURVE",
"789 1576 OFFCURVE",
"564 1576 CURVE SMOOTH",
"397 1576 OFFCURVE",
"286 1515 OFFCURVE",
"214 1418 CURVE SMOOTH",
"141 1320 OFFCURVE",
"137 1238 OFFCURVE",
"137 1026 CURVE SMOOTH",
"137 596 LINE SMOOTH",
"137 452 OFFCURVE",
"149 345 OFFCURVE",
"173 273 CURVE SMOOTH",
"221 129 OFFCURVE",
"350 43 OFFCURVE",
"575 43 CURVE SMOOTH",
"683 43 OFFCURVE",
"774 66 OFFCURVE",
"847 115 CURVE SMOOTH",
"995 210 OFFCURVE",
"1028 247 OFFCURVE",
"1028 551 CURVE SMOOTH",
"1028 609 LINE",
"682 609 LINE",
"682 478 LINE SMOOTH",
"682 393 OFFCURVE",
"686 343 OFFCURVE",
"677 301 CURVE",
"667 259 OFFCURVE",
"651 200 OFFCURVE",
"572 200 CURVE SMOOTH",
"542 200 OFFCURVE",
"462 218 OFFCURVE",
"458 300 CURVE SMOOTH",
"450 479 LINE",
"459 1148 LINE SMOOTH",
"460 1223 OFFCURVE",
"463 1322 OFFCURVE",
"472 1345 CURVE SMOOTH",
"480 1367 OFFCURVE",
"499 1424 OFFCURVE",
"573 1424 CURVE SMOOTH",
"651 1424 OFFCURVE",
"659 1357 OFFCURVE",
"663 1345 CURVE SMOOTH",
"670 1325 OFFCURVE",
"682 1280 OFFCURVE",
"682 1205 CURVE SMOOTH",
"682 949 LINE",
"1022 949 LINE",
"1022 1044 LINE SMOOTH"
);
}
);
width = 1134;
}
);
note = C;
unicode = 0043;
changeCount = 112;
},
{
glyphname = D;
lastChange = "2017-09-25 18:14:36 +0000";
layers = (
{
layerId = "BBA80624-4CF6-45E1-9846-B55476475641";
paths = (
{
closed = 1;
nodes = (
"611 74 LINE SMOOTH",
"703 74 OFFCURVE",
"771 79 OFFCURVE",
"817 89 CURVE SMOOTH",
"907 109 OFFCURVE",
"940 157 OFFCURVE",
"966 246 CURVE SMOOTH",
"979 290 OFFCURVE",
"984 379 OFFCURVE",
"984 511 CURVE SMOOTH",
"984 1026 LINE SMOOTH",
"984 1165 OFFCURVE",
"979 1259 OFFCURVE",
"971 1307 CURVE SMOOTH",
"955 1402 OFFCURVE",
"920 1486 OFFCURVE",
"790 1520 CURVE SMOOTH",
"725 1537 OFFCURVE",
"599 1545 OFFCURVE",
"415 1545 CURVE SMOOTH",
"158 1545 LINE",
"158 74 LINE"
);
},
{
closed = 1;
nodes = (
"542 1401 OFFCURVE",
"664 1386 OFFCURVE",
"676 1304 CURVE SMOOTH",
"684 1248 OFFCURVE",
"682 1030 OFFCURVE",
"682 964 CURVE SMOOTH",
"682 433 LINE SMOOTH",
"682 237 OFFCURVE",
"568 232 OFFCURVE",
"458 232 CURVE",
"458 1401 LINE"
);
}
);
width = 1132;
}
);
note = D;
unicode = 0044;
changeCount = 63;
},
{
glyphname = E;
lastChange = "2017-09-25 17:59:55 +0000";
layers = (
{
layerId = "BBA80624-4CF6-45E1-9846-B55476475641";
paths = (
{
closed = 1;
nodes = (
"760 62 LINE",
"760 269 LINE",
"457 269 LINE",
"457 725 LINE",
"720 725 LINE",
"720 948 LINE",
"457 948 LINE",
"454 1345 LINE",
"732 1345 LINE",
"732 1558 LINE",
"132 1558 LINE",
"132 62 LINE"
);
}
);
width = 851;
}
);
note = E;
unicode = 0045;
changeCount = 40;
},
{
glyphname = F;
lastChange = "2017-09-25 18:01:14 +0000";
layers = (
{
layerId = "BBA80624-4CF6-45E1-9846-B55476475641";
paths = (
{
closed = 1;
nodes = (
"444 74 LINE",
"444 731 LINE",
"717 731 LINE",
"717 947 LINE",
"459 947 LINE",
"459 1346 LINE",
"749 1346 LINE",
"749 1563 LINE",
"143 1563 LINE",
"143 74 LINE"
);
}
);
width = 815;
}
);
note = F;
unicode = 0046;
changeCount = 33;
},
{
glyphname = G;
lastChange = "2017-09-25 18:07:17 +0000";
layers = (
{
layerId = "BBA80624-4CF6-45E1-9846-B55476475641";
paths = (
{
closed = 1;
nodes = (
"1006 1256 OFFCURVE",
"995 1280 OFFCURVE",
"972 1344 CURVE SMOOTH",
"927 1470 OFFCURVE",
"773 1576 OFFCURVE",
"548 1576 CURVE SMOOTH",
"435 1576 OFFCURVE",
"342 1550 OFFCURVE",
"270 1497 CURVE SMOOTH",
"126 1391 OFFCURVE",
"116 1296 OFFCURVE",
"116 1015 CURVE SMOOTH",
"116 578 LINE SMOOTH",
"116 375 OFFCURVE",
"124 297 OFFCURVE",
"182 205 CURVE SMOOTH",
"240 114 OFFCURVE",
"362 16 OFFCURVE",
"490 16 CURVE SMOOTH",
"598 16 OFFCURVE",
"696 98 OFFCURVE",
"748 189 CURVE",
"812 74 LINE",
"1006 74 LINE",
"1006 819 LINE",
"590 819 LINE",
"590 656 LINE",
"687 656 LINE",
"687 465 LINE SMOOTH",
"687 288 OFFCURVE",
"666 275 OFFCURVE",
"650 236 CURVE SMOOTH",
"640 213 OFFCURVE",
"589 197 OFFCURVE",
"561 197 CURVE SMOOTH",
"535 197 OFFCURVE",
"483 221 OFFCURVE",
"476 240 CURVE SMOOTH",
"451 305 OFFCURVE",
"448 394 OFFCURVE",
"448 461 CURVE SMOOTH",
"448 1167 LINE SMOOTH",
"448 1341 OFFCURVE",
"455 1360 OFFCURVE",
"476 1391 CURVE SMOOTH",
"498 1424 OFFCURVE",
"536 1431 OFFCURVE",
"560 1431 CURVE SMOOTH",
"607 1431 OFFCURVE",
"636 1425 OFFCURVE",
"655 1391 CURVE SMOOTH",
"676 1353 OFFCURVE",
"677 1222 OFFCURVE",
"677 1137 CURVE SMOOTH",
"677 1072 LINE",
"1006 1072 LINE",
"1006 1135 LINE SMOOTH"
);
}
);
width = 1129;
}
);
note = G;
unicode = 0047;
changeCount = 115;
},
{
glyphname = H;
lastChange = "2017-09-25 18:16:36 +0000";
layers = (
{
layerId = "BBA80624-4CF6-45E1-9846-B55476475641";
paths = (
{
closed = 1;
nodes = (
"702 969 LINE",
"444 969 LINE",
"444 1545 LINE",
"138 1548 LINE",
"138 77 LINE",
"446 74 LINE",
"444 746 LINE",
"689 746 LINE",
"691 74 LINE",
"995 74 LINE",
"995 1545 LINE",
"702 1545 LINE"
);
}
);
width = 1137;
}
);
note = H;
unicode = 0048;
changeCount = 35;
},
{
glyphname = I;
lastChange = "2017-09-25 18:17:00 +0000";
layers = (
{
layerId = "BBA80624-4CF6-45E1-9846-B55476475641";
paths = (
{
closed = 1;
nodes = (
"157 74 LINE",
"441 74 LINE",
"441 1545 LINE",
"157 1545 LINE"
);
}
);
width = 590;
}
);
note = I;
unicode = 0049;
changeCount = 13;
},
{
glyphname = J;
lastChange = "2017-09-25 18:18:16 +0000";
layers = (
{
layerId = "BBA80624-4CF6-45E1-9846-B55476475641";
paths = (
{
closed = 1;
nodes = (
"244 510 LINE SMOOTH",
"244 455 OFFCURVE",
"242 349 OFFCURVE",
"239 330 CURVE SMOOTH",
"235 291 OFFCURVE",
"176 228 OFFCURVE",
"121 228 CURVE SMOOTH",
"111 228 OFFCURVE",
"94 229 OFFCURVE",
"71 231 CURVE",
"71 56 LINE",
"236 56 LINE SMOOTH",
"323 56 OFFCURVE",
"384 62 OFFCURVE",
"427 76 CURVE SMOOTH",
"510 103 OFFCURVE",
"528 194 OFFCURVE",
"534 278 CURVE SMOOTH",
"537 320 OFFCURVE",
"539 415 OFFCURVE",
"539 562 CURVE SMOOTH",
"539 1545 LINE",
"244 1545 LINE"
);
}
);
width = 678;
}
);
note = J;
unicode = 004A;
changeCount = 43;
},
{
glyphname = K;
lastChange = "2017-09-25 18:21:12 +0000";
layers = (
{
layerId = "BBA80624-4CF6-45E1-9846-B55476475641";
paths = (
{
closed = 1;
nodes = (
"556 934 LINE",
"434 934 LINE",
"434 1545 LINE",
"145 1545 LINE",
"145 74 LINE",
"434 74 LINE",
"434 780 LINE",
"540 780 LINE",
"732 74 LINE",
"1008 74 LINE",
"766 881 LINE",
"990 1545 LINE",
"743 1545 LINE"
);
}
);
width = 1099;
}
);
note = K;
unicode = 004B;
changeCount = 48;
},
{
glyphname = L;
lastChange = "2017-09-25 18:21:53 +0000";
layers = (
{
layerId = "BBA80624-4CF6-45E1-9846-B55476475641";
paths = (
{
closed = 1;
nodes = (
"159 74 LINE",
"700 74 LINE",
"700 260 LINE",
"426 260 LINE",
"426 1545 LINE",
"159 1545 LINE"
);
}
);
width = 779;
}
);
note = L;
unicode = 004C;
changeCount = 19;
},
{
glyphname = M;
lastChange = "2017-09-25 18:24:14 +0000";
layers = (
{
layerId = "BBA80624-4CF6-45E1-9846-B55476475641";
paths = (
{
closed = 1;
nodes = (
"738 652 LINE",
"629 1220 LINE SMOOTH",
"607 1336 OFFCURVE",
"584 1457 OFFCURVE",
"570 1545 CURVE",
"143 1545 LINE",
"143 74 LINE",
"393 74 LINE",
"393 1153 LINE",
"493 1153 LINE",
"653 74 LINE",
"818 74 LINE",
"965 1153 LINE",
"1052 1153 LINE",
"1080 74 LINE",
"1310 74 LINE",
"1310 1545 LINE",
"922 1545 LINE"
);
}
);
width = 1468;
}
);
note = M;
unicode = 004D;
changeCount = 52;
},
{
glyphname = N;
lastChange = "2017-09-25 18:25:20 +0000";
layers = (
{
layerId = "BBA80624-4CF6-45E1-9846-B55476475641";
paths = (
{
closed = 1;
nodes = (
"715 632 LINE",
"377 1545 LINE",
"144 1545 LINE",
"144 74 LINE",
"377 74 LINE",
"396 968 LINE",
"716 74 LINE",
"959 74 LINE",
"959 1545 LINE",
"736 1545 LINE"
);
}
);
width = 1109;
}
);
note = N;
unicode = 004E;
changeCount = 33;
},
{
glyphname = O;
lastChange = "2017-09-25 18:28:46 +0000";
layers = (
{
layerId = "BBA80624-4CF6-45E1-9846-B55476475641";
paths = (
{
closed = 1;
nodes = (
"973 1086 OFFCURVE",
"969 1192 OFFCURVE",
"962 1253 CURVE SMOOTH",
"955 1314 OFFCURVE",
"961 1370 OFFCURVE",
"923 1422 CURVE SMOOTH",
"846 1525 OFFCURVE",
"716 1576 OFFCURVE",
"559 1576 CURVE SMOOTH",
"476 1576 OFFCURVE",
"404 1563 OFFCURVE",
"341 1535 CURVE SMOOTH",
"216 1481 OFFCURVE",
"165 1373 OFFCURVE",
"151 1250 CURVE SMOOTH",
"144 1188 OFFCURVE",
"140 1084 OFFCURVE",
"140 935 CURVE SMOOTH",
"140 684 LINE SMOOTH",
"140 532 OFFCURVE",
"144 426 OFFCURVE",
"151 365 CURVE SMOOTH",
"158 305 OFFCURVE",
"173 249 OFFCURVE",
"211 197 CURVE SMOOTH",
"288 95 OFFCURVE",
"402 43 OFFCURVE",
"559 43 CURVE SMOOTH",
"642 43 OFFCURVE",
"714 56 OFFCURVE",
"777 84 CURVE SMOOTH",
"902 138 OFFCURVE",
"951 245 OFFCURVE",
"963 369 CURVE SMOOTH",
"969 430 OFFCURVE",
"973 534 OFFCURVE",
"973 683 CURVE SMOOTH",
"973 934 LINE SMOOTH"
);
},
{
closed = 1;
nodes = (
"669 343 OFFCURVE",
"656 256 OFFCURVE",
"649 233 CURVE SMOOTH",
"642 210 OFFCURVE",
"584 192 OFFCURVE",
"557 192 CURVE SMOOTH",
"532 192 OFFCURVE",
"475 208 OFFCURVE",
"469 228 CURVE",
"462 248 OFFCURVE",
"449 331 OFFCURVE",
"449 416 CURVE SMOOTH",
"449 1236 LINE SMOOTH",
"449 1312 OFFCURVE",
"468 1385 OFFCURVE",
"479 1400 CURVE",
"489 1416 OFFCURVE",
"542 1427 OFFCURVE",
"562 1427 CURVE SMOOTH",
"586 1427 OFFCURVE",
"641 1413 OFFCURVE",
"649 1394 CURVE",
"656 1375 OFFCURVE",
"669 1305 OFFCURVE",
"669 1236 CURVE SMOOTH",
"669 429 LINE SMOOTH"
);
}
);
width = 1119;
}
);
note = O;
unicode = 004F;
changeCount = 100;
},
{
glyphname = P;
lastChange = "2017-09-25 18:30:59 +0000";
layers = (
{
layerId = "BBA80624-4CF6-45E1-9846-B55476475641";
paths = (
{
closed = 1;
nodes = (
"439 74 LINE",
"439 718 LINE",
"611 718 LINE SMOOTH",
"694 718 OFFCURVE",
"763 730 OFFCURVE",
"814 753 CURVE SMOOTH",
"918 800 OFFCURVE",
"923 817 OFFCURVE",
"923 1005 CURVE SMOOTH",
"923 1134 LINE SMOOTH",
"923 1318 OFFCURVE",
"934 1388 OFFCURVE",
"878 1450 CURVE SMOOTH",
"822 1512 OFFCURVE",
"719 1545 OFFCURVE",
"511 1545 CURVE SMOOTH",
"155 1545 LINE",
"155 74 LINE"
);
},
{
closed = 1;
nodes = (
"568 1407 OFFCURVE",
"688 1352 OFFCURVE",
"688 1252 CURVE SMOOTH",
"688 1032 LINE SMOOTH",
"688 923 OFFCURVE",
"585 876 OFFCURVE",
"515 876 CURVE SMOOTH",
"507 876 OFFCURVE",
"480 876 OFFCURVE",
"469 877 CURVE",
"469 1407 LINE"
);
}
);
width = 1028;
}
);
note = P;
unicode = 0050;
changeCount = 59;
},
{
glyphname = Q;
lastChange = "2017-09-25 18:33:08 +0000";
layers = (
{
layerId = "BBA80624-4CF6-45E1-9846-B55476475641";
paths = (
{
closed = 1;
nodes = (
"782 -50 OFFCURVE",
"718 -27 OFFCURVE",
"713 95 CURVE",
"886 166 OFFCURVE",
"942 222 OFFCURVE",
"968 315 CURVE SMOOTH",
"980 362 OFFCURVE",
"987 451 OFFCURVE",
"987 582 CURVE SMOOTH",
"987 1060 LINE SMOOTH",
"987 1250 OFFCURVE",
"988 1324 OFFCURVE",
"923 1414 CURVE SMOOTH",
"856 1504 OFFCURVE",
"715 1569 OFFCURVE",
"544 1569 CURVE SMOOTH",
"402 1569 OFFCURVE",
"281 1522 OFFCURVE",
"207 1429 CURVE SMOOTH",
"134 1336 OFFCURVE",
"127 1252 OFFCURVE",
"127 1052 CURVE SMOOTH",
"127 596 LINE SMOOTH",
"127 464 OFFCURVE",
"126 365 OFFCURVE",
"146 299 CURVE SMOOTH",
"186 166 OFFCURVE",
"364 64 OFFCURVE",
"538 59 CURVE",
"538 -51 OFFCURVE",
"552 -95 OFFCURVE",
"609 -115 CURVE SMOOTH",
"638 -125 OFFCURVE",
"643 -124 OFFCURVE",
"713 -124 CURVE SMOOTH",
"1002 -124 LINE",
"1003 -50 LINE",
"870 -50 LINE SMOOTH"
);
},
{
closed = 1;
nodes = (
"674 336 OFFCURVE",
"660 248 OFFCURVE",
"653 226 CURVE SMOOTH",
"646 203 OFFCURVE",
"584 184 OFFCURVE",
"557 184 CURVE",
"532 184 OFFCURVE",
"471 200 OFFCURVE",
"465 220 CURVE",
"453 259 OFFCURVE",
"444 324 OFFCURVE",
"444 409 CURVE SMOOTH",
"444 1229 LINE SMOOTH",
"444 1304 OFFCURVE",
"465 1377 OFFCURVE",
"475 1393 CURVE",
"485 1408 OFFCURVE",
"543 1420 OFFCURVE",
"563 1420 CURVE SMOOTH",
"586 1420 OFFCURVE",
"645 1405 OFFCURVE",
"653 1386 CURVE",
"660 1367 OFFCURVE",
"674 1297 OFFCURVE",
"674 1229 CURVE SMOOTH",
"674 422 LINE SMOOTH"
);
}
);
width = 1119;
}
);
note = Q;
unicode = 0051;
changeCount = 105;
},
{
glyphname = R;
lastChange = "2017-09-25 18:35:25 +0000";
layers = (
{
layerId = "BBA80624-4CF6-45E1-9846-B55476475641";
paths = (
{
closed = 1;
nodes = (
"436 74 LINE",
"436 820 LINE",
"648 820 OFFCURVE",
"697 720 OFFCURVE",
"697 563 CURVE SMOOTH",
"697 74 LINE",
"968 74 LINE",
"968 462 LINE SMOOTH",
"968 581 OFFCURVE",
"966 654 OFFCURVE",
"959 680 CURVE SMOOTH",
"945 733 OFFCURVE",
"852 785 OFFCURVE",
"700 842 CURVE",
"868 881 OFFCURVE",
"959 1045 OFFCURVE",
"959 1177 CURVE SMOOTH",
"959 1386 OFFCURVE",
"892 1496 OFFCURVE",
"765 1525 CURVE SMOOTH",
"700 1538 OFFCURVE",
"579 1545 OFFCURVE",
"398 1545 CURVE SMOOTH",
"159 1545 LINE",
"159 74 LINE"
);
},
{
closed = 1;
nodes = (
"550 1384 OFFCURVE",
"677 1368 OFFCURVE",
"677 1223 CURVE SMOOTH",
"677 1113 LINE SMOOTH",
"677 932 OFFCURVE",
"548 940 OFFCURVE",
"468 940 CURVE",
"468 1384 LINE"
);
}
);
width = 1103;
}
);
note = R;
unicode = 0052;
changeCount = 69;
},
{
glyphname = S;
lastChange = "2017-09-25 18:38:56 +0000";
layers = (
{
layerId = "BBA80624-4CF6-45E1-9846-B55476475641";
paths = (
{
closed = 1;
nodes = (
"921 1358 OFFCURVE",
"914 1373 OFFCURVE",
"891 1422 CURVE SMOOTH",
"845 1520 OFFCURVE",
"707 1587 OFFCURVE",
"508 1587 CURVE SMOOTH",
"417 1587 OFFCURVE",
"340 1575 OFFCURVE",
"275 1546 CURVE SMOOTH",
"147 1487 OFFCURVE",
"114 1388 OFFCURVE",
"114 1163 CURVE SMOOTH",
"114 1085 OFFCURVE",
"120 1018 OFFCURVE",
"145 970 CURVE SMOOTH",
"197 869 OFFCURVE",
"229 894 OFFCURVE",
"416 758 CURVE SMOOTH",
"621 609 OFFCURVE",
"663 540 OFFCURVE",
"663 366 CURVE SMOOTH",
"663 241 OFFCURVE",
"579 178 OFFCURVE",
"528 178 CURVE SMOOTH",
"503 178 OFFCURVE",
"463 183 OFFCURVE",
"433 217 CURVE SMOOTH",
"413 240 OFFCURVE",
"404 366 OFFCURVE",
"404 422 CURVE SMOOTH",
"404 514 LINE",
"117 514 LINE",
"117 418 LINE SMOOTH",
"117 371 OFFCURVE",
"115 309 OFFCURVE",
"138 249 CURVE SMOOTH",
"183 129 OFFCURVE",
"338 33 OFFCURVE",
"543 33 CURVE SMOOTH",
"636 33 OFFCURVE",
"718 47 OFFCURVE",
"788 81 CURVE SMOOTH",
"929 148 OFFCURVE",
"945 204 OFFCURVE",
"945 414 CURVE SMOOTH",
"945 702 OFFCURVE",
"876 783 OFFCURVE",
"535 986 CURVE SMOOTH",
"416 1056 OFFCURVE",
"390 1115 OFFCURVE",
"390 1214 CURVE SMOOTH",
"390 1406 OFFCURVE",
"474 1440 OFFCURVE",
"520 1440 CURVE SMOOTH",
"541 1440 OFFCURVE",
"592 1408 OFFCURVE",
"601 1394 CURVE SMOOTH",
"610 1381 OFFCURVE",
"637 1273 OFFCURVE",
"637 1223 CURVE SMOOTH",
"637 1183 LINE",
"921 1183 LINE",
"921 1241 LINE SMOOTH"
);
}
);
width = 1059;
}
);
note = S;
unicode = 0053;
changeCount = 118;
},
{
glyphname = T;
lastChange = "2017-09-25 18:39:43 +0000";
layers = (
{
layerId = "BBA80624-4CF6-45E1-9846-B55476475641";
paths = (
{
closed = 1;
nodes = (
"67 1360 LINE",
"327 1360 LINE",
"327 74 LINE",
"614 74 LINE",
"614 1360 LINE",
"852 1360 LINE",
"852 1545 LINE",
"67 1545 LINE"
);
}
);
width = 944;
}
);
note = T;
unicode = 0054;
changeCount = 25;
},
{
glyphname = U;
lastChange = "2017-09-25 18:45:47 +0000";
layers = (
{
layerId = "BBA80624-4CF6-45E1-9846-B55476475641";
paths = (
{
closed = 1;
nodes = (
"678 386 LINE SMOOTH",
"678 313 OFFCURVE",
"661 266 OFFCURVE",
"658 247 CURVE SMOOTH",
"650 198 OFFCURVE",
"584 176 OFFCURVE",
"559 176 CURVE SMOOTH",
"538 176 OFFCURVE",
"481 189 OFFCURVE",
"459 241 CURVE",
"452 258 OFFCURVE",
"432 376 OFFCURVE",
"432 440 CURVE SMOOTH",
"432 1544 LINE",
"141 1544 LINE",
"141 673 LINE SMOOTH",
"141 507 OFFCURVE",
"144 398 OFFCURVE",
"150 347 CURVE SMOOTH",
"156 295 OFFCURVE",
"156 245 OFFCURVE",
"190 198 CURVE SMOOTH",
"256 105 OFFCURVE",
"398 41 OFFCURVE",
"574 41 CURVE SMOOTH",
"733 41 OFFCURVE",
"850 91 OFFCURVE",
"922 187 CURVE SMOOTH",
"994 281 OFFCURVE",
"986 338 OFFCURVE",
"986 560 CURVE SMOOTH",
"986 1544 LINE",
"678 1544 LINE"
);
}
);
width = 1120;
}
);
note = U;
unicode = 0055;
changeCount = 60;
},
{
glyphname = V;
lastChange = "2017-09-25 18:46:47 +0000";
layers = (
{
layerId = "BBA80624-4CF6-45E1-9846-B55476475641";
paths = (
{
closed = 1;
nodes = (
"661 1272 LINE SMOOTH",
"639 1049 OFFCURVE",
"606 595 OFFCURVE",
"542 312 CURVE",
"483 592 OFFCURVE",
"417 1140 OFFCURVE",
"370 1545 CURVE",
"38 1545 LINE",
"259 74 LINE",
"807 74 LINE",
"1001 1545 LINE",
"688 1545 LINE"
);
}
);
width = 1072;
}
);
note = V;
unicode = 0056;
changeCount = 30;
},
{
glyphname = W;
lastChange = "2017-09-25 18:57:30 +0000";
layers = (
{
layerId = "BBA80624-4CF6-45E1-9846-B55476475641";
paths = (
{
closed = 1;
nodes = (
"1273 1205 OFFCURVE",
"1252 655 OFFCURVE",
"1134 300 CURVE",
"1026 1085 LINE SMOOTH",
"990 1345 OFFCURVE",
"994 1502 OFFCURVE",
"988 1544 CURVE",
"671 1545 LINE",
"615 1129 OFFCURVE",
"560 557 OFFCURVE",
"497 300 CURVE",
"379 1056 LINE",
"330 1545 LINE",
"76 1545 LINE",
"247 74 LINE",
"651 74 LINE",
"707 465 OFFCURVE",
"775 862 OFFCURVE",
"826 1017 CURVE",
"892 728 OFFCURVE",
"970 300 OFFCURVE",
"1014 74 CURVE",
"1422 74 LINE",
"1592 1545 LINE",
"1323 1545 LINE"
);
}
);
width = 1668;
}
);
note = W;
unicode = 0057;
changeCount = 67;
},
{
glyphname = X;
lastChange = "2017-09-25 19:03:10 +0000";
layers = (
{
layerId = "BBA80624-4CF6-45E1-9846-B55476475641";
paths = (
{
closed = 1;
nodes = (
"494 1005 LINE",
"475 1065 OFFCURVE",
"422 1271 OFFCURVE",
"407 1343 CURVE SMOOTH",
"387 1437 OFFCURVE",
"372 1505 OFFCURVE",
"366 1545 CURVE",
"77 1545 LINE",
"215 895 LINE",
"77 74 LINE",
"366 74 LINE",
"402 314 LINE SMOOTH",
"418 418 OFFCURVE",
"465 659 OFFCURVE",
"475 752 CURVE",
"557 571 OFFCURVE",
"626 220 OFFCURVE",
"668 74 CURVE",
"923 74 LINE",
"721 895 LINE",
"855 1545 LINE",
"644 1545 LINE"
);
}
);
width = 988;
}
);
note = X;
unicode = 0058;
changeCount = 56;
},
{
glyphname = Y;
lastChange = "2017-09-25 19:03:54 +0000";
layers = (
{
layerId = "BBA80624-4CF6-45E1-9846-B55476475641";
paths = (
{
closed = 1;
nodes = (
"584 1316 OFFCURVE",
"539 988 OFFCURVE",
"477 830 CURVE",
"444 917 OFFCURVE",
"364 1259 OFFCURVE",
"309 1545 CURVE",
"82 1545 LINE",
"351 606 LINE",
"351 74 LINE",
"614 74 LINE",
"614 606 LINE",
"893 1545 LINE",
"634 1545 LINE"
);
}
);
width = 969;
}
);
note = Y;
unicode = 0059;
changeCount = 32;
},
{
glyphname = Z;
lastChange = "2017-09-25 19:05:17 +0000";
layers = (
{
layerId = "BBA80624-4CF6-45E1-9846-B55476475641";
paths = (
{
closed = 1;
nodes = (
"105 1352 LINE",
"437 1352 LINE",
"87 252 LINE",
"87 74 LINE",
"753 74 LINE",
"749 268 LINE",
"379 268 LINE",
"698 1251 LINE",
"711 1545 LINE",
"105 1545 LINE"
);
}
);
width = 813;
}
);
note = Z;
unicode = 005A;
changeCount = 37;
},
{
glyphname = bracketleft;
lastChange = "2017-09-25 19:06:26 +0000";
layers = (
{
layerId = "BBA80624-4CF6-45E1-9846-B55476475641";
paths = (
{
closed = 1;
nodes = (
"142 74 LINE",
"496 72 LINE",
"496 185 LINE",
"380 185 LINE",
"390 1431 LINE",
"488 1431 LINE",
"488 1561 LINE",
"142 1562 LINE"
);
}
);
width = 578;
}
);
note = bracketleft;
unicode = 005B;
changeCount = 29;
},
{
glyphname = backslash;
lastChange = "2017-09-25 19:07:02 +0000";
layers = (
{
layerId = "BBA80624-4CF6-45E1-9846-B55476475641";
paths = (
{
closed = 1;
nodes = (
"722 21 LINE",
"270 1586 LINE",
"89 1586 LINE",
"539 21 LINE"
);
}
);
width = 810;
}
);
note = backslash;
unicode = 005C;
changeCount = 15;
},
{
glyphname = bracketright;
lastChange = "2017-09-25 19:07:50 +0000";
layers = (
{
layerId = "BBA80624-4CF6-45E1-9846-B55476475641";
paths = (
{
closed = 1;
nodes = (
"428 1555 LINE",
"102 1555 LINE",
"102 1421 LINE",
"185 1421 LINE",
"185 192 LINE",
"89 192 LINE",
"89 52 LINE",
"428 52 LINE"
);
}
);
width = 578;
}
);
note = bracketright;
unicode = 005D;
changeCount = 27;
},
{
glyphname = asciicircum;
lastChange = "2017-09-25 19:08:50 +0000";
layers = (
{
layerId = "BBA80624-4CF6-45E1-9846-B55476475641";
paths = (
{
closed = 1;
nodes = (
"494 1391 LINE",
"726 866 LINE",
"908 866 LINE",
"577 1573 LINE",
"425 1573 LINE",
"90 870 LINE",
"260 870 LINE"
);
}
);
width = 990;
}
);
note = asciicircum;
unicode = 005E;
changeCount = 26;
},
{
glyphname = underscore;
lastChange = "2017-09-25 19:09:16 +0000";
layers = (
{
layerId = "BBA80624-4CF6-45E1-9846-B55476475641";
paths = (
{
closed = 1;
nodes = (
"1091 -229 LINE",
"1091 -186 LINE",
"40 -186 LINE",
"40 -229 LINE"
);
}
);
width = 1131;
}
);
note = underscore;
unicode = 005F;
changeCount = 13;
},
{
glyphname = grave;
lastChange = "2017-09-25 19:10:00 +0000";
layers = (
{
layerId = "BBA80624-4CF6-45E1-9846-B55476475641";
paths = (
{
closed = 1;
nodes = (
"462 1529 LINE",
"335 1739 LINE",
"82 1739 LINE",
"347 1529 LINE"
);
}
);
width = 683;
}
);
note = grave;
unicode = 0060;
changeCount = 17;
},
{
glyphname = a;
lastChange = "2017-09-25 17:37:43 +0000";
layers = (
{
layerId = "BBA80624-4CF6-45E1-9846-B55476475641";
paths = (
{
closed = 1;
nodes = (
"433 1026 OFFCURVE",
"436 1072 OFFCURVE",
"443 1090 CURVE SMOOTH",
"450 1107 OFFCURVE",
"467 1116 OFFCURVE",
"494 1116 CURVE SMOOTH",
"518 1116 OFFCURVE",
"535 1106 OFFCURVE",
"546 1085 CURVE",
"556 1064 OFFCURVE",
"561 1018 OFFCURVE",
"561 949 CURVE SMOOTH",
"561 894 OFFCURVE",
"556 857 OFFCURVE",
"547 839 CURVE SMOOTH",
"538 821 OFFCURVE",
"467 786 OFFCURVE",
"334 734 CURVE SMOOTH",
"86 638 OFFCURVE",
"54 604 OFFCURVE",
"54 405 CURVE SMOOTH",
"54 296 LINE SMOOTH",
"54 28 OFFCURVE",
"196 -24 OFFCURVE",
"337 -24 CURVE SMOOTH",
"445 -24 OFFCURVE",
"523 23 OFFCURVE",
"572 118 CURVE",
"572 0 LINE",
"965 0 LINE",
"965 666 LINE SMOOTH",
"965 885 OFFCURVE",
"958 1030 OFFCURVE",
"944 1101 CURVE SMOOTH",
"916 1241 OFFCURVE",
"783 1351 OFFCURVE",
"510 1351 CURVE SMOOTH",
"396 1351 OFFCURVE",
"303 1330 OFFCURVE",
"232 1287 CURVE SMOOTH",
"89 1202 OFFCURVE",
"54 1107 OFFCURVE",
"54 902 CURVE SMOOTH",
"54 813 LINE",
"433 813 LINE",
"433 952 LINE SMOOTH"
);
},
{
closed = 1;
nodes = (
"561 291 OFFCURVE",
"557 250 OFFCURVE",
"550 235 CURVE SMOOTH",
"542 219 OFFCURVE",
"525 211 OFFCURVE",
"500 211 CURVE SMOOTH",
"473 211 OFFCURVE",
"456 221 OFFCURVE",
"447 241 CURVE SMOOTH",
"438 261 OFFCURVE",
"433 305 OFFCURVE",
"433 374 CURVE SMOOTH",
"433 494 OFFCURVE",
"432 536 OFFCURVE",
"561 631 CURVE",
"561 358 LINE SMOOTH"
);
}
);
width = 1032;
}
);
note = a;
unicode = 0061;
},
{
glyphname = b;
lastChange = "2017-09-25 17:37:43 +0000";
layers = (
{
layerId = "BBA80624-4CF6-45E1-9846-B55476475641";
paths = (
{
closed = 1;
nodes = (
"72 0 LINE",
"450 0 LINE",
"476 100 LINE",
"544 17 OFFCURVE",
"626 -24 OFFCURVE",
"721 -24 CURVE SMOOTH",
"787 -24 OFFCURVE",
"844 -6 OFFCURVE",
"892 29 CURVE SMOOTH",
"988 99 OFFCURVE",
"1003 175 OFFCURVE",
"1003 370 CURVE SMOOTH",
"1003 968 LINE SMOOTH",
"1003 1066 OFFCURVE",
"1001 1130 OFFCURVE",
"997 1160 CURVE SMOOTH",
"992 1190 OFFCURVE",
"979 1221 OFFCURVE",
"958 1252 CURVE SMOOTH",
"915 1315 OFFCURVE",
"832 1351 OFFCURVE",
"721 1351 CURVE SMOOTH",
"625 1351 OFFCURVE",
"543 1313 OFFCURVE",
"476 1236 CURVE",
"476 1619 LINE",
"72 1619 LINE"
);
},
{
closed = 1;
nodes = (
"599 312 OFFCURVE",
"595 263 OFFCURVE",
"588 242 CURVE",
"580 221 OFFCURVE",
"563 211 OFFCURVE",
"538 211 CURVE SMOOTH",
"513 211 OFFCURVE",
"497 221 OFFCURVE",
"489 241 CURVE",
"480 261 OFFCURVE",
"476 307 OFFCURVE",
"476 378 CURVE SMOOTH",
"476 950 LINE SMOOTH",
"476 1024 OFFCURVE",
"480 1070 OFFCURVE",
"487 1089 CURVE SMOOTH",
"494 1107 OFFCURVE",
"510 1116 OFFCURVE",
"535 1116 CURVE SMOOTH",
"560 1116 OFFCURVE",
"577 1106 OFFCURVE",
"586 1085 CURVE SMOOTH",
"595 1064 OFFCURVE",
"599 1019 OFFCURVE",
"599 950 CURVE SMOOTH",
"599 391 LINE SMOOTH"
);
}
);
width = 1064;
}
);
note = b;
unicode = 0062;
},
{
glyphname = c;
lastChange = "2017-09-25 17:37:43 +0000";
layers = (
{
layerId = "BBA80624-4CF6-45E1-9846-B55476475641";
paths = (
{
closed = 1;
nodes = (
"965 951 OFFCURVE",
"953 1047 OFFCURVE",
"928 1115 CURVE SMOOTH",
"879 1251 OFFCURVE",
"720 1351 OFFCURVE",
"509 1351 CURVE SMOOTH",
"403 1351 OFFCURVE",
"313 1329 OFFCURVE",
"239 1284 CURVE SMOOTH",
"91 1194 OFFCURVE",
"60 1100 OFFCURVE",
"60 875 CURVE SMOOTH",
"60 498 LINE SMOOTH",
"60 369 OFFCURVE",
"74 269 OFFCURVE",
"102 199 CURVE SMOOTH",
"157 58 OFFCURVE",
"286 -24 OFFCURVE",
"514 -24 CURVE SMOOTH",
"693 -24 OFFCURVE",
"811 33 OFFCURVE",
"887 145 CURVE SMOOTH",
"962 256 OFFCURVE",
"964 334 OFFCURVE",
"965 546 CURVE",
"605 546 LINE",
"605 388 LINE SMOOTH",
"605 319 OFFCURVE",
"600 273 OFFCURVE",
"591 248 CURVE",
"581 223 OFFCURVE",
"562 211 OFFCURVE",
"535 211 CURVE SMOOTH",
"488 211 OFFCURVE",
"464 258 OFFCURVE",
"464 353 CURVE SMOOTH",
"464 979 LINE SMOOTH",
"464 1037 OFFCURVE",
"468 1074 OFFCURVE",
"476 1091 CURVE SMOOTH",
"484 1108 OFFCURVE",
"500 1116 OFFCURVE",
"523 1116 CURVE SMOOTH",
"546 1116 OFFCURVE",
"562 1107 OFFCURVE",
"571 1088 CURVE SMOOTH",
"580 1069 OFFCURVE",
"584 1032 OFFCURVE",
"584 979 CURVE SMOOTH",
"584 826 LINE",
"965 826 LINE"
);
}
);
width = 1013;
}
);
note = c;
unicode = 0063;
},
{
glyphname = d;
lastChange = "2017-09-25 17:37:43 +0000";
layers = (
{
layerId = "BBA80624-4CF6-45E1-9846-B55476475641";
paths = (
{
closed = 1;
nodes = (
"587 1243 LINE",
"519 1315 OFFCURVE",
"436 1351 OFFCURVE",
"336 1351 CURVE SMOOTH",
"271 1351 OFFCURVE",
"216 1335 OFFCURVE",
"169 1303 CURVE SMOOTH",
"76 1238 OFFCURVE",
"60 1177 OFFCURVE",
"60 973 CURVE SMOOTH",
"60 352 LINE SMOOTH",
"60 254 OFFCURVE",
"67 183 OFFCURVE",
"80 140 CURVE SMOOTH",
"106 53 OFFCURVE",
"206 -24 OFFCURVE",
"331 -24 CURVE SMOOTH",
"424 -24 OFFCURVE",
"510 16 OFFCURVE",
"587 96 CURVE",
"587 0 LINE",
"991 0 LINE",
"991 1619 LINE",
"587 1619 LINE"
);
},
{
closed = 1;
nodes = (
"587 305 OFFCURVE",
"583 259 OFFCURVE",
"574 240 CURVE SMOOTH",
"565 221 OFFCURVE",
"548 211 OFFCURVE",
"522 211 CURVE SMOOTH",
"499 211 OFFCURVE",
"484 220 OFFCURVE",
"476 237 CURVE SMOOTH",
"468 254 OFFCURVE",
"464 289 OFFCURVE",
"464 343 CURVE SMOOTH",
"464 993 LINE SMOOTH",
"464 1045 OFFCURVE",
"468 1079 OFFCURVE",
"477 1094 CURVE",
"485 1109 OFFCURVE",
"501 1116 OFFCURVE",
"525 1116 CURVE SMOOTH",
"550 1116 OFFCURVE",
"566 1108 OFFCURVE",
"575 1091 CURVE",
"583 1074 OFFCURVE",
"587 1042 OFFCURVE",
"587 993 CURVE SMOOTH",
"587 379 LINE SMOOTH"
);
}
);
width = 1064;
}
);
note = d;
unicode = 0064;
},
{
glyphname = e;
lastChange = "2017-09-25 17:37:43 +0000";
layers = (
{
layerId = "BBA80624-4CF6-45E1-9846-B55476475641";
paths = (
{
closed = 1;
nodes = (
"987 945 OFFCURVE",
"972 1045 OFFCURVE",
"943 1116 CURVE SMOOTH",
"883 1258 OFFCURVE",
"734 1351 OFFCURVE",
"507 1351 CURVE SMOOTH",
"414 1351 OFFCURVE",
"332 1333 OFFCURVE",
"261 1298 CURVE SMOOTH",
"118 1226 OFFCURVE",
"60 1101 OFFCURVE",
"60 869 CURVE SMOOTH",
"60 482 LINE SMOOTH",
"60 285 OFFCURVE",
"84 201 OFFCURVE",
"157 115 CURVE SMOOTH",
"229 29 OFFCURVE",
"364 -24 OFFCURVE",
"535 -24 CURVE SMOOTH",
"711 -24 OFFCURVE",
"823 26 OFFCURVE",
"899 126 CURVE SMOOTH",
"975 226 OFFCURVE",
"987 292 OFFCURVE",
"987 456 CURVE SMOOTH",
"987 554 LINE",
"604 554 LINE",
"604 379 LINE SMOOTH",
"604 313 OFFCURVE",
"599 269 OFFCURVE",
"589 246 CURVE",
"578 223 OFFCURVE",
"558 211 OFFCURVE",
"527 211 CURVE SMOOTH",
"502 211 OFFCURVE",
"486 220 OFFCURVE",
"477 237 CURVE SMOOTH",
"468 254 OFFCURVE",
"464 293 OFFCURVE",
"464 353 CURVE SMOOTH",
"464 640 LINE",
"987 640 LINE",
"987 816 LINE SMOOTH"
);
},
{
closed = 1;
nodes = (
"464 953 LINE SMOOTH",
"464 1028 OFFCURVE",
"467 1074 OFFCURVE",
"474 1091 CURVE SMOOTH",
"481 1108 OFFCURVE",
"498 1116 OFFCURVE",
"526 1116 CURVE SMOOTH",
"549 1116 OFFCURVE",
"564 1106 OFFCURVE",
"571 1086 CURVE SMOOTH",
"578 1066 OFFCURVE",
"582 1022 OFFCURVE",
"582 953 CURVE SMOOTH",
"582 856 LINE",
"464 856 LINE"
);
}
);
width = 1047;
}
);
note = e;
unicode = 0065;
},
{
glyphname = f;
lastChange = "2017-09-25 17:37:43 +0000";
layers = (
{
layerId = "BBA80624-4CF6-45E1-9846-B55476475641";
paths = (
{
closed = 1;
nodes = (
"349 1619 OFFCURVE",
"283 1613 OFFCURVE",
"240 1601 CURVE SMOOTH",
"155 1577 OFFCURVE",
"108 1529 OFFCURVE",
"96 1470 CURVE SMOOTH",
"90 1441 OFFCURVE",
"87 1382 OFFCURVE",
"87 1295 CURVE",
"4 1295 LINE",
"4 1085 LINE",
"87 1085 LINE",
"87 0 LINE",
"491 0 LINE",
"491 1085 LINE",
"587 1085 LINE",
"587 1295 LINE",
"417 1295 LINE",
"417 1337 LINE SMOOTH",
"417 1373 OFFCURVE",
"425 1395 OFFCURVE",
"440 1403 CURVE",
"455 1410 OFFCURVE",
"504 1414 OFFCURVE",
"587 1414 CURVE",
"587 1619 LINE",
"439 1619 LINE SMOOTH"
);
}
);
width = 592;
}
);
note = f;
unicode = 0066;
},
{
glyphname = g;
lastChange = "2017-09-25 17:37:43 +0000";
layers = (
{
layerId = "BBA80624-4CF6-45E1-9846-B55476475641";
paths = (
{
closed = 1;
nodes = (
"585 1227 LINE",
"520 1310 OFFCURVE",
"436 1351 OFFCURVE",
"335 1351 CURVE SMOOTH",
"150 1351 OFFCURVE",
"60 1248 OFFCURVE",
"60 996 CURVE SMOOTH",
"60 514 LINE SMOOTH",
"60 426 OFFCURVE",
"69 358 OFFCURVE",
"86 311 CURVE SMOOTH",
"121 215 OFFCURVE",
"217 151 OFFCURVE",
"362 151 CURVE SMOOTH",
"446 151 OFFCURVE",
"523 183 OFFCURVE",
"592 246 CURVE",
"592 146 LINE SMOOTH",
"592 31 OFFCURVE",
"577 6 OFFCURVE",
"516 6 CURVE SMOOTH",
"473 6 OFFCURVE",
"452 35 OFFCURVE",
"452 94 CURVE",
"60 94 LINE",
"65 -162 OFFCURVE",
"234 -229 OFFCURVE",
"491 -229 CURVE SMOOTH",
"596 -229 OFFCURVE",
"683 -217 OFFCURVE",
"752 -193 CURVE SMOOTH",
"890 -146 OFFCURVE",
"968 -43 OFFCURVE",
"981 38 CURVE SMOOTH",
"987 78 OFFCURVE",
"990 167 OFFCURVE",
"990 305 CURVE SMOOTH",
"990 1327 LINE",
"614 1327 LINE"
);
},
{
closed = 1;
nodes = (
"585 489 OFFCURVE",
"581 440 OFFCURVE",
"573 419 CURVE SMOOTH",
"565 398 OFFCURVE",
"548 387 OFFCURVE",
"521 387 CURVE SMOOTH",
"498 387 OFFCURVE",
"482 396 OFFCURVE",
"475 414 CURVE SMOOTH",
"468 431 OFFCURVE",
"464 470 OFFCURVE",
"464 529 CURVE SMOOTH",
"464 975 LINE SMOOTH",
"464 1031 OFFCURVE",
"469 1069 OFFCURVE",
"479 1088 CURVE",
"488 1107 OFFCURVE",
"505 1116 OFFCURVE",
"528 1116 CURVE SMOOTH",
"552 1116 OFFCURVE",
"568 1108 OFFCURVE",
"575 1091 CURVE SMOOTH",
"582 1074 OFFCURVE",
"585 1036 OFFCURVE",
"585 975 CURVE SMOOTH",
"585 564 LINE SMOOTH"
);
}
);
width = 1062;
}
);
note = g;
unicode = 0067;
},
{
glyphname = h;
lastChange = "2017-09-25 17:37:43 +0000";
layers = (
{
layerId = "BBA80624-4CF6-45E1-9846-B55476475641";
paths = (
{
closed = 1;
nodes = (
"72 0 LINE",
"476 0 LINE",
"476 947 LINE SMOOTH",
"476 1014 OFFCURVE",
"480 1059 OFFCURVE",
"489 1082 CURVE SMOOTH",
"498 1105 OFFCURVE",
"514 1116 OFFCURVE",
"539 1116 CURVE SMOOTH",
"566 1116 OFFCURVE",
"583 1105 OFFCURVE",
"591 1083 CURVE",
"598 1061 OFFCURVE",
"602 1011 OFFCURVE",
"602 934 CURVE SMOOTH",
"602 0 LINE",
"1006 0 LINE",
"1006 915 LINE SMOOTH",
"1006 1040 OFFCURVE",
"1001 1126 OFFCURVE",
"990 1173 CURVE SMOOTH",
"968 1267 OFFCURVE",
"859 1351 OFFCURVE",
"718 1351 CURVE SMOOTH",
"626 1351 OFFCURVE",
"545 1319 OFFCURVE",
"476 1255 CURVE",
"476 1619 LINE",
"72 1619 LINE"
);
}
);
width = 1073;
}
);
note = h;
unicode = 0068;
},
{
glyphname = i;
lastChange = "2017-09-25 17:37:43 +0000";
layers = (
{
layerId = "BBA80624-4CF6-45E1-9846-B55476475641";
paths = (
{
closed = 1;
nodes = (
"72 1408 LINE",
"488 1408 LINE",
"488 1619 LINE",
"72 1619 LINE"
);
},
{
closed = 1;
nodes = (
"72 0 LINE",
"488 0 LINE",
"488 1327 LINE",
"72 1327 LINE"
);
}
);
width = 561;
}
);
note = i;
unicode = 0069;
},
{
glyphname = j;
lastChange = "2017-09-25 17:37:43 +0000";
layers = (
{
layerId = "BBA80624-4CF6-45E1-9846-B55476475641";
paths = (
{
closed = 1;
nodes = (
"84 1408 LINE",
"500 1408 LINE",
"500 1619 LINE",
"84 1619 LINE"
);
},
{
closed = 1;
nodes = (
"84 242 LINE SMOOTH",
"84 119 OFFCURVE",
"81 53 OFFCURVE",
"75 42 CURVE SMOOTH",
"69 31 OFFCURVE",
"42 26 OFFCURVE",
"-6 26 CURVE",
"-6 -186 LINE",
"150 -186 LINE SMOOTH",
"236 -186 OFFCURVE",
"301 -178 OFFCURVE",
"344 -162 CURVE SMOOTH",
"430 -130 OFFCURVE",
"483 -61 OFFCURVE",
"493 27 CURVE SMOOTH",
"498 70 OFFCURVE",
"500 154 OFFCURVE",
"500 277 CURVE SMOOTH",
"500 1327 LINE",
"84 1327 LINE"
);
}
);
width = 573;
}
);
note = j;
unicode = 006A;
},
{
glyphname = k;
lastChange = "2017-09-25 17:37:43 +0000";
layers = (
{
layerId = "BBA80624-4CF6-45E1-9846-B55476475641";
paths = (
{
closed = 1;
nodes = (
"476 939 LINE",
"476 1619 LINE",
"72 1619 LINE",
"72 0 LINE",
"476 0 LINE",
"476 578 LINE",
"602 0 LINE",
"991 0 LINE",
"778 798 LINE",
"942 1327 LINE",
"602 1327 LINE"
);
}
);
width = 979;
}
);
note = k;
unicode = 006B;
},
{
glyphname = l;
lastChange = "2017-09-25 17:37:43 +0000";
layers = (
{
layerId = "BBA80624-4CF6-45E1-9846-B55476475641";
paths = (
{
closed = 1;
nodes = (
"72 0 LINE",
"488 0 LINE",
"488 1619 LINE",
"72 1619 LINE"
);
}
);
width = 561;
}
);
note = l;
unicode = 006C;
},
{
glyphname = m;
lastChange = "2017-09-25 17:37:43 +0000";
layers = (
{
layerId = "BBA80624-4CF6-45E1-9846-B55476475641";
paths = (
{
closed = 1;
nodes = (
"72 0 LINE",
"464 0 LINE",
"464 920 LINE SMOOTH",
"464 984 OFFCURVE",
"465 1026 OFFCURVE",
"466 1046 CURVE SMOOTH",
"469 1085 OFFCURVE",
"497 1116 OFFCURVE",
"533 1116 CURVE SMOOTH",
"562 1116 OFFCURVE",
"579 1103 OFFCURVE",
"586 1077 CURVE",
"592 1051 OFFCURVE",
"595 973 OFFCURVE",
"595 843 CURVE SMOOTH",
"595 0 LINE",
"987 0 LINE",
"987 865 LINE SMOOTH",
"987 979 OFFCURVE",
"991 1049 OFFCURVE",
"1000 1076 CURVE SMOOTH",
"1008 1103 OFFCURVE",
"1026 1116 OFFCURVE",
"1055 1116 CURVE SMOOTH",
"1083 1116 OFFCURVE",
"1101 1103 OFFCURVE",
"1109 1076 CURVE SMOOTH",
"1116 1049 OFFCURVE",
"1120 978 OFFCURVE",
"1120 865 CURVE SMOOTH",
"1120 0 LINE",
"1512 0 LINE",
"1512 943 LINE SMOOTH",
"1512 1052 OFFCURVE",
"1506 1130 OFFCURVE",
"1493 1179 CURVE SMOOTH",
"1468 1275 OFFCURVE",
"1373 1351 OFFCURVE",
"1236 1351 CURVE SMOOTH",
"1132 1351 OFFCURVE",
"1047 1301 OFFCURVE",
"979 1201 CURVE",
"917 1301 OFFCURVE",
"832 1351 OFFCURVE",
"724 1351 CURVE SMOOTH",
"613 1351 OFFCURVE",
"527 1301 OFFCURVE",
"464 1201 CURVE",
"471 1327 LINE",
"72 1327 LINE"
);
}
);
width = 1579;
}
);
note = m;
unicode = 006D;
},
{
glyphname = n;
lastChange = "2017-09-25 17:37:43 +0000";
layers = (
{
layerId = "BBA80624-4CF6-45E1-9846-B55476475641";
paths = (
{
closed = 1;
nodes = (
"72 0 LINE",
"476 0 LINE",
"476 897 LINE SMOOTH",
"476 997 OFFCURVE",
"480 1059 OFFCURVE",
"487 1082 CURVE SMOOTH",
"494 1105 OFFCURVE",
"512 1116 OFFCURVE",
"541 1116 CURVE SMOOTH",
"568 1116 OFFCURVE",
"585 1106 OFFCURVE",
"591 1086 CURVE SMOOTH",
"597 1066 OFFCURVE",
"600 1010 OFFCURVE",
"600 919 CURVE SMOOTH",
"600 0 LINE",
"1004 0 LINE",
"1004 930 LINE SMOOTH",
"1004 1046 OFFCURVE",
"998 1129 OFFCURVE",
"985 1179 CURVE SMOOTH",
"960 1278 OFFCURVE",
"869 1351 OFFCURVE",
"730 1351 CURVE SMOOTH",
"619 1351 OFFCURVE",
"535 1302 OFFCURVE",
"476 1205 CURVE",
"483 1327 LINE",
"72 1327 LINE"
);
}
);
width = 1071;
}
);
note = n;
unicode = 006E;
},
{
glyphname = o;
lastChange = "2017-09-25 17:37:43 +0000";
layers = (
{
layerId = "BBA80624-4CF6-45E1-9846-B55476475641";
paths = (
{
closed = 1;
nodes = (
"986 1049 OFFCURVE",
"965 1118 OFFCURVE",
"894 1205 CURVE SMOOTH",
"823 1292 OFFCURVE",
"691 1351 OFFCURVE",
"510 1351 CURVE SMOOTH",
"402 1351 OFFCURVE",
"313 1330 OFFCURVE",
"244 1288 CURVE SMOOTH",
"105 1204 OFFCURVE",
"60 1079 OFFCURVE",
"60 832 CURVE SMOOTH",
"60 492 LINE SMOOTH",
"60 267 OFFCURVE",
"87 174 OFFCURVE",
"156 95 CURVE SMOOTH",
"224 15 OFFCURVE",
"348 -24 OFFCURVE",
"527 -24 CURVE SMOOTH",
"687 -24 OFFCURVE",
"812 21 OFFCURVE",
"891 118 CURVE SMOOTH",
"970 214 OFFCURVE",
"986 297 OFFCURVE",
"986 536 CURVE SMOOTH",
"986 861 LINE SMOOTH"
);
},
{
closed = 1;
nodes = (
"582 292 OFFCURVE",
"578 254 OFFCURVE",
"571 237 CURVE",
"563 220 OFFCURVE",
"547 211 OFFCURVE",
"523 211 CURVE SMOOTH",
"500 211 OFFCURVE",
"484 221 OFFCURVE",
"476 240 CURVE SMOOTH",
"468 259 OFFCURVE",
"464 299 OFFCURVE",
"464 362 CURVE SMOOTH",
"464 961 LINE SMOOTH",
"464 1029 OFFCURVE",
"468 1072 OFFCURVE",
"476 1090 CURVE SMOOTH",
"484 1107 OFFCURVE",
"500 1116 OFFCURVE",
"524 1116 CURVE SMOOTH",
"548 1116 OFFCURVE",
"564 1107 OFFCURVE",
"571 1090 CURVE SMOOTH",
"578 1072 OFFCURVE",
"582 1029 OFFCURVE",
"582 961 CURVE SMOOTH",
"582 349 LINE SMOOTH"
);
}
);
width = 1047;
}
);
note = o;
unicode = 006F;
},
{
glyphname = p;
lastChange = "2017-09-25 17:37:43 +0000";
layers = (
{
layerId = "BBA80624-4CF6-45E1-9846-B55476475641";
paths = (
{
closed = 1;
nodes = (
"72 -189 LINE",
"476 -189 LINE",
"476 115 LINE",
"547 23 OFFCURVE",
"632 -24 OFFCURVE",
"732 -24 CURVE SMOOTH",
"795 -24 OFFCURVE",
"848 -9 OFFCURVE",
"893 22 CURVE SMOOTH",
"981 82 OFFCURVE",
"1002 160 OFFCURVE",
"1002 401 CURVE SMOOTH",
"1002 960 LINE SMOOTH",
"1002 1065 OFFCURVE",
"996 1140 OFFCURVE",
"985 1184 CURVE SMOOTH",
"962 1272 OFFCURVE",
"862 1351 OFFCURVE",
"737 1351 CURVE SMOOTH",
"634 1351 OFFCURVE",
"548 1305 OFFCURVE",
"476 1210 CURVE",
"483 1327 LINE",
"72 1327 LINE"
);
},
{
closed = 1;
nodes = (
"598 301 OFFCURVE",
"595 257 OFFCURVE",
"589 239 CURVE SMOOTH",
"582 220 OFFCURVE",
"566 211 OFFCURVE",
"540 211 CURVE SMOOTH",
"513 211 OFFCURVE",
"496 221 OFFCURVE",
"488 241 CURVE SMOOTH",
"480 261 OFFCURVE",
"476 311 OFFCURVE",
"476 391 CURVE SMOOTH",
"476 941 LINE SMOOTH",
"476 1018 OFFCURVE",
"480 1066 OFFCURVE",
"488 1086 CURVE",
"495 1106 OFFCURVE",
"512 1116 OFFCURVE",
"539 1116 CURVE SMOOTH",
"566 1116 OFFCURVE",
"583 1107 OFFCURVE",
"589 1090 CURVE SMOOTH",
"595 1073 OFFCURVE",
"598 1023 OFFCURVE",
"598 941 CURVE SMOOTH",
"598 372 LINE SMOOTH"
);
}
);
width = 1063;
}
);
note = p;
unicode = 0070;
},
{
glyphname = q;
lastChange = "2017-09-25 17:37:43 +0000";
layers = (
{
layerId = "BBA80624-4CF6-45E1-9846-B55476475641";
paths = (
{
closed = 1;
nodes = (
"584 1214 LINE",
"513 1306 OFFCURVE",
"428 1351 OFFCURVE",
"327 1351 CURVE SMOOTH",
"264 1351 OFFCURVE",
"210 1335 OFFCURVE",
"165 1302 CURVE SMOOTH",
"73 1236 OFFCURVE",
"60 1164 OFFCURVE",
"60 984 CURVE SMOOTH",
"60 399 LINE SMOOTH",
"60 290 OFFCURVE",
"68 209 OFFCURVE",
"84 156 CURVE SMOOTH",
"116 50 OFFCURVE",
"212 -24 OFFCURVE",
"353 -24 CURVE SMOOTH",
"450 -24 OFFCURVE",
"505 -8 OFFCURVE",
"584 107 CURVE",
"584 -189 LINE",
"988 -189 LINE",
"988 1327 LINE",
"591 1327 LINE"
);
},
{
closed = 1;
nodes = (
"584 303 OFFCURVE",
"580 260 OFFCURVE",
"572 241 CURVE SMOOTH",
"564 221 OFFCURVE",
"548 211 OFFCURVE",
"525 211 CURVE SMOOTH",
"500 211 OFFCURVE",
"484 221 OFFCURVE",
"476 240 CURVE SMOOTH",
"468 259 OFFCURVE",
"464 304 OFFCURVE",
"464 375 CURVE SMOOTH",
"464 966 LINE SMOOTH",
"464 1030 OFFCURVE",
"468 1071 OFFCURVE",
"476 1089 CURVE SMOOTH",
"484 1107 OFFCURVE",
"499 1116 OFFCURVE",
"522 1116 CURVE SMOOTH",
"545 1116 OFFCURVE",
"562 1106 OFFCURVE",
"571 1085 CURVE SMOOTH",
"580 1064 OFFCURVE",
"584 1025 OFFCURVE",
"584 966 CURVE SMOOTH",
"584 369 LINE SMOOTH"
);
}
);
width = 1061;
}
);
note = q;
unicode = 0071;
},
{
glyphname = r;
lastChange = "2017-09-25 17:37:43 +0000";
layers = (
{
layerId = "BBA80624-4CF6-45E1-9846-B55476475641";
paths = (
{
closed = 1;
nodes = (
"72 0 LINE",
"476 0 LINE",
"476 524 LINE SMOOTH",
"476 653 OFFCURVE",
"480 735 OFFCURVE",
"488 771 CURVE SMOOTH",
"504 842 OFFCURVE",
"567 884 OFFCURVE",
"715 884 CURVE",
"715 1351 LINE",
"604 1344 OFFCURVE",
"519 1278 OFFCURVE",
"460 1153 CURVE",
"476 1327 LINE",
"72 1327 LINE"
);
}
);
width = 733;
}
);
note = r;
unicode = 0072;
},
{
glyphname = s;
lastChange = "2017-09-25 17:37:43 +0000";
layers = (
{
layerId = "BBA80624-4CF6-45E1-9846-B55476475641";
paths = (
{
closed = 1;
nodes = (
"897 1113 OFFCURVE",
"893 1156 OFFCURVE",
"827 1229 CURVE SMOOTH",
"761 1302 OFFCURVE",
"636 1351 OFFCURVE",
"460 1351 CURVE SMOOTH",
"371 1351 OFFCURVE",
"294 1337 OFFCURVE",
"227 1310 CURVE SMOOTH",
"93 1255 OFFCURVE",
"42 1171 OFFCURVE",
"42 959 CURVE SMOOTH",
"42 810 OFFCURVE",
"61 717 OFFCURVE",
"298 584 CURVE SMOOTH",
"439 505 OFFCURVE",
"518 458 OFFCURVE",
"533 442 CURVE SMOOTH",
"548 426 OFFCURVE",
"555 386 OFFCURVE",
"555 323 CURVE SMOOTH",
"555 231 OFFCURVE",
"535 211 OFFCURVE",
"478 211 CURVE SMOOTH",
"451 211 OFFCURVE",
"434 222 OFFCURVE",
"425 243 CURVE SMOOTH",
"416 264 OFFCURVE",
"411 311 OFFCURVE",
"411 382 CURVE SMOOTH",
"411 466 LINE",
"53 466 LINE",
"53 402 LINE SMOOTH",
"53 291 OFFCURVE",
"67 209 OFFCURVE",
"94 154 CURVE SMOOTH",
"149 45 OFFCURVE",
"303 -24 OFFCURVE",
"508 -24 CURVE SMOOTH",
"601 -24 OFFCURVE",
"680 -9 OFFCURVE",
"746 21 CURVE SMOOTH",
"877 80 OFFCURVE",
"928 176 OFFCURVE",
"928 392 CURVE SMOOTH",
"928 585 OFFCURVE",
"877 660 OFFCURVE",
"642 775 CURVE SMOOTH",
"554 818 OFFCURVE",
"496 851 OFFCURVE",
"468 874 CURVE SMOOTH",
"411 919 OFFCURVE",
"408 945 OFFCURVE",
"408 1026 CURVE SMOOTH",
"408 1086 OFFCURVE",
"431 1116 OFFCURVE",
"476 1116 CURVE SMOOTH",
"504 1116 OFFCURVE",
"522 1108 OFFCURVE",
"529 1092 CURVE SMOOTH",
"536 1075 OFFCURVE",
"539 1036 OFFCURVE",
"539 975 CURVE SMOOTH",
"539 903 LINE",
"897 903 LINE",
"897 980 LINE SMOOTH"
);
}
);
width = 964;
}
);
note = s;
unicode = 0073;
},
{
glyphname = t;
lastChange = "2017-09-25 17:37:43 +0000";
layers = (
{
layerId = "BBA80624-4CF6-45E1-9846-B55476475641";
paths = (
{
closed = 1;
nodes = (
"93 1295 LINE",
"6 1295 LINE",
"6 1085 LINE",
"93 1085 LINE",
"93 411 LINE SMOOTH",
"93 279 OFFCURVE",
"97 195 OFFCURVE",
"104 160 CURVE SMOOTH",
"111 124 OFFCURVE",
"130 92 OFFCURVE",
"160 65 CURVE SMOOTH",
"220 9 OFFCURVE",
"277 0 OFFCURVE",
"461 0 CURVE SMOOTH",
"624 0 LINE",
"624 214 LINE",
"492 214 OFFCURVE",
"498 200 OFFCURVE",
"498 375 CURVE SMOOTH",
"498 1085 LINE",
"607 1085 LINE",
"607 1295 LINE",
"498 1295 LINE",
"498 1504 LINE",
"93 1504 LINE"
);
}
);
width = 624;
}
);
note = t;
unicode = 0074;
},
{
glyphname = u;
lastChange = "2017-09-25 17:37:43 +0000";
layers = (
{
layerId = "BBA80624-4CF6-45E1-9846-B55476475641";
paths = (
{
closed = 1;
nodes = (
"593 434 LINE SMOOTH",
"593 325 OFFCURVE",
"590 261 OFFCURVE",
"585 241 CURVE",
"579 221 OFFCURVE",
"561 211 OFFCURVE",
"531 211 CURVE SMOOTH",
"503 211 OFFCURVE",
"486 221 OFFCURVE",
"480 240 CURVE",
"473 259 OFFCURVE",
"470 321 OFFCURVE",
"470 424 CURVE SMOOTH",
"470 1327 LINE",
"66 1327 LINE",
"66 432 LINE SMOOTH",
"66 318 OFFCURVE",
"68 242 OFFCURVE",
"73 204 CURVE SMOOTH",
"78 165 OFFCURVE",
"90 128 OFFCURVE",
"109 93 CURVE SMOOTH",
"147 22 OFFCURVE",
"227 -24 OFFCURVE",
"348 -24 CURVE SMOOTH",
"455 -24 OFFCURVE",
"537 21 OFFCURVE",
"593 110 CURVE",
"586 0 LINE",
"997 0 LINE",
"997 1327 LINE",
"593 1327 LINE"
);
}
);
width = 1070;
}
);
note = u;
unicode = 0075;
},
{
glyphname = v;
lastChange = "2017-09-25 17:37:43 +0000";
layers = (
{
layerId = "BBA80624-4CF6-45E1-9846-B55476475641";
paths = (
{
closed = 1;
nodes = (
"531 1182 OFFCURVE",
"518 1033 OFFCURVE",
"506 879 CURVE SMOOTH",
"485 603 OFFCURVE",
"471 430 OFFCURVE",
"462 359 CURVE",
"349 1327 LINE",
"-12 1327 LINE",
"191 0 LINE",
"718 0 LINE",
"907 1327 LINE",
"546 1327 LINE"
);
}
);
width = 895;
}
);
note = v;
unicode = 0076;
},
{
glyphname = w;
lastChange = "2017-09-25 17:37:43 +0000";
layers = (
{
layerId = "BBA80624-4CF6-45E1-9846-B55476475641";
paths = (
{
closed = 1;
nodes = (
"980 1042 OFFCURVE",
"950 789 OFFCURVE",
"937 568 CURVE",
"855 1327 LINE",
"520 1327 LINE",
"464 869 OFFCURVE",
"434 616 OFFCURVE",
"430 568 CURVE",
"374 1039 OFFCURVE",
"345 1292 OFFCURVE",
"342 1327 CURVE",
"-6 1327 LINE",
"165 0 LINE",
"604 0 LINE",
"649 288 LINE SMOOTH",
"668 407 OFFCURVE",
"683 524 OFFCURVE",
"694 640 CURVE",
"725 375 OFFCURVE",
"753 162 OFFCURVE",
"777 0 CURVE",
"1216 0 LINE",
"1377 1327 LINE",
"1029 1327 LINE"
);
}
);
width = 1371;
}
);
note = w;
unicode = 0077;
},
{
glyphname = x;
lastChange = "2017-09-25 17:37:43 +0000";
layers = (
{
layerId = "BBA80624-4CF6-45E1-9846-B55476475641";
paths = (
{
closed = 1;
nodes = (
"493 1246 OFFCURVE",
"464 1092 OFFCURVE",
"425 866 CURVE",
"421 903 OFFCURVE",
"392 1056 OFFCURVE",
"338 1327 CURVE",
"0 1327 LINE",
"174 693 LINE",
"0 0 LINE",
"338 0 LINE",
"369 143 OFFCURVE",
"398 294 OFFCURVE",
"425 451 CURVE",
"445 325 OFFCURVE",
"474 175 OFFCURVE",
"513 0 CURVE",
"906 0 LINE",
"711 693 LINE",
"872 1327 LINE",
"513 1327 LINE"
);
}
);
width = 888;
}
);
note = x;
unicode = 0078;
},
{
glyphname = y;
lastChange = "2017-09-25 17:37:43 +0000";
layers = (
{
layerId = "BBA80624-4CF6-45E1-9846-B55476475641";
paths = (
{
closed = 1;
nodes = (
"487 432 LINE",
"355 1327 LINE",
"-12 1327 LINE",
"209 217 LINE SMOOTH",
"226 135 OFFCURVE",
"234 89 OFFCURVE",
"234 78 CURVE SMOOTH",
"234 56 OFFCURVE",
"225 42 OFFCURVE",
"207 36 CURVE",
"189 29 OFFCURVE",
"149 26 OFFCURVE",
"86 26 CURVE",
"86 -186 LINE",
"331 -186 LINE SMOOTH",
"443 -186 OFFCURVE",
"525 -177 OFFCURVE",
"576 -160 CURVE SMOOTH",
"678 -126 OFFCURVE",
"732 -55 OFFCURVE",
"757 56 CURVE SMOOTH",
"769 111 OFFCURVE",
"784 215 OFFCURVE",
"802 367 CURVE SMOOTH",
"918 1327 LINE",
"551 1327 LINE"
);
}
);
width = 918;
}
);
note = y;
unicode = 0079;
},
{
glyphname = z;
lastChange = "2017-09-25 17:37:43 +0000";
layers = (
{
layerId = "BBA80624-4CF6-45E1-9846-B55476475641";
paths = (
{
closed = 1;
nodes = (
"43 1061 LINE",
"317 1061 LINE",
"12 278 LINE",
"12 0 LINE",
"701 0 LINE",
"701 266 LINE",
"403 266 LINE",
"701 1033 LINE",
"701 1327 LINE",
"43 1327 LINE"
);
}
);
width = 719;
}
);
note = z;
unicode = 007A;
},
{
glyphname = braceleft;
lastChange = "2017-09-25 17:37:43 +0000";
layers = (
{
layerId = "BBA80624-4CF6-45E1-9846-B55476475641";
paths = (
{
closed = 1;
nodes = (
"184 533 OFFCURVE",
"222 458 OFFCURVE",
"241 382 CURVE SMOOTH",
"250 344 OFFCURVE",
"255 257 OFFCURVE",
"255 121 CURVE SMOOTH",
"255 -2 OFFCURVE",
"268 -92 OFFCURVE",
"294 -147 CURVE SMOOTH",
"346 -258 OFFCURVE",
"454 -303 OFFCURVE",
"667 -303 CURVE SMOOTH",
"719 -303 LINE",
"719 -63 LINE",
"638 -63 OFFCURVE",
"586 -56 OFFCURVE",
"563 -41 CURVE SMOOTH",
"540 -27 OFFCURVE",
"526 -6 OFFCURVE",
"520 22 CURVE",
"505 313 LINE SMOOTH",
"496 501 OFFCURVE",
"447 586 OFFCURVE",
"328 658 CURVE",
"453 738 OFFCURVE",
"488 825 OFFCURVE",
"501 921 CURVE SMOOTH",
"507 969 OFFCURVE",
"512 1073 OFFCURVE",
"516 1233 CURVE SMOOTH",
"519 1349 OFFCURVE",
"527 1380 OFFCURVE",
"720 1380 CURVE",
"720 1619 LINE",
"667 1619 LINE SMOOTH",
"482 1619 OFFCURVE",
"392 1588 OFFCURVE",
"328 1515 CURVE SMOOTH",
"264 1442 OFFCURVE",
"255 1353 OFFCURVE",
"255 1128 CURVE SMOOTH",
"255 832 OFFCURVE",
"181 779 OFFCURVE",
"36 778 CURVE",
"36 538 LINE"
);
}
);
width = 757;
}
);
note = braceleft;
unicode = 007B;
},
{
glyphname = bar;
lastChange = "2017-09-25 17:37:43 +0000";
layers = (
{
layerId = "BBA80624-4CF6-45E1-9846-B55476475641";
paths = (
{
closed = 1;
nodes = (
"386 -265 LINE",
"386 1619 LINE",
"169 1619 LINE",
"169 -265 LINE"
);
}
);
width = 555;
}
);
note = bar;
unicode = 007C;
},
{
glyphname = braceright;
lastChange = "2017-09-25 17:37:43 +0000";
layers = (
{
layerId = "BBA80624-4CF6-45E1-9846-B55476475641";
paths = (
{
closed = 1;
nodes = (
"575 783 OFFCURVE",
"537 855 OFFCURVE",
"517 928 CURVE SMOOTH",
"506 965 OFFCURVE",
"501 1054 OFFCURVE",
"501 1195 CURVE SMOOTH",
"501 1318 OFFCURVE",
"488 1408 OFFCURVE",
"462 1463 CURVE SMOOTH",
"410 1574 OFFCURVE",
"302 1619 OFFCURVE",
"89 1619 CURVE SMOOTH",
"36 1619 LINE",
"36 1380 LINE",
"119 1380 OFFCURVE",
"171 1374 OFFCURVE",
"192 1362 CURVE SMOOTH",
"212 1350 OFFCURVE",
"225 1336 OFFCURVE",
"230 1319 CURVE SMOOTH",
"235 1302 OFFCURVE",
"240 1237 OFFCURVE",
"244 1122 CURVE SMOOTH",
"248 1007 OFFCURVE",
"254 928 OFFCURVE",
"262 886 CURVE SMOOTH",
"278 801 OFFCURVE",
"313 733 OFFCURVE",
"428 658 CURVE",
"320 595 OFFCURVE",
"276 509 OFFCURVE",
"260 413 CURVE SMOOTH",
"251 364 OFFCURVE",
"245 255 OFFCURVE",
"241 84 CURVE SMOOTH",
"238 -35 OFFCURVE",
"222 -63 OFFCURVE",
"37 -63 CURVE",
"37 -303 LINE",
"90 -303 LINE SMOOTH",
"275 -303 OFFCURVE",
"365 -272 OFFCURVE",
"429 -199 CURVE SMOOTH",
"493 -126 OFFCURVE",
"501 -38 OFFCURVE",
"501 189 CURVE SMOOTH",
"501 482 OFFCURVE",
"575 537 OFFCURVE",
"720 538 CURVE",
"720 778 LINE"
);
}
);
width = 757;
}
);
note = braceright;
unicode = 007D;
},
{
glyphname = asciitilde;
lastChange = "2017-09-25 17:37:43 +0000";
layers = (
{
layerId = "BBA80624-4CF6-45E1-9846-B55476475641";
paths = (
{
closed = 1;
nodes = (
"937 990 OFFCURVE",
"880 945 OFFCURVE",
"845 928 CURVE SMOOTH",
"810 910 OFFCURVE",
"778 901 OFFCURVE",
"747 901 CURVE SMOOTH",
"714 901 OFFCURVE",
"657 920 OFFCURVE",
"578 958 CURVE SMOOTH",
"480 1005 OFFCURVE",
"403 1028 OFFCURVE",
"346 1028 CURVE SMOOTH",
"251 1028 OFFCURVE",
"155 985 OFFCURVE",
"57 900 CURVE",
"57 623 LINE",
"170 731 OFFCURVE",
"263 785 OFFCURVE",
"336 785 CURVE SMOOTH",
"366 785 OFFCURVE",
"413 769 OFFCURVE",
"478 738 CURVE SMOOTH",
"591 683 OFFCURVE",
"677 656 OFFCURVE",
"734 656 CURVE SMOOTH",
"818 656 OFFCURVE",
"913 700 OFFCURVE",
"1018 787 CURVE",
"1018 1062 LINE"
);
}
);
width = 1075;
}
);
note = asciitilde;
unicode = 007E;
},
{
glyphname = Ccedilla;
lastChange = "2017-09-25 17:37:43 +0000";
layers = (
{
layerId = "BBA80624-4CF6-45E1-9846-B55476475641";
paths = (
{
closed = 1;
nodes = (
"729 -26 OFFCURVE",
"827 7 OFFCURVE",
"901 64 CURVE SMOOTH",
"1048 178 OFFCURVE",
"1067 274 OFFCURVE",
"1067 585 CURVE SMOOTH",
"1067 648 LINE",
"646 648 LINE",
"646 445 LINE SMOOTH",
"646 356 OFFCURVE",
"641 300 OFFCURVE",
"632 276 CURVE",
"622 252 OFFCURVE",
"601 240 OFFCURVE",
"570 240 CURVE SMOOTH",
"537 240 OFFCURVE",
"516 252 OFFCURVE",
"507 276 CURVE SMOOTH",
"498 300 OFFCURVE",
"493 351 OFFCURVE",
"493 430 CURVE SMOOTH",
"493 1182 LINE SMOOTH",
"493 1264 OFFCURVE",
"498 1317 OFFCURVE",
"507 1342 CURVE SMOOTH",
"516 1367 OFFCURVE",
"538 1379 OFFCURVE",
"573 1379 CURVE SMOOTH",
"604 1379 OFFCURVE",
"624 1369 OFFCURVE",
"633 1349 CURVE SMOOTH",
"642 1328 OFFCURVE",
"646 1277 OFFCURVE",
"646 1195 CURVE SMOOTH",
"646 913 LINE",
"1067 913 LINE",
"1067 1067 LINE SMOOTH",
"1067 1218 OFFCURVE",
"1054 1330 OFFCURVE",
"1029 1402 CURVE SMOOTH",
"978 1545 OFFCURVE",
"811 1653 OFFCURVE",
"563 1653 CURVE SMOOTH",
"380 1653 OFFCURVE",
"235 1587 OFFCURVE",
"156 1479 CURVE SMOOTH",
"76 1371 OFFCURVE",
"72 1281 OFFCURVE",
"72 1048 CURVE SMOOTH",
"72 575 LINE SMOOTH",
"72 435 OFFCURVE",
"81 328 OFFCURVE",
"100 254 CURVE SMOOTH",
"136 105 OFFCURVE",
"261 -8 OFFCURVE",
"489 -29 CURVE",
"489 -129 LINE",
"515 -129 LINE SMOOTH",
"571 -129 OFFCURVE",
"598 -151 OFFCURVE",
"598 -195 CURVE SMOOTH",
"598 -235 OFFCURVE",
"579 -255 OFFCURVE",
"539 -255 CURVE SMOOTH",
"515 -255 OFFCURVE",
"498 -241 OFFCURVE",
"489 -213 CURVE",
"341 -213 LINE",
"370 -318 OFFCURVE",
"436 -371 OFFCURVE",
"540 -371 CURVE SMOOTH",
"655 -371 OFFCURVE",
"750 -285 OFFCURVE",
"750 -184 CURVE SMOOTH",
"750 -103 OFFCURVE",
"678 -52 OFFCURVE",
"606 -52 CURVE",
"606 -33 LINE"
);
}
);
width = 1134;
}
);
note = Ccedilla;
unicode = 00C7;
},
{
glyphname = ccedilla;
lastChange = "2017-09-25 17:37:43 +0000";
layers = (
{
layerId = "BBA80624-4CF6-45E1-9846-B55476475641";
paths = (
{
closed = 1;
nodes = (
"725 -12 OFFCURVE",
"828 50 OFFCURVE",
"896 159 CURVE SMOOTH",
"964 268 OFFCURVE",
"964 349 OFFCURVE",
"965 546 CURVE",
"605 546 LINE",
"605 388 LINE SMOOTH",
"605 319 OFFCURVE",
"600 273 OFFCURVE",
"591 248 CURVE",
"581 223 OFFCURVE",
"562 211 OFFCURVE",
"535 211 CURVE SMOOTH",
"488 211 OFFCURVE",
"464 258 OFFCURVE",
"464 353 CURVE SMOOTH",
"464 979 LINE SMOOTH",
"464 1037 OFFCURVE",
"468 1074 OFFCURVE",
"476 1091 CURVE SMOOTH",
"484 1108 OFFCURVE",
"500 1116 OFFCURVE",
"523 1116 CURVE SMOOTH",
"546 1116 OFFCURVE",
"562 1107 OFFCURVE",
"571 1088 CURVE SMOOTH",
"580 1069 OFFCURVE",
"584 1032 OFFCURVE",
"584 979 CURVE SMOOTH",
"584 826 LINE",
"965 826 LINE",
"965 951 OFFCURVE",
"953 1047 OFFCURVE",
"928 1115 CURVE SMOOTH",
"879 1251 OFFCURVE",
"720 1351 OFFCURVE",
"509 1351 CURVE SMOOTH",
"403 1351 OFFCURVE",
"313 1329 OFFCURVE",
"239 1284 CURVE SMOOTH",
"91 1194 OFFCURVE",
"60 1100 OFFCURVE",
"60 875 CURVE SMOOTH",
"60 498 LINE SMOOTH",
"60 373 OFFCURVE",
"72 279 OFFCURVE",
"95 216 CURVE SMOOTH",
"141 91 OFFCURVE",
"228 5 OFFCURVE",
"429 -19 CURVE",
"429 -129 LINE",
"455 -129 LINE SMOOTH",
"511 -129 OFFCURVE",
"538 -151 OFFCURVE",
"538 -195 CURVE SMOOTH",
"538 -235 OFFCURVE",
"519 -255 OFFCURVE",
"479 -255 CURVE SMOOTH",
"455 -255 OFFCURVE",
"438 -241 OFFCURVE",
"429 -213 CURVE",
"281 -213 LINE",
"310 -318 OFFCURVE",
"376 -371 OFFCURVE",
"480 -371 CURVE SMOOTH",
"595 -371 OFFCURVE",
"690 -285 OFFCURVE",
"690 -184 CURVE SMOOTH",
"690 -101 OFFCURVE",
"615 -52 OFFCURVE",
"546 -52 CURVE",
"546 -23 LINE"
);
}
);
width = 1013;
}
);
note = ccedilla;
unicode = 00E7;
},
{
glyphname = dagger;
lastChange = "2017-09-25 17:37:43 +0000";
layers = (
{
layerId = "BBA80624-4CF6-45E1-9846-B55476475641";
paths = (
{
closed = 1;
nodes = (
"36 1150 LINE",
"36 770 LINE",
"334 770 LINE",
"334 -189 LINE",
"778 -189 LINE",
"778 770 LINE",
"1076 770 LINE",
"1076 1151 LINE",
"778 1151 LINE",
"778 1619 LINE",
"334 1619 LINE",
"334 1150 LINE"
);
}
);
width = 1112;
}
);
note = dagger;
unicode = 2020;
},
{
glyphname = degree;
lastChange = "2017-09-25 17:37:43 +0000";
layers = (
{
layerId = "BBA80624-4CF6-45E1-9846-B55476475641";
paths = (
{
closed = 1;
nodes = (
"36 1159 OFFCURVE",
"168 1003 OFFCURVE",
"356 1003 CURVE SMOOTH",
"531 1003 OFFCURVE",
"674 1146 OFFCURVE",
"674 1322 CURVE SMOOTH",
"674 1498 OFFCURVE",
"532 1641 OFFCURVE",
"355 1641 CURVE SMOOTH",
"183 1641 OFFCURVE",
"36 1503 OFFCURVE",
"36 1314 CURVE SMOOTH"
);
},
{
closed = 1;
nodes = (
"202 1399 OFFCURVE",
"267 1475 OFFCURVE",
"355 1475 CURVE SMOOTH",
"439 1475 OFFCURVE",
"508 1406 OFFCURVE",
"508 1322 CURVE SMOOTH",
"508 1238 OFFCURVE",
"439 1169 OFFCURVE",
"355 1169 CURVE SMOOTH",
"272 1169 OFFCURVE",
"202 1235 OFFCURVE",
"202 1326 CURVE SMOOTH"
);
}
);
width = 711;
}
);
note = degree;
unicode = 00B0;
},
{
glyphname = cent;
lastChange = "2017-09-25 17:37:43 +0000";
layers = (
{
layerId = "BBA80624-4CF6-45E1-9846-B55476475641";
paths = (
{
closed = 1;
nodes = (
"1004 1139 OFFCURVE",
"995 1199 OFFCURVE",
"934 1290 CURVE SMOOTH",
"873 1381 OFFCURVE",
"760 1451 OFFCURVE",
"629 1475 CURVE",
"629 1612 LINE",
"443 1612 LINE",
"443 1475 LINE",
"347 1456 OFFCURVE",
"268 1419 OFFCURVE",
"205 1366 CURVE SMOOTH",
"80 1258 OFFCURVE",
"60 1156 OFFCURVE",
"60 887 CURVE SMOOTH",
"60 589 LINE SMOOTH",
"60 458 OFFCURVE",
"68 363 OFFCURVE",
"85 305 CURVE SMOOTH",
"117 188 OFFCURVE",
"267 62 OFFCURVE",
"443 38 CURVE",
"443 -127 LINE",
"629 -127 LINE",
"629 38 LINE",
"892 95 OFFCURVE",
"1005 255 OFFCURVE",
"1005 574 CURVE SMOOTH",
"1005 588 OFFCURVE",
"1005 610 OFFCURVE",
"1004 640 CURVE",
"617 640 LINE",
"617 494 LINE SMOOTH",
"617 406 OFFCURVE",
"611 348 OFFCURVE",
"599 321 CURVE SMOOTH",
"586 294 OFFCURVE",
"563 280 OFFCURVE",
"530 280 CURVE SMOOTH",
"503 280 OFFCURVE",
"486 290 OFFCURVE",
"477 311 CURVE SMOOTH",
"468 331 OFFCURVE",
"464 377 OFFCURVE",
"464 450 CURVE SMOOTH",
"464 1071 LINE SMOOTH",
"464 1145 OFFCURVE",
"469 1191 OFFCURVE",
"478 1208 CURVE SMOOTH",
"487 1225 OFFCURVE",
"505 1234 OFFCURVE",
"532 1234 CURVE SMOOTH",
"561 1234 OFFCURVE",
"579 1224 OFFCURVE",
"588 1204 CURVE",
"596 1183 OFFCURVE",
"600 1134 OFFCURVE",
"600 1057 CURVE SMOOTH",
"600 922 LINE",
"1004 922 LINE"
);
}
);
width = 1059;
}
);
note = cent;
unicode = 00A2;
},
{
glyphname = sterling;
lastChange = "2017-09-25 17:37:43 +0000";
layers = (
{
layerId = "BBA80624-4CF6-45E1-9846-B55476475641";
paths = (
{
closed = 1;
nodes = (
"1006 1151 OFFCURVE",
"1009 1195 OFFCURVE",
"1009 1230 CURVE SMOOTH",
"1009 1490 OFFCURVE",
"828 1650 OFFCURVE",
"544 1650 CURVE SMOOTH",
"279 1650 OFFCURVE",
"87 1506 OFFCURVE",
"87 1227 CURVE SMOOTH",
"87 1130 OFFCURVE",
"115 1028 OFFCURVE",
"171 921 CURVE",
"72 921 LINE",
"72 645 LINE",
"215 645 LINE",
"216 626 OFFCURVE",
"216 612 OFFCURVE",
"216 601 CURVE SMOOTH",
"216 551 OFFCURVE",
"208 492 OFFCURVE",
"193 425 CURVE SMOOTH",
"162 289 OFFCURVE",
"129 244 OFFCURVE",
"72 205 CURVE",
"72 -31 LINE",
"135 14 OFFCURVE",
"217 37 OFFCURVE",
"317 37 CURVE SMOOTH",
"380 37 OFFCURVE",
"456 26 OFFCURVE",
"543 3 CURVE SMOOTH",
"633 -20 OFFCURVE",
"701 -31 OFFCURVE",
"748 -31 CURVE SMOOTH",
"822 -31 OFFCURVE",
"883 -17 OFFCURVE",
"932 11 CURVE SMOOTH",
"1029 67 OFFCURVE",
"1047 132 OFFCURVE",
"1047 325 CURVE SMOOTH",
"1048 454 LINE",
"708 454 LINE",
"709 422 OFFCURVE",
"709 401 OFFCURVE",
"709 390 CURVE SMOOTH",
"709 319 OFFCURVE",
"701 275 OFFCURVE",
"685 258 CURVE SMOOTH",
"668 241 OFFCURVE",
"647 233 OFFCURVE",
"620 233 CURVE SMOOTH",
"608 233 OFFCURVE",
"594 234 OFFCURVE",
"579 237 CURVE SMOOTH",
"540 244 OFFCURVE",
"509 247 OFFCURVE",
"487 247 CURVE SMOOTH",
"471 247 OFFCURVE",
"453 245 OFFCURVE",
"433 242 CURVE SMOOTH",
"415 239 OFFCURVE",
"400 237 OFFCURVE",
"388 236 CURVE",
"515 327 OFFCURVE",
"580 464 OFFCURVE",
"582 645 CURVE",
"813 645 LINE",
"813 921 LINE",
"558 921 LINE",
"557 942 OFFCURVE",
"541 1008 OFFCURVE",
"510 1119 CURVE SMOOTH",
"481 1220 OFFCURVE",
"466 1289 OFFCURVE",
"466 1326 CURVE SMOOTH",
"466 1383 OFFCURVE",
"505 1437 OFFCURVE",
"558 1437 CURVE SMOOTH",
"599 1437 OFFCURVE",
"629 1405 OFFCURVE",
"634 1370 CURVE SMOOTH",
"636 1352 OFFCURVE",
"637 1310 OFFCURVE",
"637 1245 CURVE SMOOTH",
"637 1098 LINE",
"999 1098 LINE"
);
}
);
width = 1096;
}
);
note = sterling;
unicode = 00A3;
},
{
glyphname = section;
lastChange = "2017-09-25 17:37:43 +0000";
layers = (
{
layerId = "BBA80624-4CF6-45E1-9846-B55476475641";
paths = (
{
closed = 1;
nodes = (
"877 1557 OFFCURVE",
"708 1653 OFFCURVE",
"492 1653 CURVE SMOOTH",
"220 1653 OFFCURVE",
"83 1478 OFFCURVE",
"83 1303 CURVE SMOOTH",
"83 1191 OFFCURVE",
"140 1084 OFFCURVE",
"252 983 CURVE",
"108 900 OFFCURVE",
"36 804 OFFCURVE",
"36 694 CURVE SMOOTH",
"36 623 OFFCURVE",
"65 558 OFFCURVE",
"122 498 CURVE SMOOTH",
"179 437 OFFCURVE",
"284 353 OFFCURVE",
"436 244 CURVE SMOOTH",
"487 207 OFFCURVE",
"523 177 OFFCURVE",
"544 154 CURVE SMOOTH",
"565 131 OFFCURVE",
"575 107 OFFCURVE",
"575 83 CURVE SMOOTH",
"575 39 OFFCURVE",
"555 17 OFFCURVE",
"512 17 CURVE SMOOTH",
"459 17 OFFCURVE",
"433 60 OFFCURVE",
"433 146 CURVE",
"113 146 LINE",
"117 -113 OFFCURVE",
"270 -229 OFFCURVE",
"493 -229 CURVE SMOOTH",
"754 -229 OFFCURVE",
"910 -58 OFFCURVE",
"910 121 CURVE SMOOTH",
"910 218 OFFCURVE",
"853 325 OFFCURVE",
"738 444 CURVE",
"883 511 OFFCURVE",
"955 606 OFFCURVE",
"955 729 CURVE SMOOTH",
"955 788 OFFCURVE",
"936 843 OFFCURVE",
"899 894 CURVE SMOOTH",
"861 945 OFFCURVE",
"764 1028 OFFCURVE",
"607 1141 CURVE SMOOTH",
"520 1204 OFFCURVE",
"466 1248 OFFCURVE",
"446 1272 CURVE SMOOTH",
"425 1296 OFFCURVE",
"415 1318 OFFCURVE",
"415 1339 CURVE SMOOTH",
"415 1379 OFFCURVE",
"435 1398 OFFCURVE",
"475 1398 CURVE SMOOTH",
"531 1398 OFFCURVE",
"558 1365 OFFCURVE",
"558 1298 CURVE SMOOTH",
"558 1273 LINE",
"877 1273 LINE"
);
},
{
closed = 1;
nodes = (
"410 848 OFFCURVE",
"439 827 OFFCURVE",
"469 806 CURVE SMOOTH",
"540 756 OFFCURVE",
"587 720 OFFCURVE",
"610 697 CURVE SMOOTH",
"633 674 OFFCURVE",
"644 653 OFFCURVE",
"644 633 CURVE SMOOTH",
"644 604 OFFCURVE",
"632 579 OFFCURVE",
"609 558 CURVE",
"584 577 OFFCURVE",
"548 603 OFFCURVE",
"501 638 CURVE SMOOTH",
"432 687 OFFCURVE",
"389 721 OFFCURVE",
"372 739 CURVE SMOOTH",
"355 756 OFFCURVE",
"347 775 OFFCURVE",
"347 794 CURVE SMOOTH",
"347 820 OFFCURVE",
"359 845 OFFCURVE",
"382 869 CURVE"
);
}
);
width = 991;
}
);
note = section;
unicode = 00A7;
},
{
glyphname = bullet;
lastChange = "2017-09-25 17:37:43 +0000";
layers = (
{
layerId = "BBA80624-4CF6-45E1-9846-B55476475641";
paths = (
{
closed = 1;
nodes = (
"651 961 OFFCURVE",
"528 1105 OFFCURVE",
"355 1105 CURVE SMOOTH",
"194 1105 OFFCURVE",
"60 971 OFFCURVE",
"60 810 CURVE SMOOTH",
"60 646 OFFCURVE",
"192 514 OFFCURVE",
"356 514 CURVE SMOOTH",
"515 514 OFFCURVE",
"651 641 OFFCURVE",
"651 817 CURVE SMOOTH"
);
}
);
width = 712;
}
);
note = bullet;
unicode = 2022;
},
{
glyphname = paragraph;
lastChange = "2017-09-25 17:37:43 +0000";
layers = (
{
layerId = "BBA80624-4CF6-45E1-9846-B55476475641";
paths = (
{
closed = 1;
nodes = (
"817 1358 LINE",
"817 -221 LINE",
"1054 -221 LINE",
"1054 1358 LINE",
"1167 1358 LINE",
"1167 1619 LINE",
"570 1619 LINE SMOOTH",
"370 1619 OFFCURVE",
"305 1613 OFFCURVE",
"203 1546 CURVE SMOOTH",
"101 1479 OFFCURVE",
"36 1356 OFFCURVE",
"36 1200 CURVE SMOOTH",
"36 961 OFFCURVE",
"167 826 OFFCURVE",
"430 797 CURVE",
"430 -221 LINE",
"673 -221 LINE",
"673 1358 LINE"
);
}
);
width = 1180;
}
);
note = paragraph;
unicode = 00B6;
},
{
glyphname = germandbls;
lastChange = "2017-09-25 17:37:43 +0000";
layers = (
{
layerId = "BBA80624-4CF6-45E1-9846-B55476475641";
paths = (
{
closed = 1;
nodes = (
"993 1094 OFFCURVE",
"1039 1181 OFFCURVE",
"1039 1286 CURVE SMOOTH",
"1039 1517 OFFCURVE",
"854 1653 OFFCURVE",
"535 1653 CURVE SMOOTH",
"406 1653 OFFCURVE",
"306 1630 OFFCURVE",
"234 1583 CURVE SMOOTH",
"89 1490 OFFCURVE",
"72 1394 OFFCURVE",
"72 1081 CURVE SMOOTH",
"72 0 LINE",
"476 0 LINE",
"476 1249 LINE SMOOTH",
"476 1316 OFFCURVE",
"482 1361 OFFCURVE",
"493 1384 CURVE SMOOTH",
"504 1407 OFFCURVE",
"526 1418 OFFCURVE",
"557 1418 CURVE SMOOTH",
"612 1418 OFFCURVE",
"639 1367 OFFCURVE",
"639 1264 CURVE SMOOTH",
"639 1218 OFFCURVE",
"632 1191 OFFCURVE",
"619 1183 CURVE",
"606 1174 OFFCURVE",
"592 1170 OFFCURVE",
"577 1170 CURVE",
"577 924 LINE",
"644 915 OFFCURVE",
"655 892 OFFCURVE",
"656 800 CURVE SMOOTH",
"656 404 LINE SMOOTH",
"656 322 OFFCURVE",
"652 275 OFFCURVE",
"644 263 CURVE SMOOTH",
"636 251 OFFCURVE",
"614 245 OFFCURVE",
"577 245 CURVE SMOOTH",
"531 245 LINE",
"531 0 LINE",
"608 0 LINE SMOOTH",
"768 0 OFFCURVE",
"871 30 OFFCURVE",
"955 118 CURVE SMOOTH",
"1039 205 OFFCURVE",
"1060 286 OFFCURVE",
"1060 483 CURVE SMOOTH",
"1060 632 LINE SMOOTH",
"1060 775 OFFCURVE",
"1046 870 OFFCURVE",
"1017 918 CURVE SMOOTH",
"988 966 OFFCURVE",
"950 1001 OFFCURVE",
"902 1023 CURVE"
);
}
);
width = 1127;
}
);
note = germandbls;
unicode = 00DF;
},
{
glyphname = registered;
lastChange = "2017-09-25 17:37:43 +0000";
layers = (
{
layerId = "BBA80624-4CF6-45E1-9846-B55476475641";
paths = (
{
closed = 1;
nodes = (
"680 1532 OFFCURVE",
"570 1504 OFFCURVE",
"451 1447 CURVE SMOOTH",
"214 1334 OFFCURVE",
"36 1063 OFFCURVE",
"36 766 CURVE SMOOTH",
"36 343 OFFCURVE",
"378 0 OFFCURVE",
"802 0 CURVE SMOOTH",
"1223 0 OFFCURVE",
"1568 345 OFFCURVE",
"1568 766 CURVE SMOOTH",
"1568 1179 OFFCURVE",
"1239 1532 OFFCURVE",
"782 1532 CURVE SMOOTH"
);
},
{
closed = 1;
nodes = (
"907 1383 OFFCURVE",
"999 1359 OFFCURVE",
"1094 1310 CURVE SMOOTH",
"1285 1212 OFFCURVE",
"1419 999 OFFCURVE",
"1419 766 CURVE SMOOTH",
"1419 427 OFFCURVE",
"1141 150 OFFCURVE",
"804 150 CURVE SMOOTH",
"465 150 OFFCURVE",
"188 427 OFFCURVE",
"188 766 CURVE SMOOTH",
"188 1093 OFFCURVE",
"444 1383 OFFCURVE",
"820 1383 CURVE SMOOTH"
);
},
{
closed = 1;
nodes = (
"629 690 LINE",
"672 690 LINE SMOOTH",
"772 690 OFFCURVE",
"820 644 OFFCURVE",
"901 488 CURVE SMOOTH",
"969 357 LINE",
"1172 357 LINE",
"1077 520 LINE SMOOTH",
"1034 592 OFFCURVE",
"1003 639 OFFCURVE",
"984 661 CURVE",
"964 682 OFFCURVE",
"937 699 OFFCURVE",
"904 712 CURVE",
"1051 739 OFFCURVE",
"1123 815 OFFCURVE",
"1123 940 CURVE SMOOTH",
"1123 1069 OFFCURVE",
"1041 1170 OFFCURVE",
"850 1170 CURVE SMOOTH",
"465 1170 LINE",
"465 357 LINE",
"629 357 LINE"
);
},
{
closed = 1;
nodes = (
"780 1040 LINE SMOOTH",
"893 1040 OFFCURVE",
"949 1004 OFFCURVE",
"949 932 CURVE SMOOTH",
"949 852 OFFCURVE",
"898 819 OFFCURVE",
"763 819 CURVE SMOOTH",
"629 819 LINE",
"629 1040 LINE"
);
}
);
width = 1605;
}
);
note = registered;
unicode = 00AE;
},
{
glyphname = copyright;
lastChange = "2017-09-25 17:37:43 +0000";
layers = (
{
layerId = "BBA80624-4CF6-45E1-9846-B55476475641";
paths = (
{
closed = 1;
nodes = (
"673 1532 OFFCURVE",
"560 1502 OFFCURVE",
"441 1441 CURVE SMOOTH",
"204 1320 OFFCURVE",
"36 1057 OFFCURVE",
"36 766 CURVE SMOOTH",
"36 343 OFFCURVE",
"378 0 OFFCURVE",
"802 0 CURVE SMOOTH",
"1223 0 OFFCURVE",
"1568 345 OFFCURVE",
"1568 766 CURVE SMOOTH",
"1568 1174 OFFCURVE",
"1246 1532 OFFCURVE",
"782 1532 CURVE SMOOTH"
);
},
{
closed = 1;
nodes = (
"1119 1381 OFFCURVE",
"1417 1118 OFFCURVE",
"1417 766 CURVE SMOOTH",
"1417 429 OFFCURVE",
"1141 151 OFFCURVE",
"802 151 CURVE SMOOTH",
"463 151 OFFCURVE",
"187 429 OFFCURVE",
"187 766 CURVE SMOOTH",
"187 1098 OFFCURVE",
"450 1381 OFFCURVE",
"818 1381 CURVE SMOOTH"
);
},
{
closed = 1;
nodes = (
"952 538 OFFCURVE",
"889 481 OFFCURVE",
"799 481 CURVE SMOOTH",
"674 481 OFFCURVE",
"602 588 OFFCURVE",
"602 773 CURVE SMOOTH",
"602 938 OFFCURVE",
"676 1048 OFFCURVE",
"809 1048 CURVE SMOOTH",
"893 1048 OFFCURVE",
"952 1002 OFFCURVE",
"987 909 CURVE",
"1149 947 LINE",
"1091 1109 OFFCURVE",
"977 1190 OFFCURVE",
"806 1190 CURVE SMOOTH",
"582 1190 OFFCURVE",
"426 1027 OFFCURVE",
"426 762 CURVE SMOOTH",
"426 505 OFFCURVE",
"577 338 OFFCURVE",
"810 338 CURVE SMOOTH",
"982 338 OFFCURVE",
"1095 425 OFFCURVE",
"1149 598 CURVE",
"988 653 LINE"
);
}
);
width = 1605;
}
);
note = copyright;
unicode = 00A9;
},
{
glyphname = trademark;
lastChange = "2017-09-25 17:37:43 +0000";
layers = (
{
layerId = "BBA80624-4CF6-45E1-9846-B55476475641";
paths = (
{
closed = 1;
nodes = (
"431 1477 LINE",
"677 1477 LINE",
"677 1619 LINE",
"12 1619 LINE",
"12 1477 LINE",
"265 1477 LINE",
"265 800 LINE",
"431 800 LINE"
);
},
{
closed = 1;
nodes = (
"894 1453 LINE",
"1070 800 LINE",
"1220 800 LINE",
"1397 1453 LINE",
"1397 800 LINE",
"1555 800 LINE",
"1555 1619 LINE",
"1295 1619 LINE",
"1146 1055 LINE",
"997 1619 LINE",
"738 1619 LINE",
"738 800 LINE",
"894 800 LINE"
);
}
);
width = 1603;
}
);
note = trademark;
unicode = 2122;
},
{
glyphname = acute;
lastChange = "2017-09-25 17:37:43 +0000";
layers = (
{
layerId = "BBA80624-4CF6-45E1-9846-B55476475641";
paths = (
{
closed = 1;
nodes = (
"151 1501 LINE",
"354 1501 LINE",
"683 1772 LINE",
"327 1772 LINE"
);
}
);
width = 683;
}
);
note = acute;
unicode = 00B4;
},
{
glyphname = dieresis;
lastChange = "2017-09-25 17:37:43 +0000";
layers = (
{
layerId = "BBA80624-4CF6-45E1-9846-B55476475641";
paths = (
{
closed = 1;
nodes = (
"-7 1501 LINE",
"254 1501 LINE",
"254 1761 LINE",
"-7 1761 LINE"
);
},
{
closed = 1;
nodes = (
"430 1501 LINE",
"691 1501 LINE",
"691 1761 LINE",
"430 1761 LINE"
);
}
);
width = 683;
}
);
note = dieresis;
unicode = 00A8;
},
{
glyphname = notequal;
lastChange = "2017-09-25 17:37:43 +0000";
layers = (
{
layerId = "BBA80624-4CF6-45E1-9846-B55476475641";
paths = (
{
closed = 1;
nodes = (
"461 878 LINE",
"406 740 LINE",
"65 740 LINE",
"65 496 LINE",
"311 496 LINE",
"145 77 LINE",
"371 77 LINE",
"537 496 LINE",
"1027 496 LINE",
"1027 740 LINE",
"632 740 LINE",
"686 878 LINE",
"1027 878 LINE",
"1027 1122 LINE",
"781 1122 LINE",
"943 1541 LINE",
"720 1541 LINE",
"555 1122 LINE",
"65 1122 LINE",
"65 878 LINE"
);
}
);
width = 1092;
}
);
note = notequal;
unicode = 2260;
},
{
glyphname = AE;
lastChange = "2017-09-25 17:37:43 +0000";
layers = (
{
layerId = "BBA80624-4CF6-45E1-9846-B55476475641";
paths = (
{
closed = 1;
nodes = (
"-12 0 LINE",
"390 0 LINE",
"458 291 LINE",
"700 291 LINE",
"700 0 LINE",
"1424 0 LINE",
"1424 324 LINE",
"1121 324 LINE",
"1121 680 LINE",
"1387 680 LINE",
"1387 988 LINE",
"1121 988 LINE",
"1121 1295 LINE",
"1404 1295 LINE",
"1404 1619 LINE",
"414 1619 LINE"
);
},
{
closed = 1;
nodes = (
"521 578 LINE",
"700 1316 LINE",
"700 578 LINE"
);
}
);
width = 1461;
}
);
note = AE;
unicode = 00C6;
},
{
glyphname = Oslash;
lastChange = "2017-09-25 17:37:43 +0000";
layers = (
{
layerId = "BBA80624-4CF6-45E1-9846-B55476475641";
paths = (
{
closed = 1;
nodes = (
"1081 1602 LINE",
"974 1462 LINE",
"891 1590 OFFCURVE",
"752 1653 OFFCURVE",
"559 1653 CURVE SMOOTH",
"468 1653 OFFCURVE",
"388 1638 OFFCURVE",
"319 1608 CURVE SMOOTH",
"182 1548 OFFCURVE",
"99 1429 OFFCURVE",
"84 1294 CURVE SMOOTH",
"76 1226 OFFCURVE",
"72 1111 OFFCURVE",
"72 948 CURVE SMOOTH",
"72 671 LINE SMOOTH",
"72 458 OFFCURVE",
"79 327 OFFCURVE",
"92 279 CURVE",
"-55 87 LINE",
"37 17 LINE",
"144 157 LINE",
"227 30 OFFCURVE",
"364 -34 OFFCURVE",
"559 -34 CURVE SMOOTH",
"650 -34 OFFCURVE",
"730 -19 OFFCURVE",
"799 11 CURVE SMOOTH",
"936 71 OFFCURVE",
"1019 190 OFFCURVE",
"1035 326 CURVE SMOOTH",
"1042 393 OFFCURVE",
"1046 508 OFFCURVE",
"1046 671 CURVE SMOOTH",
"1046 948 LINE SMOOTH",
"1046 1159 OFFCURVE",
"1039 1289 OFFCURVE",
"1026 1340 CURVE",
"1173 1533 LINE"
);
},
{
closed = 1;
nodes = (
"493 1203 LINE SMOOTH",
"493 1276 OFFCURVE",
"498 1323 OFFCURVE",
"507 1346 CURVE SMOOTH",
"516 1368 OFFCURVE",
"534 1379 OFFCURVE",
"561 1379 CURVE SMOOTH",
"587 1379 OFFCURVE",
"604 1369 OFFCURVE",
"613 1348 CURVE",
"621 1327 OFFCURVE",
"625 1278 OFFCURVE",
"625 1203 CURVE SMOOTH",
"625 987 LINE",
"493 813 LINE"
);
},
{
closed = 1;
nodes = (
"625 459 LINE SMOOTH",
"625 364 OFFCURVE",
"621 303 OFFCURVE",
"613 278 CURVE SMOOTH",
"605 253 OFFCURVE",
"587 240 OFFCURVE",
"558 240 CURVE SMOOTH",
"530 240 OFFCURVE",
"512 251 OFFCURVE",
"505 273 CURVE",
"497 295 OFFCURVE",
"493 353 OFFCURVE",
"493 447 CURVE SMOOTH",
"493 624 LINE",
"625 799 LINE"
);
}
);
width = 1119;
}
);
note = Oslash;
unicode = 00D8;
},
{
glyphname = infinity;
lastChange = "2017-09-25 17:37:43 +0000";
layers = (
{
layerId = "BBA80624-4CF6-45E1-9846-B55476475641";
paths = (
{
closed = 1;
nodes = (
"552 1002 OFFCURVE",
"463 1038 OFFCURVE",
"360 1038 CURVE SMOOTH",
"187 1038 OFFCURVE",
"53 880 OFFCURVE",
"53 671 CURVE SMOOTH",
"53 451 OFFCURVE",
"207 302 OFFCURVE",
"396 302 CURVE SMOOTH",
"537 302 OFFCURVE",
"645 380 OFFCURVE",
"720 535 CURVE",
"791 410 OFFCURVE",
"851 332 OFFCURVE",
"902 299 CURVE SMOOTH",
"953 266 OFFCURVE",
"1004 249 OFFCURVE",
"1057 249 CURVE SMOOTH",
"1113 249 OFFCURVE",
"1169 268 OFFCURVE",
"1225 305 CURVE SMOOTH",
"1336 379 OFFCURVE",
"1406 505 OFFCURVE",
"1406 669 CURVE SMOOTH",
"1406 761 OFFCURVE",
"1386 839 OFFCURVE",
"1346 903 CURVE SMOOTH",
"1266 1031 OFFCURVE",
"1152 1086 OFFCURVE",
"1023 1086 CURVE SMOOTH",
"858 1086 OFFCURVE",
"746 1034 OFFCURVE",
"653 809 CURVE"
);
},
{
closed = 1;
nodes = (
"818 797 OFFCURVE",
"874 911 OFFCURVE",
"917 950 CURVE SMOOTH",
"960 989 OFFCURVE",
"1010 1008 OFFCURVE",
"1067 1008 CURVE SMOOTH",
"1212 1008 OFFCURVE",
"1349 862 OFFCURVE",
"1349 669 CURVE SMOOTH",
"1349 482 OFFCURVE",
"1233 343 OFFCURVE",
"1061 343 CURVE SMOOTH",
"933 343 OFFCURVE",
"841 410 OFFCURVE",
"749 606 CURVE"
);
},
{
closed = 1;
nodes = (
"565 554 OFFCURVE",
"518 465 OFFCURVE",
"471 431 CURVE SMOOTH",
"424 397 OFFCURVE",
"380 380 OFFCURVE",
"338 380 CURVE SMOOTH",
"225 380 OFFCURVE",
"108 489 OFFCURVE",
"108 672 CURVE SMOOTH",
"108 844 OFFCURVE",
"222 946 OFFCURVE",
"357 946 CURVE SMOOTH",
"476 946 OFFCURVE",
"564 875 OFFCURVE",
"624 732 CURVE",
"613 698 LINE SMOOTH"
);
}
);
width = 1460;
}
);
note = infinity;
unicode = 221E;
},
{
glyphname = plusminus;
lastChange = "2017-09-25 17:37:43 +0000";
layers = (
{
layerId = "BBA80624-4CF6-45E1-9846-B55476475641";
paths = (
{
closed = 1;
nodes = (
"1028 898 LINE",
"1028 1142 LINE",
"667 1142 LINE",
"667 1502 LINE",
"423 1502 LINE",
"423 1142 LINE",
"64 1142 LINE",
"64 898 LINE",
"423 898 LINE",
"423 543 LINE",
"667 543 LINE",
"667 898 LINE"
);
},
{
closed = 1;
nodes = (
"1028 179 LINE",
"1028 423 LINE",
"64 423 LINE",
"64 179 LINE"
);
}
);
width = 1092;
}
);
note = plusminus;
unicode = 00B1;
},
{
glyphname = lessequal;
lastChange = "2017-09-25 17:37:43 +0000";
layers = (
{
layerId = "BBA80624-4CF6-45E1-9846-B55476475641";
paths = (
{
closed = 1;
nodes = (
"433 989 LINE",
"1027 1228 LINE",
"1027 1492 LINE",
"65 1090 LINE",
"65 887 LINE",
"1027 486 LINE",
"1027 751 LINE"
);
},
{
closed = 1;
nodes = (
"1028 162 LINE",
"1028 406 LINE",
"64 406 LINE",
"64 162 LINE"
);
}
);
width = 1092;
}
);
note = lessequal;
unicode = 2264;
},
{
glyphname = greaterequal;
lastChange = "2017-09-25 17:37:43 +0000";
layers = (
{
layerId = "BBA80624-4CF6-45E1-9846-B55476475641";
paths = (
{
closed = 1;
nodes = (
"659 989 LINE",
"65 751 LINE",
"65 486 LINE",
"1027 888 LINE",
"1027 1092 LINE",
"65 1492 LINE",
"65 1227 LINE"
);
},
{
closed = 1;
nodes = (
"1028 162 LINE",
"1028 406 LINE",
"64 406 LINE",
"64 162 LINE"
);
}
);
width = 1092;
}
);
note = greaterequal;
unicode = 2265;
},
{
glyphname = yen;
lastChange = "2017-09-25 17:37:43 +0000";
layers = (
{
layerId = "BBA80624-4CF6-45E1-9846-B55476475641";
paths = (
{
closed = 1;
nodes = (
"594 1619 LINE",
"539 1367 OFFCURVE",
"500 1155 OFFCURVE",
"477 982 CURVE",
"470 1091 OFFCURVE",
"436 1304 OFFCURVE",
"375 1619 CURVE",
"-12 1619 LINE",
"170 982 LINE",
"2 982 LINE",
"2 810 LINE",
"220 810 LINE",
"284 586 LINE",
"2 586 LINE",
"2 415 LINE",
"284 415 LINE",
"284 0 LINE",
"674 0 LINE",
"674 415 LINE",
"966 415 LINE",
"966 586 LINE",
"674 586 LINE",
"741 810 LINE",
"966 810 LINE",
"966 982 LINE",
"792 982 LINE",
"981 1619 LINE"
);
}
);
width = 969;
}
);
note = yen;
unicode = 00A5;
},
{
glyphname = mu1;
lastChange = "2017-09-25 17:37:43 +0000";
layers = (
{
layerId = "BBA80624-4CF6-45E1-9846-B55476475641";
paths = (
{
closed = 1;
nodes = (
"396 -407 LINE",
"396 -21 LINE",
"482 -20 OFFCURVE",
"545 28 OFFCURVE",
"586 123 CURVE",
"586 0 LINE",
"892 0 LINE",
"892 1327 LINE",
"571 1327 LINE",
"571 461 LINE SMOOTH",
"571 306 OFFCURVE",
"539 229 OFFCURVE",
"474 229 CURVE SMOOTH",
"422 229 OFFCURVE",
"396 276 OFFCURVE",
"396 370 CURVE SMOOTH",
"396 1327 LINE",
"72 1327 LINE",
"72 -407 LINE"
);
}
);
width = 965;
}
);
note = mu1;
unicode = 00B5;
},
{
glyphname = partialdiff;
lastChange = "2017-09-25 17:37:43 +0000";
layers = (
{
layerId = "BBA80624-4CF6-45E1-9846-B55476475641";
paths = (
{
closed = 1;
nodes = (
"407 1206 OFFCURVE",
"483 1234 OFFCURVE",
"580 1234 CURVE SMOOTH",
"654 1234 OFFCURVE",
"711 1221 OFFCURVE",
"750 1196 CURVE SMOOTH",
"829 1144 OFFCURVE",
"893 1058 OFFCURVE",
"893 911 CURVE SMOOTH",
"893 878 OFFCURVE",
"890 835 OFFCURVE",
"885 784 CURVE",
"840 884 OFFCURVE",
"761 934 OFFCURVE",
"649 934 CURVE SMOOTH",
"369 934 OFFCURVE",
"62 601 OFFCURVE",
"62 293 CURVE SMOOTH",
"62 117 OFFCURVE",
"171 -23 OFFCURVE",
"378 -23 CURVE SMOOTH",
"483 -23 OFFCURVE",
"574 15 OFFCURVE",
"650 92 CURVE SMOOTH",
"802 244 OFFCURVE",
"954 575 OFFCURVE",
"954 1034 CURVE SMOOTH",
"954 1137 OFFCURVE",
"944 1214 OFFCURVE",
"923 1265 CURVE SMOOTH",
"881 1366 OFFCURVE",
"793 1434 OFFCURVE",
"660 1434 CURVE SMOOTH",
"497 1434 OFFCURVE",
"381 1339 OFFCURVE",
"312 1150 CURVE",
"354 1150 LINE"
);
},
{
closed = 1;
nodes = (
"806 359 OFFCURVE",
"617 44 OFFCURVE",
"438 44 CURVE SMOOTH",
"355 44 OFFCURVE",
"318 87 OFFCURVE",
"318 212 CURVE SMOOTH",
"318 307 OFFCURVE",
"334 412 OFFCURVE",
"366 529 CURVE SMOOTH",
"430 761 OFFCURVE",
"540 883 OFFCURVE",
"655 883 CURVE SMOOTH",
"756 883 OFFCURVE",
"827 819 OFFCURVE",
"869 691 CURVE"
);
}
);
width = 1003;
}
);
note = partialdiff;
unicode = 2202;
},
{
glyphname = summation;
lastChange = "2017-09-25 17:37:43 +0000";
layers = (
{
layerId = "BBA80624-4CF6-45E1-9846-B55476475641";
paths = (
{
closed = 1;
nodes = (
"1375 339 LINE",
"1324 115 OFFCURVE",
"1184 93 OFFCURVE",
"1065 93 CURVE SMOOTH",
"247 93 LINE",
"876 870 LINE",
"314 1557 LINE",
"1054 1557 LINE SMOOTH",
"1202 1557 OFFCURVE",
"1285 1472 OFFCURVE",
"1303 1301 CURVE",
"1343 1301 LINE",
"1316 1638 LINE",
"38 1638 LINE",
"38 1600 LINE",
"707 784 LINE",
"38 -47 LINE",
"38 -83 LINE",
"1351 -83 LINE",
"1415 331 LINE"
);
}
);
width = 1451;
}
);
note = summation;
unicode = 2211;
},
{
glyphname = product;
lastChange = "2017-09-25 17:37:43 +0000";
layers = (
{
layerId = "BBA80624-4CF6-45E1-9846-B55476475641";
paths = (
{
closed = 1;
nodes = (
"1239 3 OFFCURVE",
"1201 -45 OFFCURVE",
"1077 -45 CURVE SMOOTH",
"1042 -45 LINE",
"1042 -83 LINE",
"1639 -83 LINE",
"1639 -45 LINE",
"1604 -45 LINE SMOOTH",
"1492 -45 OFFCURVE",
"1442 -5 OFFCURVE",
"1442 110 CURVE SMOOTH",
"1442 1444 LINE SMOOTH",
"1442 1555 OFFCURVE",
"1489 1599 OFFCURVE",
"1604 1599 CURVE SMOOTH",
"1639 1599 LINE",
"1639 1636 LINE",
"45 1636 LINE",
"45 1599 LINE",
"80 1599 LINE SMOOTH",
"196 1599 OFFCURVE",
"243 1557 OFFCURVE",
"243 1444 CURVE SMOOTH",
"243 110 LINE SMOOTH",
"243 3 OFFCURVE",
"204 -45 OFFCURVE",
"80 -45 CURVE SMOOTH",
"45 -45 LINE",
"45 -83 LINE",
"642 -83 LINE",
"642 -45 LINE",
"606 -45 LINE SMOOTH",
"494 -45 OFFCURVE",
"444 -5 OFFCURVE",
"444 110 CURVE SMOOTH",
"444 1558 LINE",
"1239 1558 LINE",
"1239 110 LINE SMOOTH"
);
}
);
width = 1685;
}
);
note = product;
unicode = 220F;
},
{
glyphname = pi1;
lastChange = "2017-09-25 17:37:43 +0000";
layers = (
{
layerId = "BBA80624-4CF6-45E1-9846-B55476475641";
paths = (
{
closed = 1;
nodes = (
"334 935 OFFCURVE",
"281 928 OFFCURVE",
"249 915 CURVE SMOOTH",
"184 888 OFFCURVE",
"100 775 OFFCURVE",
"52 612 CURVE",
"89 612 LINE",
"120 689 OFFCURVE",
"179 728 OFFCURVE",
"266 728 CURVE SMOOTH",
"300 728 LINE",
"295 463 OFFCURVE",
"268 351 OFFCURVE",
"199 226 CURVE SMOOTH",
"162 160 OFFCURVE",
"143 109 OFFCURVE",
"143 74 CURVE SMOOTH",
"143 19 OFFCURVE",
"186 -28 OFFCURVE",
"249 -28 CURVE SMOOTH",
"302 -28 OFFCURVE",
"346 12 OFFCURVE",
"381 92 CURVE SMOOTH",
"416 171 OFFCURVE",
"444 383 OFFCURVE",
"465 728 CURVE",
"663 728 LINE",
"640 540 OFFCURVE",
"628 398 OFFCURVE",
"628 303 CURVE SMOOTH",
"628 83 OFFCURVE",
"692 -28 OFFCURVE",
"819 -28 CURVE SMOOTH",
"952 -28 OFFCURVE",
"1022 87 OFFCURVE",
"1030 316 CURVE",
"993 316 LINE",
"980 203 OFFCURVE",
"941 146 OFFCURVE",
"875 146 CURVE SMOOTH",
"818 146 OFFCURVE",
"788 200 OFFCURVE",
"788 305 CURVE SMOOTH",
"788 393 OFFCURVE",
"800 534 OFFCURVE",
"824 728 CURVE",
"1039 728 LINE",
"1039 935 LINE",
"407 935 LINE SMOOTH"
);
}
);
width = 1124;
}
);
note = pi1;
unicode = F006;
},
{
glyphname = integral;
lastChange = "2017-09-25 17:37:43 +0000";
layers = (
{
layerId = "BBA80624-4CF6-45E1-9846-B55476475641";
paths = (
{
closed = 1;
nodes = (
"200 588 OFFCURVE",
"213 328 OFFCURVE",
"238 117 CURVE SMOOTH",
"244 65 OFFCURVE",
"247 25 OFFCURVE",
"247 -3 CURVE SMOOTH",
"247 -43 OFFCURVE",
"235 -64 OFFCURVE",
"208 -64 CURVE SMOOTH",
"195 -64 OFFCURVE",
"179 -54 OFFCURVE",
"160 -33 CURVE SMOOTH",
"140 -11 OFFCURVE",
"117 0 OFFCURVE",
"90 0 CURVE SMOOTH",
"39 0 OFFCURVE",
"0 -39 OFFCURVE",
"0 -99 CURVE SMOOTH",
"0 -174 OFFCURVE",
"53 -220 OFFCURVE",
"118 -220 CURVE SMOOTH",
"175 -220 OFFCURVE",
"226 -190 OFFCURVE",
"269 -129 CURVE SMOOTH",
"356 -9 OFFCURVE",
"358 743 OFFCURVE",
"358 834 CURVE SMOOTH",
"358 1003 OFFCURVE",
"346 1225 OFFCURVE",
"321 1499 CURVE SMOOTH",
"315 1568 OFFCURVE",
"312 1617 OFFCURVE",
"312 1645 CURVE SMOOTH",
"312 1687 OFFCURVE",
"325 1708 OFFCURVE",
"352 1708 CURVE SMOOTH",
"363 1708 OFFCURVE",
"377 1701 OFFCURVE",
"392 1688 CURVE SMOOTH",
"419 1664 OFFCURVE",
"445 1652 OFFCURVE",
"468 1652 CURVE SMOOTH",
"523 1652 OFFCURVE",
"560 1697 OFFCURVE",
"560 1756 CURVE SMOOTH",
"560 1807 OFFCURVE",
"506 1863 OFFCURVE",
"435 1863 CURVE SMOOTH",
"380 1863 OFFCURVE",
"331 1833 OFFCURVE",
"287 1774 CURVE SMOOTH",
"243 1714 OFFCURVE",
"218 1569 OFFCURVE",
"212 1340 CURVE SMOOTH",
"200 895 LINE SMOOTH"
);
}
);
width = 561;
}
);
note = integral;
unicode = 222B;
},
{
glyphname = ordfeminine;
lastChange = "2017-09-25 17:37:43 +0000";
layers = (
{
layerId = "BBA80624-4CF6-45E1-9846-B55476475641";
paths = (
{
closed = 1;
nodes = (
"282 1443 OFFCURVE",
"284 1470 OFFCURVE",
"288 1479 CURVE SMOOTH",
"292 1488 OFFCURVE",
"303 1492 OFFCURVE",
"321 1492 CURVE SMOOTH",
"338 1492 OFFCURVE",
"350 1486 OFFCURVE",
"357 1475 CURVE",
"363 1464 OFFCURVE",
"366 1436 OFFCURVE",
"366 1393 CURVE SMOOTH",
"366 1376 OFFCURVE",
"365 1361 OFFCURVE",
"362 1350 CURVE SMOOTH",
"359 1338 OFFCURVE",
"322 1319 OFFCURVE",
"252 1294 CURVE SMOOTH",
"53 1223 OFFCURVE",
"36 1206 OFFCURVE",
"36 1078 CURVE SMOOTH",
"36 1013 LINE SMOOTH",
"36 881 OFFCURVE",
"98 815 OFFCURVE",
"221 815 CURVE SMOOTH",
"289 815 OFFCURVE",
"340 844 OFFCURVE",
"373 903 CURVE",
"373 834 LINE",
"628 834 LINE",
"628 1228 LINE SMOOTH",
"628 1365 OFFCURVE",
"623 1455 OFFCURVE",
"612 1498 CURVE SMOOTH",
"591 1583 OFFCURVE",
"506 1646 OFFCURVE",
"330 1646 CURVE SMOOTH",
"255 1646 OFFCURVE",
"195 1632 OFFCURVE",
"149 1605 CURVE SMOOTH",
"57 1550 OFFCURVE",
"36 1494 OFFCURVE",
"36 1362 CURVE",
"282 1362 LINE",
"282 1400 LINE SMOOTH"
);
},
{
closed = 1;
nodes = (
"366 1022 OFFCURVE",
"364 999 OFFCURVE",
"359 990 CURVE SMOOTH",
"354 981 OFFCURVE",
"343 977 OFFCURVE",
"326 977 CURVE SMOOTH",
"308 977 OFFCURVE",
"296 982 OFFCURVE",
"291 993 CURVE SMOOTH",
"286 1004 OFFCURVE",
"283 1027 OFFCURVE",
"283 1062 CURVE SMOOTH",
"283 1149 OFFCURVE",
"291 1154 OFFCURVE",
"366 1209 CURVE",
"366 1059 LINE SMOOTH"
);
}
);
width = 665;
}
);
note = ordfeminine;
unicode = 00AA;
},
{
glyphname = ordmasculine;
lastChange = "2017-09-25 17:37:43 +0000";
layers = (
{
layerId = "BBA80624-4CF6-45E1-9846-B55476475641";
paths = (
{
closed = 1;
nodes = (
"638 1413 OFFCURVE",
"629 1467 OFFCURVE",
"611 1507 CURVE SMOOTH",
"575 1586 OFFCURVE",
"480 1646 OFFCURVE",
"328 1646 CURVE SMOOTH",
"153 1646 OFFCURVE",
"36 1573 OFFCURVE",
"36 1328 CURVE SMOOTH",
"36 1131 LINE SMOOTH",
"36 1052 OFFCURVE",
"44 991 OFFCURVE",
"61 949 CURVE SMOOTH",
"94 865 OFFCURVE",
"169 815 OFFCURVE",
"336 815 CURVE SMOOTH",
"415 815 OFFCURVE",
"477 829 OFFCURVE",
"524 858 CURVE SMOOTH",
"617 914 OFFCURVE",
"638 990 OFFCURVE",
"638 1157 CURVE SMOOTH",
"638 1345 LINE SMOOTH"
);
},
{
closed = 1;
nodes = (
"375 979 OFFCURVE",
"371 968 OFFCURVE",
"334 968 CURVE SMOOTH",
"320 968 OFFCURVE",
"311 973 OFFCURVE",
"306 983 CURVE",
"301 992 OFFCURVE",
"299 1015 OFFCURVE",
"299 1052 CURVE SMOOTH",
"299 1405 LINE SMOOTH",
"299 1444 OFFCURVE",
"301 1469 OFFCURVE",
"306 1478 CURVE",
"310 1487 OFFCURVE",
"320 1492 OFFCURVE",
"337 1492 CURVE SMOOTH",
"354 1492 OFFCURVE",
"365 1488 OFFCURVE",
"369 1479 CURVE SMOOTH",
"373 1470 OFFCURVE",
"375 1445 OFFCURVE",
"375 1405 CURVE SMOOTH",
"375 1044 LINE SMOOTH"
);
}
);
width = 675;
}
);
note = ordmasculine;
unicode = 00BA;
},
{
glyphname = Ohm;
lastChange = "2017-09-25 17:37:43 +0000";
layers = (
{
layerId = "BBA80624-4CF6-45E1-9846-B55476475641";
paths = (
{
closed = 1;
nodes = (
"495 400 OFFCURVE",
"434 552 OFFCURVE",
"434 813 CURVE SMOOTH",
"434 927 OFFCURVE",
"447 1017 OFFCURVE",
"473 1084 CURVE SMOOTH",
"525 1216 OFFCURVE",
"641 1309 OFFCURVE",
"786 1309 CURVE SMOOTH",
"970 1309 OFFCURVE",
"1138 1183 OFFCURVE",
"1138 800 CURVE SMOOTH",
"1138 548 OFFCURVE",
"1077 401 OFFCURVE",
"955 359 CURVE",
"921 0 LINE",
"1540 0 LINE",
"1540 377 LINE",
"1504 377 LINE",
"1502 339 OFFCURVE",
"1495 311 OFFCURVE",
"1482 292 CURVE SMOOTH",
"1457 255 OFFCURVE",
"1432 244 OFFCURVE",
"1345 244 CURVE SMOOTH",
"1017 244 LINE",
"1024 313 LINE",
"1359 384 OFFCURVE",
"1490 597 OFFCURVE",
"1490 825 CURVE SMOOTH",
"1490 1133 OFFCURVE",
"1231 1387 OFFCURVE",
"786 1387 CURVE SMOOTH",
"341 1387 OFFCURVE",
"82 1133 OFFCURVE",
"82 825 CURVE SMOOTH",
"82 597 OFFCURVE",
"213 384 OFFCURVE",
"548 313 CURVE",
"555 244 LINE",
"227 244 LINE SMOOTH",
"99 244 OFFCURVE",
"73 285 OFFCURVE",
"68 377 CURVE",
"32 377 LINE",
"32 0 LINE",
"651 0 LINE",
"617 359 LINE"
);
}
);
width = 1573;
}
);
note = Ohm;
unicode = 2126;
},
{
glyphname = ae;
lastChange = "2017-09-25 17:37:43 +0000";
layers = (
{
layerId = "BBA80624-4CF6-45E1-9846-B55476475641";
paths = (
{
closed = 1;
nodes = (
"1482 946 OFFCURVE",
"1467 1047 OFFCURVE",
"1437 1116 CURVE SMOOTH",
"1377 1253 OFFCURVE",
"1224 1351 OFFCURVE",
"1021 1351 CURVE SMOOTH",
"920 1351 OFFCURVE",
"838 1327 OFFCURVE",
"777 1279 CURVE",
"693 1327 OFFCURVE",
"601 1351 OFFCURVE",
"502 1351 CURVE SMOOTH",
"325 1351 OFFCURVE",
"217 1296 OFFCURVE",
"143 1212 CURVE SMOOTH",
"69 1127 OFFCURVE",
"56 1059 OFFCURVE",
"56 912 CURVE SMOOTH",
"56 813 LINE",
"435 813 LINE",
"435 940 LINE SMOOTH",
"435 1019 OFFCURVE",
"438 1068 OFFCURVE",
"445 1087 CURVE",
"451 1106 OFFCURVE",
"465 1116 OFFCURVE",
"486 1116 CURVE SMOOTH",
"508 1116 OFFCURVE",
"523 1104 OFFCURVE",
"531 1081 CURVE SMOOTH",
"539 1058 OFFCURVE",
"543 1016 OFFCURVE",
"543 957 CURVE SMOOTH",
"543 894 OFFCURVE",
"539 854 OFFCURVE",
"532 835 CURVE SMOOTH",
"525 816 OFFCURVE",
"511 800 OFFCURVE",
"492 787 CURVE SMOOTH",
"473 774 OFFCURVE",
"435 759 OFFCURVE",
"380 740 CURVE SMOOTH",
"275 703 OFFCURVE",
"202 672 OFFCURVE",
"159 645 CURVE SMOOTH",
"74 591 OFFCURVE",
"54 548 OFFCURVE",
"54 361 CURVE SMOOTH",
"54 256 OFFCURVE",
"62 181 OFFCURVE",
"77 135 CURVE SMOOTH",
"107 43 OFFCURVE",
"205 -24 OFFCURVE",
"352 -24 CURVE SMOOTH",
"477 -24 OFFCURVE",
"578 27 OFFCURVE",
"651 128 CURVE",
"727 27 OFFCURVE",
"857 -24 OFFCURVE",
"1044 -24 CURVE SMOOTH",
"1145 -24 OFFCURVE",
"1230 -2 OFFCURVE",
"1299 43 CURVE SMOOTH",
"1438 131 OFFCURVE",
"1482 245 OFFCURVE",
"1482 420 CURVE SMOOTH",
"1482 554 LINE",
"1100 554 LINE",
"1100 365 LINE SMOOTH",
"1100 302 OFFCURVE",
"1095 261 OFFCURVE",
"1084 241 CURVE SMOOTH",
"1073 221 OFFCURVE",
"1053 211 OFFCURVE",
"1023 211 CURVE SMOOTH",
"995 211 OFFCURVE",
"977 221 OFFCURVE",
"968 241 CURVE SMOOTH",
"959 260 OFFCURVE",
"955 304 OFFCURVE",
"955 372 CURVE SMOOTH",
"955 640 LINE",
"1482 640 LINE",
"1482 811 LINE SMOOTH"
);
},
{
closed = 1;
nodes = (
"955 976 LINE SMOOTH",
"955 1033 OFFCURVE",
"960 1071 OFFCURVE",
"970 1089 CURVE",
"979 1107 OFFCURVE",
"995 1116 OFFCURVE",
"1017 1116 CURVE SMOOTH",
"1035 1116 OFFCURVE",
"1050 1108 OFFCURVE",
"1061 1093 CURVE SMOOTH",
"1072 1077 OFFCURVE",
"1078 1038 OFFCURVE",
"1078 976 CURVE SMOOTH",
"1078 856 LINE",
"955 856 LINE"
);
},
{
closed = 1;
nodes = (
"550 290 LINE SMOOTH",
"550 238 OFFCURVE",
"532 211 OFFCURVE",
"493 211 CURVE SMOOTH",
"438 211 OFFCURVE",
"421 249 OFFCURVE",
"421 352 CURVE SMOOTH",
"421 517 OFFCURVE",
"448 548 OFFCURVE",
"551 623 CURVE",
"551 409 LINE"
);
}
);
width = 1543;
}
);
note = ae;
unicode = 00E6;
},
{
glyphname = oslash;
lastChange = "2017-09-25 17:37:43 +0000";
layers = (
{
layerId = "BBA80624-4CF6-45E1-9846-B55476475641";
paths = (
{
closed = 1;
nodes = (
"886 1313 LINE",
"845 1251 LINE",
"762 1318 OFFCURVE",
"650 1351 OFFCURVE",
"510 1351 CURVE SMOOTH",
"402 1351 OFFCURVE",
"313 1330 OFFCURVE",
"244 1288 CURVE SMOOTH",
"105 1204 OFFCURVE",
"60 1079 OFFCURVE",
"60 832 CURVE SMOOTH",
"60 492 LINE SMOOTH",
"60 276 OFFCURVE",
"82 209 OFFCURVE",
"127 134 CURVE",
"82 65 LINE",
"161 14 LINE",
"192 61 LINE",
"263 5 OFFCURVE",
"375 -24 OFFCURVE",
"527 -24 CURVE SMOOTH",
"688 -24 OFFCURVE",
"812 21 OFFCURVE",
"891 118 CURVE SMOOTH",
"970 214 OFFCURVE",
"986 297 OFFCURVE",
"986 536 CURVE SMOOTH",
"986 861 LINE SMOOTH",
"986 1050 OFFCURVE",
"964 1110 OFFCURVE",
"912 1181 CURVE",
"964 1262 LINE"
);
},
{
closed = 1;
nodes = (
"464 961 LINE SMOOTH",
"464 1029 OFFCURVE",
"468 1072 OFFCURVE",
"476 1090 CURVE SMOOTH",
"484 1107 OFFCURVE",
"500 1116 OFFCURVE",
"524 1116 CURVE SMOOTH",
"548 1116 OFFCURVE",
"564 1107 OFFCURVE",
"571 1090 CURVE SMOOTH",
"578 1072 OFFCURVE",
"582 1029 OFFCURVE",
"582 961 CURVE SMOOTH",
"582 835 LINE",
"464 655 LINE"
);
},
{
closed = 1;
nodes = (
"582 349 LINE SMOOTH",
"582 292 OFFCURVE",
"578 254 OFFCURVE",
"571 237 CURVE",
"563 220 OFFCURVE",
"547 211 OFFCURVE",
"523 211 CURVE SMOOTH",
"500 211 OFFCURVE",
"484 221 OFFCURVE",
"476 240 CURVE SMOOTH",
"468 259 OFFCURVE",
"464 299 OFFCURVE",
"464 362 CURVE SMOOTH",
"464 481 LINE",
"582 662 LINE"
);
}
);
width = 1047;
}
);
note = oslash;
unicode = 00F8;
},
{
glyphname = questiondown;
lastChange = "2017-09-25 17:37:43 +0000";
layers = (
{
layerId = "BBA80624-4CF6-45E1-9846-B55476475641";
paths = (
{
closed = 1;
nodes = (
"963 1424 LINE",
"586 1424 LINE",
"586 1100 LINE",
"963 1100 LINE"
);
},
{
closed = 1;
nodes = (
"586 134 OFFCURVE",
"582 73 OFFCURVE",
"573 46 CURVE SMOOTH",
"564 19 OFFCURVE",
"545 6 OFFCURVE",
"514 6 CURVE SMOOTH",
"489 6 OFFCURVE",
"473 16 OFFCURVE",
"465 37 CURVE",
"456 57 OFFCURVE",
"452 96 OFFCURVE",
"452 155 CURVE SMOOTH",
"452 425 LINE SMOOTH",
"452 530 OFFCURVE",
"457 597 OFFCURVE",
"466 624 CURVE SMOOTH",
"475 651 OFFCURVE",
"496 664 OFFCURVE",
"529 664 CURVE SMOOTH",
"572 664 OFFCURVE",
"594 633 OFFCURVE",
"595 571 CURVE",
"963 571 LINE",
"963 1016 LINE",
"586 1016 LINE",
"586 843 LINE",
"542 919 OFFCURVE",
"469 957 OFFCURVE",
"367 957 CURVE SMOOTH",
"292 957 OFFCURVE",
"226 936 OFFCURVE",
"170 895 CURVE SMOOTH",
"58 812 OFFCURVE",
"36 715 OFFCURVE",
"36 534 CURVE SMOOTH",
"36 336 LINE SMOOTH",
"36 101 OFFCURVE",
"69 18 OFFCURVE",
"144 -77 CURVE SMOOTH",
"219 -173 OFFCURVE",
"348 -229 OFFCURVE",
"517 -229 CURVE SMOOTH",
"634 -229 OFFCURVE",
"731 -205 OFFCURVE",
"807 -156 CURVE SMOOTH",
"958 -59 OFFCURVE",
"987 43 OFFCURVE",
"990 327 CURVE",
"586 327 LINE",
"586 229 LINE SMOOTH"
);
}
);
width = 1075;
}
);
note = questiondown;
unicode = 00BF;
},
{
glyphname = exclamdown;
lastChange = "2017-09-25 17:37:43 +0000";
layers = (
{
layerId = "BBA80624-4CF6-45E1-9846-B55476475641";
paths = (
{
closed = 1;
nodes = (
"447 1424 LINE",
"69 1424 LINE",
"69 1100 LINE",
"447 1100 LINE"
);
},
{
closed = 1;
nodes = (
"414 1024 LINE",
"102 1024 LINE",
"36 -195 LINE",
"480 -195 LINE"
);
}
);
width = 553;
}
);
note = exclamdown;
unicode = 00A1;
},
{
glyphname = logicalnot;
lastChange = "2017-09-25 17:37:43 +0000";
layers = (
{
layerId = "BBA80624-4CF6-45E1-9846-B55476475641";
paths = (
{
closed = 1;
nodes = (
"784 881 LINE",
"784 492 LINE",
"1028 492 LINE",
"1028 1126 LINE",
"64 1126 LINE",
"64 881 LINE"
);
}
);
width = 1092;
}
);
note = logicalnot;
unicode = 00AC;
},
{
glyphname = radical;
lastChange = "2017-09-25 17:37:43 +0000";
layers = (
{
layerId = "BBA80624-4CF6-45E1-9846-B55476475641";
paths = (
{
closed = 1;
nodes = (
"385 1067 LINE",
"84 916 LINE",
"118 852 LINE",
"316 943 LINE",
"812 -78 LINE",
"1124 1869 LINE",
"1050 1869 LINE",
"790 244 LINE"
);
}
);
width = 1124;
}
);
note = radical;
unicode = 221A;
},
{
glyphname = florin;
lastChange = "2017-09-25 17:37:43 +0000";
layers = (
{
layerId = "BBA80624-4CF6-45E1-9846-B55476475641";
paths = (
{
closed = 1;
nodes = (
"514 1650 OFFCURVE",
"467 1618 OFFCURVE",
"413 1550 CURVE SMOOTH",
"386 1516 OFFCURVE",
"360 1438 OFFCURVE",
"337 1316 CURVE SMOOTH",
"277 1004 LINE",
"133 1004 LINE",
"88 761 LINE",
"227 761 LINE",
"88 67 LINE SMOOTH",
"71 -21 OFFCURVE",
"76 -16 OFFCURVE",
"-5 -16 CURVE",
"-48 -229 LINE",
"133 -229 LINE SMOOTH",
"406 -229 OFFCURVE",
"468 -167 OFFCURVE",
"519 88 CURVE SMOOTH",
"652 761 LINE",
"799 761 LINE",
"847 1004 LINE",
"699 1004 LINE",
"767 1347 LINE SMOOTH",
"772 1370 OFFCURVE",
"775 1384 OFFCURVE",
"776 1389 CURVE SMOOTH",
"785 1442 OFFCURVE",
"790 1438 OFFCURVE",
"866 1438 CURVE",
"908 1650 LINE",
"694 1650 LINE SMOOTH"
);
}
);
width = 908;
}
);
note = florin;
unicode = 0192;
},
{
glyphname = approxequal;
lastChange = "2017-09-25 17:37:43 +0000";
layers = (
{
layerId = "BBA80624-4CF6-45E1-9846-B55476475641";
paths = (
{
closed = 1;
nodes = (
"903 1150 OFFCURVE",
"812 1096 OFFCURVE",
"747 1096 CURVE SMOOTH",
"713 1096 OFFCURVE",
"657 1115 OFFCURVE",
"578 1153 CURVE SMOOTH",
"481 1200 OFFCURVE",
"404 1224 OFFCURVE",
"347 1224 CURVE SMOOTH",
"250 1224 OFFCURVE",
"153 1181 OFFCURVE",
"57 1094 CURVE",
"57 816 LINE",
"128 882 OFFCURVE",
"183 926 OFFCURVE",
"221 948 CURVE SMOOTH",
"259 969 OFFCURVE",
"297 980 OFFCURVE",
"335 980 CURVE SMOOTH",
"366 980 OFFCURVE",
"414 965 OFFCURVE",
"478 934 CURVE SMOOTH",
"627 861 OFFCURVE",
"669 851 OFFCURVE",
"740 851 CURVE SMOOTH",
"822 851 OFFCURVE",
"915 895 OFFCURVE",
"1018 982 CURVE",
"1018 1258 LINE"
);
},
{
closed = 1;
nodes = (
"903 764 OFFCURVE",
"812 710 OFFCURVE",
"747 710 CURVE SMOOTH",
"713 710 OFFCURVE",
"657 729 OFFCURVE",
"578 767 CURVE SMOOTH",
"481 814 OFFCURVE",
"404 837 OFFCURVE",
"347 837 CURVE SMOOTH",
"250 837 OFFCURVE",
"153 794 OFFCURVE",
"57 708 CURVE",
"57 430 LINE",
"130 501 OFFCURVE",
"186 546 OFFCURVE",
"227 565 CURVE SMOOTH",
"267 584 OFFCURVE",
"303 594 OFFCURVE",
"335 594 CURVE SMOOTH",
"366 594 OFFCURVE",
"414 578 OFFCURVE",
"478 547 CURVE SMOOTH",
"627 475 OFFCURVE",
"669 465 OFFCURVE",
"740 465 CURVE SMOOTH",
"818 465 OFFCURVE",
"906 505 OFFCURVE",
"1004 585 CURVE SMOOTH",
"1018 596 LINE",
"1018 872 LINE"
);
}
);
width = 1075;
}
);
note = approxequal;
unicode = 2248;
},
{
glyphname = Delta;
lastChange = "2017-09-25 17:37:43 +0000";
layers = (
{
layerId = "BBA80624-4CF6-45E1-9846-B55476475641";
paths = (
{
closed = 1;
nodes = (
"29 0 LINE",
"1229 0 LINE",
"657 1387 LINE"
);
},
{
closed = 1;
nodes = (
"594 1049 LINE",
"993 82 LINE",
"154 82 LINE"
);
}
);
width = 1259;
}
);
note = Delta;
unicode = 2206;
},
{
glyphname = guillemotleft;
lastChange = "2017-09-25 17:37:43 +0000";
layers = (
{
layerId = "BBA80624-4CF6-45E1-9846-B55476475641";
paths = (
{
closed = 1;
nodes = (
"120 124 LINE",
"357 124 LINE",
"273 695 LINE",
"357 1238 LINE",
"120 1238 LINE",
"36 695 LINE"
);
},
{
closed = 1;
nodes = (
"487 124 LINE",
"724 124 LINE",
"639 695 LINE",
"724 1238 LINE",
"487 1238 LINE",
"402 695 LINE"
);
}
);
width = 760;
}
);
note = guillemotleft;
unicode = 00AB;
},
{
glyphname = guillemotright;
lastChange = "2017-09-25 17:37:43 +0000";
layers = (
{
layerId = "BBA80624-4CF6-45E1-9846-B55476475641";
paths = (
{
closed = 1;
nodes = (
"487 695 LINE",
"402 124 LINE",
"639 124 LINE",
"724 695 LINE",
"639 1238 LINE",
"402 1238 LINE"
);
},
{
closed = 1;
nodes = (
"120 695 LINE",
"36 124 LINE",
"273 124 LINE",
"357 695 LINE",
"273 1238 LINE",
"36 1238 LINE"
);
}
);
width = 760;
}
);
note = guillemotright;
unicode = 00BB;
},
{
glyphname = ellipsis;
lastChange = "2017-09-25 17:37:43 +0000";
layers = (
{
layerId = "BBA80624-4CF6-45E1-9846-B55476475641";
paths = (
{
closed = 1;
nodes = (
"36 0 LINE",
"341 0 LINE",
"341 330 LINE",
"36 330 LINE"
);
},
{
closed = 1;
nodes = (
"792 0 LINE",
"1097 0 LINE",
"1097 330 LINE",
"792 330 LINE"
);
},
{
closed = 1;
nodes = (
"414 0 LINE",
"719 0 LINE",
"719 330 LINE",
"414 330 LINE"
);
}
);
width = 1133;
}
);
note = ellipsis;
unicode = 2026;
},
{
glyphname = OE;
lastChange = "2017-09-25 17:37:43 +0000";
layers = (
{
layerId = "BBA80624-4CF6-45E1-9846-B55476475641";
paths = (
{
closed = 1;
nodes = (
"675 1630 OFFCURVE",
"613 1636 OFFCURVE",
"558 1636 CURVE SMOOTH",
"366 1636 OFFCURVE",
"235 1574 OFFCURVE",
"158 1478 CURVE SMOOTH",
"81 1381 OFFCURVE",
"72 1297 OFFCURVE",
"72 1057 CURVE SMOOTH",
"72 528 LINE SMOOTH",
"72 308 OFFCURVE",
"88 235 OFFCURVE",
"157 143 CURVE SMOOTH",
"226 51 OFFCURVE",
"380 -17 OFFCURVE",
"551 -17 CURVE SMOOTH",
"586 -17 OFFCURVE",
"649 -11 OFFCURVE",
"740 0 CURVE",
"1373 0 LINE",
"1373 324 LINE",
"1055 324 LINE",
"1055 680 LINE",
"1326 680 LINE",
"1326 988 LINE",
"1055 988 LINE",
"1055 1295 LINE",
"1339 1295 LINE",
"1339 1619 LINE",
"743 1619 LINE"
);
},
{
closed = 1;
nodes = (
"634 396 OFFCURVE",
"629 329 OFFCURVE",
"620 300 CURVE SMOOTH",
"611 271 OFFCURVE",
"591 257 OFFCURVE",
"560 257 CURVE SMOOTH",
"529 257 OFFCURVE",
"511 270 OFFCURVE",
"504 295 CURVE SMOOTH",
"497 320 OFFCURVE",
"493 396 OFFCURVE",
"493 521 CURVE SMOOTH",
"493 1170 LINE",
"494 1243 LINE SMOOTH",
"494 1331 OFFCURVE",
"506 1362 OFFCURVE",
"561 1362 CURVE SMOOTH",
"608 1362 OFFCURVE",
"631 1323 OFFCURVE",
"631 1245 CURVE SMOOTH",
"631 1234 OFFCURVE",
"632 1213 OFFCURVE",
"633 1184 CURVE SMOOTH",
"634 1168 OFFCURVE",
"634 1143 OFFCURVE",
"634 1110 CURVE SMOOTH",
"634 502 LINE SMOOTH"
);
}
);
width = 1410;
}
);
note = OE;
unicode = 0152;
},
{
glyphname = oe;
lastChange = "2017-09-25 17:37:43 +0000";
layers = (
{
layerId = "BBA80624-4CF6-45E1-9846-B55476475641";
paths = (
{
closed = 1;
nodes = (
"1506 944 OFFCURVE",
"1493 1036 OFFCURVE",
"1468 1108 CURVE SMOOTH",
"1417 1252 OFFCURVE",
"1231 1351 OFFCURVE",
"1043 1351 CURVE SMOOTH",
"939 1351 OFFCURVE",
"851 1324 OFFCURVE",
"782 1271 CURVE",
"702 1324 OFFCURVE",
"610 1351 OFFCURVE",
"509 1351 CURVE SMOOTH",
"395 1351 OFFCURVE",
"301 1324 OFFCURVE",
"227 1271 CURVE SMOOTH",
"78 1163 OFFCURVE",
"60 1070 OFFCURVE",
"60 785 CURVE SMOOTH",
"60 495 LINE SMOOTH",
"60 276 OFFCURVE",
"71 215 OFFCURVE",
"141 128 CURVE SMOOTH",
"211 40 OFFCURVE",
"344 -24 OFFCURVE",
"525 -24 CURVE SMOOTH",
"624 -24 OFFCURVE",
"709 -3 OFFCURVE",
"782 38 CURVE",
"859 -3 OFFCURVE",
"950 -24 OFFCURVE",
"1055 -24 CURVE SMOOTH",
"1154 -24 OFFCURVE",
"1240 -2 OFFCURVE",
"1313 42 CURVE SMOOTH",
"1458 130 OFFCURVE",
"1506 243 OFFCURVE",
"1506 423 CURVE SMOOTH",
"1506 554 LINE",
"1124 554 LINE",
"1124 390 LINE SMOOTH",
"1124 327 OFFCURVE",
"1118 281 OFFCURVE",
"1107 253 CURVE SMOOTH",
"1096 225 OFFCURVE",
"1076 211 OFFCURVE",
"1047 211 CURVE SMOOTH",
"1023 211 OFFCURVE",
"1007 219 OFFCURVE",
"999 236 CURVE",
"990 253 OFFCURVE",
"986 288 OFFCURVE",
"986 343 CURVE SMOOTH",
"986 640 LINE",
"1506 640 LINE",
"1506 831 LINE SMOOTH"
);
},
{
closed = 1;
nodes = (
"582 303 OFFCURVE",
"578 259 OFFCURVE",
"570 240 CURVE SMOOTH",
"562 221 OFFCURVE",
"546 211 OFFCURVE",
"521 211 CURVE SMOOTH",
"495 211 OFFCURVE",
"479 220 OFFCURVE",
"473 237 CURVE SMOOTH",
"467 254 OFFCURVE",
"464 304 OFFCURVE",
"464 387 CURVE SMOOTH",
"464 965 LINE SMOOTH",
"464 1027 OFFCURVE",
"468 1068 OFFCURVE",
"476 1087 CURVE",
"483 1106 OFFCURVE",
"498 1116 OFFCURVE",
"521 1116 CURVE SMOOTH",
"547 1116 OFFCURVE",
"564 1106 OFFCURVE",
"571 1085 CURVE SMOOTH",
"578 1064 OFFCURVE",
"582 1011 OFFCURVE",
"582 925 CURVE SMOOTH",
"582 373 LINE SMOOTH"
);
},
{
closed = 1;
nodes = (
"986 997 LINE SMOOTH",
"986 1046 OFFCURVE",
"990 1079 OFFCURVE",
"998 1094 CURVE SMOOTH",
"1006 1109 OFFCURVE",
"1021 1116 OFFCURVE",
"1043 1116 CURVE SMOOTH",
"1058 1116 OFFCURVE",
"1071 1110 OFFCURVE",
"1084 1099 CURVE",
"1096 1088 OFFCURVE",
"1102 1054 OFFCURVE",
"1102 997 CURVE SMOOTH",
"1102 855 LINE",
"986 855 LINE"
);
}
);
width = 1567;
}
);
note = oe;
unicode = 0153;
},
{
glyphname = endash;
lastChange = "2017-09-25 17:37:43 +0000";
layers = (
{
layerId = "BBA80624-4CF6-45E1-9846-B55476475641";
paths = (
{
closed = 1;
nodes = (
"1036 539 LINE",
"1036 788 LINE",
"-12 788 LINE",
"-12 539 LINE"
);
}
);
width = 1024;
}
);
note = endash;
unicode = 2013;
},
{
glyphname = emdash;
lastChange = "2017-09-25 17:37:43 +0000";
layers = (
{
layerId = "BBA80624-4CF6-45E1-9846-B55476475641";
paths = (
{
closed = 1;
nodes = (
"2060 539 LINE",
"2060 788 LINE",
"-12 788 LINE",
"-12 539 LINE"
);
}
);
width = 2048;
}
);
note = emdash;
unicode = 2014;
},
{
glyphname = quotedblleft;
lastChange = "2017-09-25 17:37:43 +0000";
layers = (
{
layerId = "BBA80624-4CF6-45E1-9846-B55476475641";
paths = (
{
closed = 1;
nodes = (
"669 1412 LINE",
"602 1412 LINE",
"607 1450 OFFCURVE",
"630 1480 OFFCURVE",
"669 1503 CURVE",
"669 1619 LINE",
"613 1608 OFFCURVE",
"563 1585 OFFCURVE",
"519 1551 CURVE SMOOTH",
"431 1483 OFFCURVE",
"398 1392 OFFCURVE",
"398 1240 CURVE SMOOTH",
"398 1095 LINE",
"669 1095 LINE"
);
},
{
closed = 1;
nodes = (
"307 1412 LINE",
"240 1412 LINE",
"245 1450 OFFCURVE",
"268 1480 OFFCURVE",
"307 1503 CURVE",
"307 1619 LINE",
"252 1608 OFFCURVE",
"202 1585 OFFCURVE",
"158 1551 CURVE SMOOTH",
"69 1483 OFFCURVE",
"36 1392 OFFCURVE",
"36 1240 CURVE SMOOTH",
"36 1095 LINE",
"307 1095 LINE"
);
}
);
width = 706;
}
);
note = quotedblleft;
unicode = 201C;
},
{
glyphname = quotedblright;
lastChange = "2017-09-25 17:37:43 +0000";
layers = (
{
layerId = "BBA80624-4CF6-45E1-9846-B55476475641";
paths = (
{
closed = 1;
nodes = (
"398 1302 LINE",
"465 1302 LINE",
"460 1264 OFFCURVE",
"437 1234 OFFCURVE",
"398 1212 CURVE",
"398 1095 LINE",
"454 1107 OFFCURVE",
"504 1130 OFFCURVE",
"549 1164 CURVE SMOOTH",
"637 1231 OFFCURVE",
"669 1323 OFFCURVE",
"669 1474 CURVE SMOOTH",
"669 1619 LINE",
"398 1619 LINE"
);
},
{
closed = 1;
nodes = (
"36 1302 LINE",
"104 1302 LINE",
"99 1264 OFFCURVE",
"76 1234 OFFCURVE",
"36 1212 CURVE",
"36 1095 LINE",
"92 1107 OFFCURVE",
"142 1130 OFFCURVE",
"187 1164 CURVE SMOOTH",
"275 1231 OFFCURVE",
"307 1323 OFFCURVE",
"307 1474 CURVE SMOOTH",
"307 1619 LINE",
"36 1619 LINE"
);
}
);
width = 706;
}
);
note = quotedblright;
unicode = 201D;
},
{
glyphname = quoteleft;
lastChange = "2017-09-25 17:37:43 +0000";
layers = (
{
layerId = "BBA80624-4CF6-45E1-9846-B55476475641";
paths = (
{
closed = 1;
nodes = (
"307 1412 LINE",
"240 1412 LINE",
"245 1450 OFFCURVE",
"268 1480 OFFCURVE",
"307 1503 CURVE",
"307 1619 LINE",
"252 1608 OFFCURVE",
"202 1585 OFFCURVE",
"158 1551 CURVE SMOOTH",
"69 1483 OFFCURVE",
"36 1392 OFFCURVE",
"36 1240 CURVE SMOOTH",
"36 1095 LINE",
"307 1095 LINE"
);
}
);
width = 344;
}
);
note = quoteleft;
unicode = 2018;
},
{
glyphname = quoteright;
lastChange = "2017-09-25 17:37:43 +0000";
layers = (
{
layerId = "BBA80624-4CF6-45E1-9846-B55476475641";
paths = (
{
closed = 1;
nodes = (
"36 1302 LINE",
"104 1302 LINE",
"99 1264 OFFCURVE",
"76 1234 OFFCURVE",
"36 1212 CURVE",
"36 1095 LINE",
"92 1107 OFFCURVE",
"142 1130 OFFCURVE",
"187 1164 CURVE SMOOTH",
"275 1231 OFFCURVE",
"307 1323 OFFCURVE",
"307 1474 CURVE SMOOTH",
"307 1619 LINE",
"36 1619 LINE"
);
}
);
width = 344;
}
);
note = quoteright;
unicode = 2019;
},
{
glyphname = divide;
lastChange = "2017-09-25 17:37:43 +0000";
layers = (
{
layerId = "BBA80624-4CF6-45E1-9846-B55476475641";
paths = (
{
closed = 1;
nodes = (
"404 1072 OFFCURVE",
"464 1006 OFFCURVE",
"543 1006 CURVE SMOOTH",
"619 1006 OFFCURVE",
"682 1069 OFFCURVE",
"682 1145 CURVE SMOOTH",
"682 1220 OFFCURVE",
"619 1283 OFFCURVE",
"543 1283 CURVE SMOOTH",
"468 1283 OFFCURVE",
"404 1223 OFFCURVE",
"404 1144 CURVE SMOOTH"
);
},
{
closed = 1;
nodes = (
"1028 691 LINE",
"1028 927 LINE",
"64 927 LINE",
"64 691 LINE"
);
},
{
closed = 1;
nodes = (
"404 407 OFFCURVE",
"465 340 OFFCURVE",
"544 340 CURVE SMOOTH",
"621 340 OFFCURVE",
"684 403 OFFCURVE",
"684 479 CURVE SMOOTH",
"684 558 OFFCURVE",
"620 619 OFFCURVE",
"544 619 CURVE SMOOTH",
"469 619 OFFCURVE",
"404 560 OFFCURVE",
"404 476 CURVE SMOOTH"
);
}
);
width = 1092;
}
);
note = divide;
unicode = 00F7;
},
{
glyphname = lozenge;
lastChange = "2017-09-25 17:37:43 +0000";
layers = (
{
layerId = "BBA80624-4CF6-45E1-9846-B55476475641";
paths = (
{
closed = 1;
nodes = (
"46 709 LINE",
"437 0 LINE",
"548 0 LINE",
"966 709 LINE",
"548 1422 LINE",
"437 1422 LINE"
);
},
{
closed = 1;
nodes = (
"494 94 LINE",
"154 709 LINE",
"494 1325 LINE",
"853 709 LINE"
);
}
);
width = 1012;
}
);
note = lozenge;
unicode = 25CA;
},
{
glyphname = fraction;
lastChange = "2017-09-25 17:37:43 +0000";
layers = (
{
layerId = "BBA80624-4CF6-45E1-9846-B55476475641";
paths = (
{
closed = 1;
nodes = (
"-265 -31 LINE",
"-111 -31 LINE",
"521 1650 LINE",
"370 1650 LINE"
);
}
);
width = 256;
}
);
note = fraction;
unicode = 2215;
},
{
glyphname = Euro;
lastChange = "2017-09-25 17:37:43 +0000";
layers = (
{
layerId = "BBA80624-4CF6-45E1-9846-B55476475641";
paths = (
{
closed = 1;
nodes = (
"457 1241 OFFCURVE",
"459 1281 OFFCURVE",
"462 1304 CURVE SMOOTH",
"469 1348 OFFCURVE",
"504 1378 OFFCURVE",
"563 1378 CURVE SMOOTH",
"614 1378 OFFCURVE",
"635 1359 OFFCURVE",
"640 1324 CURVE SMOOTH",
"643 1306 OFFCURVE",
"645 1263 OFFCURVE",
"647 1194 CURVE SMOOTH",
"647 1063 LINE",
"1020 1063 LINE",
"1020 1116 LINE SMOOTH",
"1020 1272 OFFCURVE",
"1000 1385 OFFCURVE",
"961 1455 CURVE SMOOTH",
"882 1594 OFFCURVE",
"734 1653 OFFCURVE",
"561 1653 CURVE SMOOTH",
"386 1653 OFFCURVE",
"241 1589 OFFCURVE",
"160 1484 CURVE SMOOTH",
"79 1379 OFFCURVE",
"72 1273 OFFCURVE",
"72 1065 CURVE SMOOTH",
"72 1036 LINE",
"-25 1036 LINE",
"-25 864 LINE",
"72 864 LINE",
"72 784 LINE",
"-25 784 LINE",
"-25 612 LINE",
"72 612 LINE",
"72 569 LINE SMOOTH",
"72 328 OFFCURVE",
"86 233 OFFCURVE",
"159 132 CURVE SMOOTH",
"232 31 OFFCURVE",
"377 -35 OFFCURVE",
"549 -35 CURVE SMOOTH",
"656 -35 OFFCURVE",
"748 -13 OFFCURVE",
"823 30 CURVE SMOOTH",
"974 117 OFFCURVE",
"1020 235 OFFCURVE",
"1020 535 CURVE SMOOTH",
"1020 598 LINE",
"647 598 LINE",
"647 444 LINE SMOOTH",
"647 376 OFFCURVE",
"645 331 OFFCURVE",
"641 309 CURVE SMOOTH",
"632 264 OFFCURVE",
"593 240 OFFCURVE",
"553 240 CURVE SMOOTH",
"505 240 OFFCURVE",
"471 273 OFFCURVE",
"463 314 CURVE SMOOTH",
"459 335 OFFCURVE",
"457 373 OFFCURVE",
"457 430 CURVE SMOOTH",
"457 612 LINE",
"571 612 LINE",
"571 784 LINE",
"457 784 LINE",
"457 864 LINE",
"571 864 LINE",
"571 1036 LINE",
"457 1036 LINE",
"457 1182 LINE SMOOTH"
);
}
);
width = 1087;
}
);
note = Euro;
unicode = 20AC;
},
{
glyphname = guilsinglleft;
lastChange = "2017-09-25 17:37:43 +0000";
layers = (
{
layerId = "BBA80624-4CF6-45E1-9846-B55476475641";
paths = (
{
closed = 1;
nodes = (
"123 104 LINE",
"368 104 LINE",
"281 696 LINE",
"368 1257 LINE",
"123 1257 LINE",
"36 696 LINE"
);
}
);
width = 405;
}
);
note = guilsinglleft;
unicode = 2039;
},
{
glyphname = guilsinglright;
lastChange = "2017-09-25 17:37:43 +0000";
layers = (
{
layerId = "BBA80624-4CF6-45E1-9846-B55476475641";
paths = (
{
closed = 1;
nodes = (
"123 696 LINE",
"36 104 LINE",
"281 104 LINE",
"368 696 LINE",
"281 1257 LINE",
"36 1257 LINE"
);
}
);
width = 405;
}
);
note = guilsinglright;
unicode = 203A;
},
{
glyphname = fi;
lastChange = "2017-09-25 17:37:43 +0000";
layers = (
{
layerId = "BBA80624-4CF6-45E1-9846-B55476475641";
paths = (
{
closed = 1;
nodes = (
"659 1408 LINE",
"1075 1408 LINE",
"1075 1619 LINE",
"659 1619 LINE"
);
},
{
closed = 1;
nodes = (
"349 1619 OFFCURVE",
"283 1613 OFFCURVE",
"240 1601 CURVE SMOOTH",
"155 1577 OFFCURVE",
"108 1529 OFFCURVE",
"96 1470 CURVE SMOOTH",
"90 1441 OFFCURVE",
"87 1382 OFFCURVE",
"87 1295 CURVE",
"4 1295 LINE",
"4 1085 LINE",
"87 1085 LINE",
"87 0 LINE",
"491 0 LINE",
"491 1085 LINE",
"587 1085 LINE",
"587 1295 LINE",
"417 1295 LINE",
"417 1337 LINE SMOOTH",
"417 1373 OFFCURVE",
"425 1395 OFFCURVE",
"440 1403 CURVE",
"455 1410 OFFCURVE",
"504 1414 OFFCURVE",
"587 1414 CURVE",
"587 1619 LINE",
"439 1619 LINE SMOOTH"
);
},
{
closed = 1;
nodes = (
"659 0 LINE",
"1075 0 LINE",
"1075 1327 LINE",
"659 1327 LINE"
);
}
);
width = 1148;
}
);
note = fi;
unicode = FB01;
},
{
glyphname = fl;
lastChange = "2017-09-25 17:37:43 +0000";
layers = (
{
layerId = "BBA80624-4CF6-45E1-9846-B55476475641";
paths = (
{
closed = 1;
nodes = (
"349 1619 OFFCURVE",
"283 1613 OFFCURVE",
"240 1601 CURVE SMOOTH",
"155 1577 OFFCURVE",
"108 1529 OFFCURVE",
"96 1470 CURVE SMOOTH",
"90 1441 OFFCURVE",
"87 1382 OFFCURVE",
"87 1295 CURVE",
"4 1295 LINE",
"4 1085 LINE",
"87 1085 LINE",
"87 0 LINE",
"491 0 LINE",
"491 1085 LINE",
"587 1085 LINE",
"587 1295 LINE",
"417 1295 LINE",
"417 1337 LINE SMOOTH",
"417 1373 OFFCURVE",
"425 1395 OFFCURVE",
"440 1403 CURVE",
"455 1410 OFFCURVE",
"504 1414 OFFCURVE",
"587 1414 CURVE",
"587 1619 LINE",
"439 1619 LINE SMOOTH"
);
},
{
closed = 1;
nodes = (
"656 0 LINE",
"1072 0 LINE",
"1072 1619 LINE",
"656 1619 LINE"
);
}
);
width = 1145;
}
);
note = fl;
unicode = FB02;
},
{
glyphname = daggerdbl;
lastChange = "2017-09-25 17:37:43 +0000";
layers = (
{
layerId = "BBA80624-4CF6-45E1-9846-B55476475641";
paths = (
{
closed = 1;
nodes = (
"36 1244 LINE",
"36 864 LINE",
"334 864 LINE",
"334 566 LINE",
"36 566 LINE",
"36 185 LINE",
"334 185 LINE",
"334 -189 LINE",
"778 -189 LINE",
"778 185 LINE",
"1076 185 LINE",
"1076 566 LINE",
"778 566 LINE",
"778 864 LINE",
"1076 864 LINE",
"1076 1244 LINE",
"778 1244 LINE",
"778 1619 LINE",
"334 1619 LINE",
"334 1244 LINE"
);
}
);
width = 1113;
}
);
note = daggerdbl;
unicode = 2021;
},
{
glyphname = periodcentered;
lastChange = "2017-09-25 17:37:43 +0000";
layers = (
{
layerId = "BBA80624-4CF6-45E1-9846-B55476475641";
paths = (
{
closed = 1;
nodes = (
"72 642 LINE",
"377 642 LINE",
"377 972 LINE",
"72 972 LINE"
);
}
);
width = 450;
}
);
note = periodcentered;
unicode = 2219;
},
{
glyphname = quotesinglbase;
lastChange = "2017-09-25 17:37:43 +0000";
layers = (
{
layerId = "BBA80624-4CF6-45E1-9846-B55476475641";
paths = (
{
closed = 1;
nodes = (
"36 0 LINE",
"104 0 LINE",
"99 -38 OFFCURVE",
"76 -68 OFFCURVE",
"36 -91 CURVE",
"36 -207 LINE",
"92 -196 OFFCURVE",
"142 -173 OFFCURVE",
"187 -139 CURVE SMOOTH",
"275 -71 OFFCURVE",
"307 20 OFFCURVE",
"307 172 CURVE SMOOTH",
"307 317 LINE",
"36 317 LINE"
);
}
);
width = 344;
}
);
note = quotesinglbase;
unicode = 201A;
},
{
glyphname = quotedblbase;
lastChange = "2017-09-25 17:37:43 +0000";
layers = (
{
layerId = "BBA80624-4CF6-45E1-9846-B55476475641";
paths = (
{
closed = 1;
nodes = (
"398 0 LINE",
"465 0 LINE",
"460 -38 OFFCURVE",
"437 -68 OFFCURVE",
"398 -91 CURVE",
"398 -207 LINE",
"454 -196 OFFCURVE",
"504 -173 OFFCURVE",
"549 -139 CURVE SMOOTH",
"637 -71 OFFCURVE",
"669 20 OFFCURVE",
"669 172 CURVE SMOOTH",
"669 317 LINE",
"398 317 LINE"
);
},
{
closed = 1;
nodes = (
"36 0 LINE",
"104 0 LINE",
"99 -38 OFFCURVE",
"76 -68 OFFCURVE",
"36 -91 CURVE",
"36 -207 LINE",
"92 -196 OFFCURVE",
"142 -173 OFFCURVE",
"187 -139 CURVE SMOOTH",
"275 -71 OFFCURVE",
"307 20 OFFCURVE",
"307 172 CURVE SMOOTH",
"307 317 LINE",
"36 317 LINE"
);
}
);
width = 706;
}
);
note = quotedblbase;
unicode = 201E;
},
{
glyphname = perthousand;
lastChange = "2017-09-25 17:37:43 +0000";
layers = (
{
layerId = "BBA80624-4CF6-45E1-9846-B55476475641";
paths = (
{
closed = 1;
nodes = (
"316 -31 LINE",
"470 -31 LINE",
"1103 1650 LINE",
"951 1650 LINE"
);
},
{
closed = 1;
nodes = (
"632 1420 OFFCURVE",
"624 1478 OFFCURVE",
"608 1515 CURVE SMOOTH",
"576 1590 OFFCURVE",
"480 1650 OFFCURVE",
"328 1650 CURVE SMOOTH",
"259 1650 OFFCURVE",
"202 1638 OFFCURVE",
"155 1614 CURVE SMOOTH",
"62 1566 OFFCURVE",
"36 1503 OFFCURVE",
"36 1343 CURVE SMOOTH",
"36 1052 LINE SMOOTH",
"36 985 OFFCURVE",
"44 933 OFFCURVE",
"60 897 CURVE SMOOTH",
"91 825 OFFCURVE",
"174 766 OFFCURVE",
"345 766 CURVE SMOOTH",
"419 766 OFFCURVE",
"479 780 OFFCURVE",
"524 807 CURVE SMOOTH",
"614 861 OFFCURVE",
"632 920 OFFCURVE",
"632 1065 CURVE SMOOTH",
"632 1343 LINE SMOOTH"
);
},
{
closed = 1;
nodes = (
"376 960 OFFCURVE",
"374 935 OFFCURVE",
"369 924 CURVE SMOOTH",
"364 913 OFFCURVE",
"352 908 OFFCURVE",
"335 908 CURVE SMOOTH",
"315 908 OFFCURVE",
"303 913 OFFCURVE",
"298 922 CURVE SMOOTH",
"293 931 OFFCURVE",
"291 959 OFFCURVE",
"291 1006 CURVE SMOOTH",
"291 1414 LINE SMOOTH",
"291 1455 OFFCURVE",
"294 1481 OFFCURVE",
"299 1492 CURVE SMOOTH",
"304 1503 OFFCURVE",
"316 1508 OFFCURVE",
"334 1508 CURVE SMOOTH",
"353 1508 OFFCURVE",
"365 1503 OFFCURVE",
"370 1493 CURVE",
"374 1483 OFFCURVE",
"376 1457 OFFCURVE",
"376 1414 CURVE SMOOTH",
"376 999 LINE SMOOTH"
);
},
{
closed = 1;
nodes = (
"1383 638 OFFCURVE",
"1375 695 OFFCURVE",
"1360 732 CURVE SMOOTH",
"1328 807 OFFCURVE",
"1232 868 OFFCURVE",
"1079 868 CURVE SMOOTH",
"1010 868 OFFCURVE",
"953 856 OFFCURVE",
"906 832 CURVE SMOOTH",
"813 783 OFFCURVE",
"787 720 OFFCURVE",
"787 561 CURVE SMOOTH",
"787 269 LINE SMOOTH",
"787 202 OFFCURVE",
"795 151 OFFCURVE",
"811 115 CURVE SMOOTH",
"842 43 OFFCURVE",
"927 -17 OFFCURVE",
"1096 -17 CURVE SMOOTH",
"1170 -17 OFFCURVE",
"1230 -3 OFFCURVE",
"1275 24 CURVE SMOOTH",
"1365 78 OFFCURVE",
"1383 138 OFFCURVE",
"1383 282 CURVE SMOOTH",
"1383 561 LINE SMOOTH"
);
},
{
closed = 1;
nodes = (
"1127 177 OFFCURVE",
"1125 152 OFFCURVE",
"1120 142 CURVE",
"1115 131 OFFCURVE",
"1104 126 OFFCURVE",
"1086 126 CURVE SMOOTH",
"1067 126 OFFCURVE",
"1055 131 OFFCURVE",
"1050 140 CURVE SMOOTH",
"1045 149 OFFCURVE",
"1043 177 OFFCURVE",
"1043 223 CURVE SMOOTH",
"1043 631 LINE SMOOTH",
"1043 673 OFFCURVE",
"1046 699 OFFCURVE",
"1051 710 CURVE SMOOTH",
"1056 721 OFFCURVE",
"1067 726 OFFCURVE",
"1085 726 CURVE SMOOTH",
"1104 726 OFFCURVE",
"1116 721 OFFCURVE",
"1121 711 CURVE",
"1125 700 OFFCURVE",
"1127 674 OFFCURVE",
"1127 631 CURVE SMOOTH",
"1127 217 LINE SMOOTH"
);
},
{
closed = 1;
nodes = (
"2063 638 OFFCURVE",
"2055 695 OFFCURVE",
"2039 732 CURVE SMOOTH",
"2007 807 OFFCURVE",
"1912 868 OFFCURVE",
"1759 868 CURVE SMOOTH",
"1690 868 OFFCURVE",
"1633 856 OFFCURVE",
"1586 832 CURVE SMOOTH",
"1493 783 OFFCURVE",
"1467 720 OFFCURVE",
"1467 561 CURVE SMOOTH",
"1467 269 LINE SMOOTH",
"1467 202 OFFCURVE",
"1475 151 OFFCURVE",
"1491 115 CURVE SMOOTH",
"1522 43 OFFCURVE",
"1607 -17 OFFCURVE",
"1776 -17 CURVE SMOOTH",
"1850 -17 OFFCURVE",
"1910 -3 OFFCURVE",
"1955 24 CURVE SMOOTH",
"2045 78 OFFCURVE",
"2063 138 OFFCURVE",
"2063 282 CURVE SMOOTH",
"2063 561 LINE SMOOTH"
);
},
{
closed = 1;
nodes = (
"1807 177 OFFCURVE",
"1805 152 OFFCURVE",
"1800 142 CURVE",
"1795 131 OFFCURVE",
"1783 126 OFFCURVE",
"1766 126 CURVE SMOOTH",
"1747 126 OFFCURVE",
"1735 131 OFFCURVE",
"1730 140 CURVE SMOOTH",
"1725 149 OFFCURVE",
"1723 177 OFFCURVE",
"1723 223 CURVE SMOOTH",
"1723 631 LINE SMOOTH",
"1723 673 OFFCURVE",
"1726 699 OFFCURVE",
"1731 710 CURVE SMOOTH",
"1736 721 OFFCURVE",
"1747 726 OFFCURVE",
"1765 726 CURVE SMOOTH",
"1784 726 OFFCURVE",
"1796 721 OFFCURVE",
"1801 711 CURVE",
"1805 700 OFFCURVE",
"1807 674 OFFCURVE",
"1807 631 CURVE SMOOTH",
"1807 217 LINE SMOOTH"
);
}
);
width = 2099;
}
);
note = perthousand;
unicode = 2030;
},
{
glyphname = dotlessi;
lastChange = "2017-09-25 17:37:43 +0000";
layers = (
{
layerId = "BBA80624-4CF6-45E1-9846-B55476475641";
paths = (
{
closed = 1;
nodes = (
"72 0 LINE",
"488 0 LINE",
"488 1327 LINE",
"72 1327 LINE"
);
}
);
width = 561;
}
);
note = dotlessi;
unicode = 0131;
},
{
glyphname = circumflex;
lastChange = "2017-09-25 17:37:43 +0000";
layers = (
{
layerId = "BBA80624-4CF6-45E1-9846-B55476475641";
paths = (
{
closed = 1;
nodes = (
"732 1501 LINE",
"491 1783 LINE",
"209 1783 LINE",
"-48 1501 LINE",
"232 1501 LINE",
"350 1632 LINE",
"461 1501 LINE"
);
}
);
width = 683;
}
);
note = circumflex;
unicode = 02C6;
},
{
glyphname = tilde;
lastChange = "2017-09-25 17:37:43 +0000";
layers = (
{
layerId = "BBA80624-4CF6-45E1-9846-B55476475641";
paths = (
{
closed = 1;
nodes = (
"584 1746 OFFCURVE",
"547 1716 OFFCURVE",
"492 1716 CURVE SMOOTH",
"473 1716 OFFCURVE",
"438 1726 OFFCURVE",
"386 1745 CURVE SMOOTH",
"324 1768 LINE SMOOTH",
"267 1789 OFFCURVE",
"215 1800 OFFCURVE",
"167 1800 CURVE SMOOTH",
"75 1800 OFFCURVE",
"-8 1735 OFFCURVE",
"-81 1606 CURVE",
"77 1501 LINE",
"109 1568 OFFCURVE",
"150 1601 OFFCURVE",
"199 1601 CURVE SMOOTH",
"222 1601 OFFCURVE",
"258 1591 OFFCURVE",
"305 1572 CURVE SMOOTH",
"379 1543 LINE SMOOTH",
"434 1521 OFFCURVE",
"485 1510 OFFCURVE",
"532 1510 CURVE SMOOTH",
"600 1510 OFFCURVE",
"702 1556 OFFCURVE",
"763 1691 CURVE",
"602 1806 LINE"
);
}
);
width = 683;
}
);
note = tilde;
unicode = 02DC;
},
{
glyphname = macron;
lastChange = "2017-09-25 17:37:43 +0000";
layers = (
{
layerId = "BBA80624-4CF6-45E1-9846-B55476475641";
paths = (
{
closed = 1;
nodes = (
"-57 1501 LINE",
"739 1501 LINE",
"739 1674 LINE",
"-57 1674 LINE"
);
}
);
width = 683;
}
);
note = macron;
unicode = 02C9;
},
{
glyphname = breve;
lastChange = "2017-09-25 17:37:43 +0000";
layers = (
{
layerId = "BBA80624-4CF6-45E1-9846-B55476475641";
paths = (
{
closed = 1;
nodes = (
"447 1712 OFFCURVE",
"409 1666 OFFCURVE",
"341 1666 CURVE SMOOTH",
"274 1666 OFFCURVE",
"236 1712 OFFCURVE",
"228 1803 CURVE",
"58 1803 LINE",
"66 1623 OFFCURVE",
"165 1501 OFFCURVE",
"341 1501 CURVE SMOOTH",
"516 1501 OFFCURVE",
"617 1622 OFFCURVE",
"625 1803 CURVE",
"455 1803 LINE"
);
}
);
width = 683;
}
);
note = breve;
unicode = 02D8;
},
{
glyphname = dotaccent;
lastChange = "2017-09-25 17:37:43 +0000";
layers = (
{
layerId = "BBA80624-4CF6-45E1-9846-B55476475641";
paths = (
{
closed = 1;
nodes = (
"211 1501 LINE",
"472 1501 LINE",
"472 1761 LINE",
"211 1761 LINE"
);
}
);
width = 683;
}
);
note = dotaccent;
unicode = 02D9;
},
{
glyphname = ring;
lastChange = "2017-09-25 17:37:43 +0000";
layers = (
{
layerId = "BBA80624-4CF6-45E1-9846-B55476475641";
paths = (
{
closed = 1;
nodes = (
"226 1922 OFFCURVE",
"131 1827 OFFCURVE",
"131 1711 CURVE SMOOTH",
"131 1595 OFFCURVE",
"225 1501 OFFCURVE",
"342 1501 CURVE SMOOTH",
"457 1501 OFFCURVE",
"552 1595 OFFCURVE",
"552 1711 CURVE SMOOTH",
"552 1831 OFFCURVE",
"454 1922 OFFCURVE",
"342 1922 CURVE SMOOTH"
);
},
{
closed = 1;
nodes = (
"385 1790 OFFCURVE",
"423 1754 OFFCURVE",
"423 1707 CURVE SMOOTH",
"423 1662 OFFCURVE",
"385 1625 OFFCURVE",
"340 1625 CURVE SMOOTH",
"296 1625 OFFCURVE",
"258 1662 OFFCURVE",
"258 1707 CURVE SMOOTH",
"258 1754 OFFCURVE",
"296 1790 OFFCURVE",
"340 1790 CURVE SMOOTH"
);
}
);
width = 683;
}
);
note = ring;
unicode = 02DA;
},
{
glyphname = cedilla;
lastChange = "2017-09-25 17:37:43 +0000";
layers = (
{
layerId = "BBA80624-4CF6-45E1-9846-B55476475641";
paths = (
{
closed = 1;
nodes = (
"261 -190 LINE",
"272 -189 OFFCURVE",
"281 -189 OFFCURVE",
"287 -189 CURVE SMOOTH",
"343 -189 OFFCURVE",
"370 -211 OFFCURVE",
"370 -255 CURVE SMOOTH",
"370 -295 OFFCURVE",
"351 -315 OFFCURVE",
"311 -315 CURVE SMOOTH",
"287 -315 OFFCURVE",
"270 -301 OFFCURVE",
"261 -274 CURVE",
"113 -274 LINE",
"142 -379 OFFCURVE",
"208 -432 OFFCURVE",
"312 -432 CURVE SMOOTH",
"427 -432 OFFCURVE",
"522 -345 OFFCURVE",
"522 -244 CURVE SMOOTH",
"522 -161 OFFCURVE",
"447 -112 OFFCURVE",
"378 -112 CURVE",
"378 12 LINE",
"261 12 LINE"
);
}
);
width = 683;
}
);
note = cedilla;
unicode = 00B8;
},
{
glyphname = hungarumlaut;
lastChange = "2017-09-25 17:37:43 +0000";
layers = (
{
layerId = "BBA80624-4CF6-45E1-9846-B55476475641";
paths = (
{
closed = 1;
nodes = (
"24 1501 LINE",
"173 1501 LINE",
"414 1811 LINE",
"142 1811 LINE"
);
},
{
closed = 1;
nodes = (
"414 1501 LINE",
"563 1501 LINE",
"803 1811 LINE",
"532 1811 LINE"
);
}
);
width = 683;
}
);
note = hungarumlaut;
unicode = 02DD;
},
{
glyphname = ogonek;
lastChange = "2017-09-25 17:37:43 +0000";
layers = (
{
layerId = "BBA80624-4CF6-45E1-9846-B55476475641";
paths = (
{
closed = 1;
nodes = (
"191 -41 OFFCURVE",
"156 -102 OFFCURVE",
"156 -161 CURVE SMOOTH",
"156 -258 OFFCURVE",
"240 -316 OFFCURVE",
"355 -316 CURVE SMOOTH",
"415 -316 OFFCURVE",
"473 -302 OFFCURVE",
"529 -273 CURVE",
"488 -173 LINE",
"445 -190 OFFCURVE",
"407 -199 OFFCURVE",
"374 -199 CURVE SMOOTH",
"326 -199 OFFCURVE",
"302 -177 OFFCURVE",
"302 -134 CURVE SMOOTH",
"302 -99 OFFCURVE",
"337 -47 OFFCURVE",
"408 21 CURVE",
"262 21 LINE"
);
}
);
width = 683;
}
);
note = ogonek;
unicode = 02DB;
},
{
glyphname = caron;
lastChange = "2017-09-25 17:37:43 +0000";
layers = (
{
layerId = "BBA80624-4CF6-45E1-9846-B55476475641";
paths = (
{
closed = 1;
nodes = (
"-48 1783 LINE",
"209 1501 LINE",
"491 1501 LINE",
"732 1783 LINE",
"461 1783 LINE",
"350 1652 LINE",
"232 1783 LINE"
);
}
);
width = 683;
}
);
note = caron;
unicode = 02C7;
},
{
glyphname = Lslash;
lastChange = "2017-09-25 17:37:43 +0000";
layers = (
{
layerId = "BBA80624-4CF6-45E1-9846-B55476475641";
paths = (
{
closed = 1;
nodes = (
"96 1619 LINE",
"96 916 LINE",
"14 897 LINE",
"14 725 LINE",
"96 744 LINE",
"96 0 LINE",
"773 0 LINE",
"773 324 LINE",
"517 324 LINE",
"517 839 LINE",
"761 894 LINE",
"761 1066 LINE",
"517 1011 LINE",
"517 1619 LINE"
);
}
);
width = 785;
}
);
note = Lslash;
unicode = 0141;
},
{
glyphname = lslash;
lastChange = "2017-09-25 17:37:43 +0000";
layers = (
{
layerId = "BBA80624-4CF6-45E1-9846-B55476475641";
paths = (
{
closed = 1;
nodes = (
"84 1619 LINE",
"84 918 LINE",
"14 897 LINE",
"14 725 LINE",
"84 747 LINE",
"84 0 LINE",
"500 0 LINE",
"500 873 LINE",
"570 894 LINE",
"570 1066 LINE",
"500 1045 LINE",
"500 1619 LINE"
);
}
);
width = 585;
}
);
note = lslash;
unicode = 0142;
},
{
glyphname = brokenbar;
lastChange = "2017-09-25 17:37:43 +0000";
layers = (
{
layerId = "BBA80624-4CF6-45E1-9846-B55476475641";
paths = (
{
closed = 1;
nodes = (
"386 804 LINE",
"386 1619 LINE",
"169 1619 LINE",
"169 804 LINE"
);
},
{
closed = 1;
nodes = (
"386 -265 LINE",
"386 550 LINE",
"169 550 LINE",
"169 -265 LINE"
);
}
);
width = 555;
}
);
note = brokenbar;
unicode = 00A6;
},
{
glyphname = Eth;
lastChange = "2017-09-25 17:37:43 +0000";
layers = (
{
layerId = "BBA80624-4CF6-45E1-9846-B55476475641";
paths = (
{
closed = 1;
nodes = (
"627 0 LINE SMOOTH",
"728 0 OFFCURVE",
"803 6 OFFCURVE",
"853 17 CURVE SMOOTH",
"953 39 OFFCURVE",
"1023 92 OFFCURVE",
"1051 190 CURVE SMOOTH",
"1064 239 OFFCURVE",
"1071 336 OFFCURVE",
"1071 481 CURVE SMOOTH",
"1071 1048 LINE SMOOTH",
"1071 1201 OFFCURVE",
"1066 1304 OFFCURVE",
"1057 1357 CURVE SMOOTH",
"1038 1461 OFFCURVE",
"967 1554 OFFCURVE",
"824 1591 CURVE SMOOTH",
"752 1610 OFFCURVE",
"614 1619 OFFCURVE",
"411 1619 CURVE SMOOTH",
"96 1619 LINE",
"96 982 LINE",
"14 982 LINE",
"14 810 LINE",
"96 810 LINE",
"96 0 LINE"
);
},
{
closed = 1;
nodes = (
"583 982 LINE",
"517 982 LINE",
"517 1342 LINE",
"610 1342 OFFCURVE",
"634 1323 OFFCURVE",
"643 1282 CURVE SMOOTH",
"648 1261 OFFCURVE",
"650 1214 OFFCURVE",
"650 1141 CURVE SMOOTH",
"650 512 LINE SMOOTH",
"650 296 OFFCURVE",
"638 277 OFFCURVE",
"517 277 CURVE",
"517 810 LINE",
"583 810 LINE"
);
}
);
width = 1144;
}
);
note = Eth;
unicode = 00D0;
},
{
glyphname = eth;
lastChange = "2017-09-25 17:37:43 +0000";
layers = (
{
layerId = "BBA80624-4CF6-45E1-9846-B55476475641";
paths = (
{
closed = 1;
nodes = (
"393 1599 OFFCURVE",
"421 1567 OFFCURVE",
"454 1522 CURVE",
"287 1476 LINE",
"317 1385 LINE",
"509 1437 LINE",
"546 1374 OFFCURVE",
"570 1306 OFFCURVE",
"583 1235 CURVE",
"536 1272 OFFCURVE",
"480 1291 OFFCURVE",
"415 1291 CURVE SMOOTH",
"341 1291 OFFCURVE",
"275 1268 OFFCURVE",
"217 1221 CURVE SMOOTH",
"100 1128 OFFCURVE",
"60 1019 OFFCURVE",
"60 786 CURVE SMOOTH",
"60 494 LINE SMOOTH",
"60 353 OFFCURVE",
"73 250 OFFCURVE",
"98 186 CURVE SMOOTH",
"149 57 OFFCURVE",
"293 -24 OFFCURVE",
"516 -24 CURVE SMOOTH",
"627 -24 OFFCURVE",
"718 -4 OFFCURVE",
"791 36 CURVE SMOOTH",
"936 116 OFFCURVE",
"987 250 OFFCURVE",
"987 473 CURVE SMOOTH",
"987 775 LINE SMOOTH",
"987 905 OFFCURVE",
"978 1008 OFFCURVE",
"960 1084 CURVE SMOOTH",
"924 1235 OFFCURVE",
"834 1393 OFFCURVE",
"743 1498 CURVE",
"857 1530 LINE",
"827 1619 LINE",
"666 1579 LINE",
"650 1593 OFFCURVE",
"633 1606 OFFCURVE",
"615 1619 CURVE",
"370 1619 LINE"
);
},
{
closed = 1;
nodes = (
"583 298 OFFCURVE",
"579 257 OFFCURVE",
"570 239 CURVE SMOOTH",
"561 220 OFFCURVE",
"546 211 OFFCURVE",
"525 211 CURVE SMOOTH",
"504 211 OFFCURVE",
"488 221 OFFCURVE",
"479 240 CURVE",
"469 259 OFFCURVE",
"464 296 OFFCURVE",
"464 351 CURVE SMOOTH",
"464 920 LINE SMOOTH",
"464 971 OFFCURVE",
"468 1006 OFFCURVE",
"477 1026 CURVE SMOOTH",
"486 1046 OFFCURVE",
"501 1056 OFFCURVE",
"524 1056 CURVE SMOOTH",
"548 1056 OFFCURVE",
"564 1048 OFFCURVE",
"572 1031 CURVE",
"579 1014 OFFCURVE",
"583 973 OFFCURVE",
"583 907 CURVE SMOOTH",
"583 362 LINE SMOOTH"
);
}
);
width = 1047;
}
);
note = eth;
unicode = 00F0;
},
{
glyphname = Thorn;
lastChange = "2017-09-25 17:37:43 +0000";
layers = (
{
layerId = "BBA80624-4CF6-45E1-9846-B55476475641";
paths = (
{
closed = 1;
nodes = (
"84 1619 LINE",
"84 0 LINE",
"505 0 LINE",
"505 350 LINE",
"618 350 LINE SMOOTH",
"718 350 OFFCURVE",
"796 364 OFFCURVE",
"852 392 CURVE SMOOTH",
"963 448 OFFCURVE",
"991 532 OFFCURVE",
"991 724 CURVE SMOOTH",
"991 864 LINE SMOOTH",
"991 1073 OFFCURVE",
"979 1140 OFFCURVE",
"909 1213 CURVE SMOOTH",
"839 1285 OFFCURVE",
"740 1317 OFFCURVE",
"505 1317 CURVE",
"505 1619 LINE"
);
},
{
closed = 1;
nodes = (
"614 1040 OFFCURVE",
"639 1015 OFFCURVE",
"639 907 CURVE SMOOTH",
"639 775 LINE SMOOTH",
"639 655 OFFCURVE",
"613 628 OFFCURVE",
"536 628 CURVE SMOOTH",
"505 628 LINE",
"505 1040 LINE"
);
}
);
width = 1028;
}
);
note = Thorn;
unicode = 00DE;
},
{
glyphname = thorn;
lastChange = "2017-09-25 17:37:43 +0000";
layers = (
{
layerId = "BBA80624-4CF6-45E1-9846-B55476475641";
paths = (
{
closed = 1;
nodes = (
"72 -189 LINE",
"476 -189 LINE",
"476 115 LINE",
"547 22 OFFCURVE",
"632 -24 OFFCURVE",
"732 -24 CURVE SMOOTH",
"795 -24 OFFCURVE",
"848 -9 OFFCURVE",
"893 22 CURVE SMOOTH",
"981 82 OFFCURVE",
"1002 160 OFFCURVE",
"1002 401 CURVE SMOOTH",
"1002 960 LINE SMOOTH",
"1002 1065 OFFCURVE",
"996 1140 OFFCURVE",
"985 1184 CURVE SMOOTH",
"962 1272 OFFCURVE",
"862 1351 OFFCURVE",
"737 1351 CURVE SMOOTH",
"634 1351 OFFCURVE",
"547 1304 OFFCURVE",
"476 1210 CURVE",
"476 1619 LINE",
"72 1619 LINE"
);
},
{
closed = 1;
nodes = (
"598 301 OFFCURVE",
"595 257 OFFCURVE",
"589 239 CURVE SMOOTH",
"582 220 OFFCURVE",
"566 211 OFFCURVE",
"540 211 CURVE SMOOTH",
"513 211 OFFCURVE",
"496 221 OFFCURVE",
"488 241 CURVE SMOOTH",
"480 261 OFFCURVE",
"476 311 OFFCURVE",
"476 391 CURVE SMOOTH",
"476 941 LINE SMOOTH",
"476 1018 OFFCURVE",
"480 1066 OFFCURVE",
"488 1086 CURVE",
"495 1106 OFFCURVE",
"512 1116 OFFCURVE",
"539 1116 CURVE SMOOTH",
"566 1116 OFFCURVE",
"583 1107 OFFCURVE",
"589 1090 CURVE SMOOTH",
"595 1073 OFFCURVE",
"598 1023 OFFCURVE",
"598 941 CURVE SMOOTH",
"598 372 LINE SMOOTH"
);
}
);
width = 1063;
}
);
note = thorn;
unicode = 00FE;
},
{
glyphname = minus;
lastChange = "2017-09-25 17:37:43 +0000";
layers = (
{
layerId = "BBA80624-4CF6-45E1-9846-B55476475641";
paths = (
{
closed = 1;
nodes = (
"1028 687 LINE",
"1028 931 LINE",
"64 931 LINE",
"64 687 LINE"
);
}
);
width = 1092;
}
);
note = minus;
unicode = 2212;
},
{
glyphname = multiply;
lastChange = "2017-09-25 17:37:43 +0000";
layers = (
{
layerId = "BBA80624-4CF6-45E1-9846-B55476475641";
paths = (
{
closed = 1;
nodes = (
"77 526 LINE",
"249 354 LINE",
"547 650 LINE",
"844 353 LINE",
"1016 526 LINE",
"719 822 LINE",
"1018 1122 LINE",
"845 1294 LINE",
"546 995 LINE",
"246 1294 LINE",
"74 1122 LINE",
"374 822 LINE"
);
}
);
width = 1092;
}
);
note = multiply;
unicode = 00D7;
},
{
glyphname = onesuperior;
lastChange = "2017-09-25 17:37:43 +0000";
layers = (
{
layerId = "BBA80624-4CF6-45E1-9846-B55476475641";
paths = (
{
closed = 1;
nodes = (
"227 1568 OFFCURVE",
"134 1523 OFFCURVE",
"12 1501 CURVE",
"12 1391 LINE",
"40 1391 LINE SMOOTH",
"97 1391 OFFCURVE",
"133 1388 OFFCURVE",
"150 1382 CURVE",
"167 1375 OFFCURVE",
"177 1366 OFFCURVE",
"180 1355 CURVE SMOOTH",
"183 1344 OFFCURVE",
"185 1305 OFFCURVE",
"185 1240 CURVE SMOOTH",
"185 783 LINE",
"440 783 LINE",
"440 1636 LINE",
"290 1636 LINE"
);
}
);
width = 501;
}
);
note = onesuperior;
unicode = 00B9;
},
{
glyphname = twosuperior;
lastChange = "2017-09-25 17:37:43 +0000";
layers = (
{
layerId = "BBA80624-4CF6-45E1-9846-B55476475641";
paths = (
{
closed = 1;
nodes = (
"394 1026 LINE SMOOTH",
"484 1137 OFFCURVE",
"543 1219 OFFCURVE",
"572 1272 CURVE SMOOTH",
"600 1324 OFFCURVE",
"614 1375 OFFCURVE",
"614 1425 CURVE SMOOTH",
"614 1557 OFFCURVE",
"509 1650 OFFCURVE",
"309 1650 CURVE SMOOTH",
"238 1650 OFFCURVE",
"181 1637 OFFCURVE",
"138 1610 CURVE SMOOTH",
"53 1557 OFFCURVE",
"36 1490 OFFCURVE",
"36 1373 CURVE SMOOTH",
"36 1336 LINE",
"265 1336 LINE",
"265 1422 LINE SMOOTH",
"265 1493 OFFCURVE",
"281 1508 OFFCURVE",
"320 1508 CURVE SMOOTH",
"355 1508 OFFCURVE",
"373 1488 OFFCURVE",
"373 1448 CURVE SMOOTH",
"373 1419 OFFCURVE",
"359 1380 OFFCURVE",
"330 1330 CURVE SMOOTH",
"301 1280 OFFCURVE",
"203 1140 OFFCURVE",
"36 911 CURVE",
"36 783 LINE",
"592 783 LINE",
"592 938 LINE",
"325 938 LINE"
);
}
);
width = 651;
}
);
note = twosuperior;
unicode = 00B2;
},
{
glyphname = threesuperior;
lastChange = "2017-09-25 17:37:43 +0000";
layers = (
{
layerId = "BBA80624-4CF6-45E1-9846-B55476475641";
paths = (
{
closed = 1;
nodes = (
"609 1298 OFFCURVE",
"622 1358 OFFCURVE",
"622 1421 CURVE SMOOTH",
"622 1569 OFFCURVE",
"549 1650 OFFCURVE",
"313 1650 CURVE SMOOTH",
"118 1650 OFFCURVE",
"36 1606 OFFCURVE",
"36 1439 CURVE SMOOTH",
"36 1377 LINE",
"291 1377 LINE",
"291 1436 LINE SMOOTH",
"291 1500 OFFCURVE",
"301 1508 OFFCURVE",
"334 1508 CURVE SMOOTH",
"362 1508 OFFCURVE",
"377 1501 OFFCURVE",
"377 1442 CURVE SMOOTH",
"377 1394 LINE SMOOTH",
"377 1355 OFFCURVE",
"370 1331 OFFCURVE",
"356 1322 CURVE SMOOTH",
"341 1313 OFFCURVE",
"298 1309 OFFCURVE",
"226 1309 CURVE",
"226 1175 LINE",
"355 1174 OFFCURVE",
"377 1162 OFFCURVE",
"377 1073 CURVE SMOOTH",
"377 1019 LINE SMOOTH",
"377 968 OFFCURVE",
"374 936 OFFCURVE",
"369 925 CURVE",
"363 914 OFFCURVE",
"350 908 OFFCURVE",
"331 908 CURVE SMOOTH",
"314 908 OFFCURVE",
"303 912 OFFCURVE",
"298 921 CURVE",
"293 929 OFFCURVE",
"291 951 OFFCURVE",
"291 986 CURVE SMOOTH",
"291 1113 LINE",
"36 1113 LINE",
"36 1057 LINE SMOOTH",
"36 978 OFFCURVE",
"43 921 OFFCURVE",
"57 887 CURVE SMOOTH",
"85 819 OFFCURVE",
"175 766 OFFCURVE",
"336 766 CURVE SMOOTH",
"511 766 OFFCURVE",
"632 814 OFFCURVE",
"632 1041 CURVE SMOOTH",
"632 1128 OFFCURVE",
"623 1184 OFFCURVE",
"605 1210 CURVE SMOOTH",
"586 1236 OFFCURVE",
"562 1254 OFFCURVE",
"532 1263 CURVE"
);
}
);
width = 668;
}
);
note = threesuperior;
unicode = 00B3;
},
{
glyphname = onehalf;
lastChange = "2017-09-25 17:37:43 +0000";
layers = (
{
layerId = "BBA80624-4CF6-45E1-9846-B55476475641";
paths = (
{
closed = 1;
nodes = (
"214 -31 LINE",
"368 -31 LINE",
"1001 1650 LINE",
"849 1650 LINE"
);
},
{
closed = 1;
nodes = (
"227 1568 OFFCURVE",
"134 1523 OFFCURVE",
"12 1501 CURVE",
"12 1391 LINE",
"40 1391 LINE SMOOTH",
"97 1391 OFFCURVE",
"133 1388 OFFCURVE",
"150 1382 CURVE",
"167 1375 OFFCURVE",
"177 1366 OFFCURVE",
"180 1355 CURVE SMOOTH",
"183 1344 OFFCURVE",
"185 1305 OFFCURVE",
"185 1240 CURVE SMOOTH",
"185 783 LINE",
"440 783 LINE",
"440 1636 LINE",
"290 1636 LINE"
);
},
{
closed = 1;
nodes = (
"1064 243 LINE SMOOTH",
"1153 353 OFFCURVE",
"1212 435 OFFCURVE",
"1241 489 CURVE SMOOTH",
"1270 542 OFFCURVE",
"1284 593 OFFCURVE",
"1284 642 CURVE SMOOTH",
"1284 774 OFFCURVE",
"1179 868 OFFCURVE",
"979 868 CURVE SMOOTH",
"908 868 OFFCURVE",
"851 855 OFFCURVE",
"808 828 CURVE SMOOTH",
"723 775 OFFCURVE",
"706 707 OFFCURVE",
"706 590 CURVE SMOOTH",
"706 554 LINE",
"935 554 LINE",
"935 639 LINE SMOOTH",
"935 711 OFFCURVE",
"952 726 OFFCURVE",
"989 726 CURVE SMOOTH",
"1025 726 OFFCURVE",
"1043 706 OFFCURVE",
"1043 666 CURVE SMOOTH",
"1043 637 OFFCURVE",
"1029 597 OFFCURVE",
"1000 547 CURVE SMOOTH",
"971 497 OFFCURVE",
"873 357 OFFCURVE",
"706 128 CURVE",
"706 0 LINE",
"1262 0 LINE",
"1262 155 LINE",
"995 155 LINE"
);
}
);
width = 1321;
}
);
note = onehalf;
unicode = 00BD;
},
{
glyphname = onequarter;
lastChange = "2017-09-25 17:37:43 +0000";
layers = (
{
layerId = "BBA80624-4CF6-45E1-9846-B55476475641";
paths = (
{
closed = 1;
nodes = (
"214 -31 LINE",
"368 -31 LINE",
"1001 1650 LINE",
"849 1650 LINE"
);
},
{
closed = 1;
nodes = (
"227 1568 OFFCURVE",
"134 1523 OFFCURVE",
"12 1501 CURVE",
"12 1391 LINE",
"40 1391 LINE SMOOTH",
"97 1391 OFFCURVE",
"133 1388 OFFCURVE",
"150 1382 CURVE",
"167 1375 OFFCURVE",
"177 1366 OFFCURVE",
"180 1355 CURVE SMOOTH",
"183 1344 OFFCURVE",
"185 1305 OFFCURVE",
"185 1240 CURVE SMOOTH",
"185 783 LINE",
"440 783 LINE",
"440 1636 LINE",
"290 1636 LINE"
);
},
{
closed = 1;
nodes = (
"629 299 LINE",
"629 148 LINE",
"926 148 LINE",
"926 0 LINE",
"1182 0 LINE",
"1182 148 LINE",
"1253 148 LINE",
"1253 304 LINE",
"1182 304 LINE",
"1182 854 LINE",
"847 854 LINE"
);
},
{
closed = 1;
nodes = (
"926 639 LINE",
"926 304 LINE",
"800 304 LINE"
);
}
);
width = 1277;
}
);
note = onequarter;
unicode = 00BC;
},
{
glyphname = threequarters;
lastChange = "2017-09-25 17:37:43 +0000";
layers = (
{
layerId = "BBA80624-4CF6-45E1-9846-B55476475641";
paths = (
{
closed = 1;
nodes = (
"609 1298 OFFCURVE",
"622 1358 OFFCURVE",
"622 1421 CURVE SMOOTH",
"622 1569 OFFCURVE",
"549 1650 OFFCURVE",
"313 1650 CURVE SMOOTH",
"118 1650 OFFCURVE",
"36 1606 OFFCURVE",
"36 1439 CURVE SMOOTH",
"36 1377 LINE",
"291 1377 LINE",
"291 1436 LINE SMOOTH",
"291 1500 OFFCURVE",
"301 1508 OFFCURVE",
"334 1508 CURVE SMOOTH",
"362 1508 OFFCURVE",
"377 1501 OFFCURVE",
"377 1442 CURVE SMOOTH",
"377 1394 LINE SMOOTH",
"377 1355 OFFCURVE",
"370 1331 OFFCURVE",
"356 1322 CURVE SMOOTH",
"341 1313 OFFCURVE",
"298 1309 OFFCURVE",
"226 1309 CURVE",
"226 1175 LINE",
"355 1174 OFFCURVE",
"377 1162 OFFCURVE",
"377 1073 CURVE SMOOTH",
"377 1019 LINE SMOOTH",
"377 968 OFFCURVE",
"374 936 OFFCURVE",
"369 925 CURVE",
"363 914 OFFCURVE",
"350 908 OFFCURVE",
"331 908 CURVE SMOOTH",
"314 908 OFFCURVE",
"303 912 OFFCURVE",
"298 921 CURVE",
"293 929 OFFCURVE",
"291 951 OFFCURVE",
"291 986 CURVE SMOOTH",
"291 1113 LINE",
"36 1113 LINE",
"36 1057 LINE SMOOTH",
"36 978 OFFCURVE",
"43 921 OFFCURVE",
"57 887 CURVE SMOOTH",
"85 819 OFFCURVE",
"175 766 OFFCURVE",
"336 766 CURVE SMOOTH",
"511 766 OFFCURVE",
"632 814 OFFCURVE",
"632 1041 CURVE SMOOTH",
"632 1128 OFFCURVE",
"623 1184 OFFCURVE",
"605 1210 CURVE SMOOTH",
"586 1236 OFFCURVE",
"562 1254 OFFCURVE",
"532 1263 CURVE"
);
},
{
closed = 1;
nodes = (
"353 -31 LINE",
"507 -31 LINE",
"1139 1650 LINE",
"987 1650 LINE"
);
},
{
closed = 1;
nodes = (
"767 299 LINE",
"767 148 LINE",
"1065 148 LINE",
"1065 0 LINE",
"1320 0 LINE",
"1320 148 LINE",
"1391 148 LINE",
"1391 304 LINE",
"1320 304 LINE",
"1320 854 LINE",
"985 854 LINE"
);
},
{
closed = 1;
nodes = (
"1065 639 LINE",
"1065 304 LINE",
"938 304 LINE"
);
}
);
width = 1416;
}
);
note = threequarters;
unicode = 00BE;
},
{
glyphname = francXXX;
lastChange = "2017-09-25 17:37:43 +0000";
layers = (
{
layerId = "BBA80624-4CF6-45E1-9846-B55476475641";
paths = (
{
closed = 1;
nodes = (
"505 1295 LINE",
"797 1295 LINE",
"797 1619 LINE",
"84 1619 LINE",
"84 0 LINE",
"505 0 LINE",
"505 680 LINE",
"832 680 LINE",
"832 0 LINE",
"1236 0 LINE",
"1236 524 LINE SMOOTH",
"1236 653 OFFCURVE",
"1240 735 OFFCURVE",
"1248 771 CURVE SMOOTH",
"1264 842 OFFCURVE",
"1328 884 OFFCURVE",
"1475 884 CURVE",
"1475 1351 LINE",
"1364 1344 OFFCURVE",
"1279 1278 OFFCURVE",
"1220 1153 CURVE",
"1236 1327 LINE",
"832 1327 LINE",
"832 988 LINE",
"505 988 LINE"
);
}
);
width = 1493;
}
);
note = francXXX;
},
{
glyphname = Scedilla;
lastChange = "2017-09-25 17:37:43 +0000";
layers = (
{
layerId = "BBA80624-4CF6-45E1-9846-B55476475641";
paths = (
{
closed = 1;
nodes = (
"667 -32 OFFCURVE",
"756 -10 OFFCURVE",
"831 31 CURVE SMOOTH",
"981 113 OFFCURVE",
"1011 197 OFFCURVE",
"1011 414 CURVE SMOOTH",
"1011 731 OFFCURVE",
"959 810 OFFCURVE",
"584 1033 CURVE SMOOTH",
"453 1110 OFFCURVE",
"443 1146 OFFCURVE",
"443 1254 CURVE SMOOTH",
"443 1337 OFFCURVE",
"469 1379 OFFCURVE",
"520 1379 CURVE SMOOTH",
"543 1379 OFFCURVE",
"560 1371 OFFCURVE",
"570 1356 CURVE SMOOTH",
"580 1341 OFFCURVE",
"585 1305 OFFCURVE",
"585 1249 CURVE SMOOTH",
"585 1129 LINE",
"976 1129 LINE",
"976 1193 LINE SMOOTH",
"976 1322 OFFCURVE",
"964 1413 OFFCURVE",
"939 1467 CURVE SMOOTH",
"889 1574 OFFCURVE",
"725 1653 OFFCURVE",
"506 1653 CURVE SMOOTH",
"406 1653 OFFCURVE",
"321 1637 OFFCURVE",
"250 1605 CURVE SMOOTH",
"109 1540 OFFCURVE",
"49 1446 OFFCURVE",
"49 1198 CURVE SMOOTH",
"49 1112 OFFCURVE",
"60 1041 OFFCURVE",
"83 986 CURVE SMOOTH",
"127 875 OFFCURVE",
"166 844 OFFCURVE",
"375 705 CURVE SMOOTH",
"584 568 OFFCURVE",
"611 562 OFFCURVE",
"611 371 CURVE SMOOTH",
"611 284 OFFCURVE",
"583 240 OFFCURVE",
"528 240 CURVE SMOOTH",
"500 240 OFFCURVE",
"481 249 OFFCURVE",
"470 266 CURVE SMOOTH",
"459 283 OFFCURVE",
"453 322 OFFCURVE",
"453 383 CURVE SMOOTH",
"453 580 LINE",
"62 580 LINE",
"62 474 LINE SMOOTH",
"62 377 OFFCURVE",
"70 297 OFFCURVE",
"85 234 CURVE SMOOTH",
"116 107 OFFCURVE",
"233 2 OFFCURVE",
"448 -27 CURVE",
"448 -129 LINE",
"475 -129 LINE SMOOTH",
"530 -129 OFFCURVE",
"558 -151 OFFCURVE",
"558 -195 CURVE SMOOTH",
"558 -235 OFFCURVE",
"538 -255 OFFCURVE",
"499 -255 CURVE SMOOTH",
"474 -255 OFFCURVE",
"457 -241 OFFCURVE",
"448 -213 CURVE",
"301 -213 LINE",
"329 -318 OFFCURVE",
"395 -371 OFFCURVE",
"500 -371 CURVE SMOOTH",
"615 -371 OFFCURVE",
"709 -285 OFFCURVE",
"709 -184 CURVE SMOOTH",
"709 -101 OFFCURVE",
"636 -52 OFFCURVE",
"565 -52 CURVE",
"565 -33 LINE"
);
}
);
width = 1059;
}
);
note = Scedilla;
unicode = 015E;
},
{
glyphname = scedilla;
lastChange = "2017-09-25 17:37:43 +0000";
layers = (
{
layerId = "BBA80624-4CF6-45E1-9846-B55476475641";
paths = (
{
closed = 1;
nodes = (
"619 -22 OFFCURVE",
"700 -5 OFFCURVE",
"762 28 CURVE SMOOTH",
"885 93 OFFCURVE",
"928 187 OFFCURVE",
"928 392 CURVE SMOOTH",
"928 585 OFFCURVE",
"877 660 OFFCURVE",
"642 775 CURVE SMOOTH",
"554 818 OFFCURVE",
"496 851 OFFCURVE",
"468 874 CURVE SMOOTH",
"411 919 OFFCURVE",
"408 945 OFFCURVE",
"408 1026 CURVE SMOOTH",
"408 1086 OFFCURVE",
"431 1116 OFFCURVE",
"476 1116 CURVE SMOOTH",
"504 1116 OFFCURVE",
"522 1108 OFFCURVE",
"529 1092 CURVE SMOOTH",
"536 1075 OFFCURVE",
"539 1036 OFFCURVE",
"539 975 CURVE SMOOTH",
"539 903 LINE",
"897 903 LINE",
"897 980 LINE SMOOTH",
"897 1113 OFFCURVE",
"893 1156 OFFCURVE",
"827 1229 CURVE SMOOTH",
"761 1302 OFFCURVE",
"636 1351 OFFCURVE",
"460 1351 CURVE SMOOTH",
"371 1351 OFFCURVE",
"294 1337 OFFCURVE",
"227 1310 CURVE SMOOTH",
"93 1255 OFFCURVE",
"42 1171 OFFCURVE",
"42 959 CURVE SMOOTH",
"42 810 OFFCURVE",
"61 717 OFFCURVE",
"298 584 CURVE SMOOTH",
"439 505 OFFCURVE",
"518 458 OFFCURVE",
"533 442 CURVE SMOOTH",
"548 426 OFFCURVE",
"555 386 OFFCURVE",
"555 323 CURVE SMOOTH",
"555 231 OFFCURVE",
"535 211 OFFCURVE",
"478 211 CURVE SMOOTH",
"451 211 OFFCURVE",
"434 222 OFFCURVE",
"425 243 CURVE SMOOTH",
"416 264 OFFCURVE",
"411 311 OFFCURVE",
"411 382 CURVE SMOOTH",
"411 466 LINE",
"53 466 LINE",
"53 402 LINE SMOOTH",
"53 289 OFFCURVE",
"66 209 OFFCURVE",
"91 160 CURVE SMOOTH",
"142 63 OFFCURVE",
"248 3 OFFCURVE",
"401 -17 CURVE",
"401 -129 LINE",
"428 -129 LINE SMOOTH",
"483 -129 OFFCURVE",
"511 -151 OFFCURVE",
"511 -195 CURVE SMOOTH",
"511 -235 OFFCURVE",
"491 -255 OFFCURVE",
"452 -255 CURVE SMOOTH",
"427 -255 OFFCURVE",
"410 -241 OFFCURVE",
"401 -213 CURVE",
"253 -213 LINE",
"282 -318 OFFCURVE",
"348 -371 OFFCURVE",
"453 -371 CURVE SMOOTH",
"568 -371 OFFCURVE",
"662 -285 OFFCURVE",
"662 -184 CURVE SMOOTH",
"662 -101 OFFCURVE",
"587 -52 OFFCURVE",
"518 -52 CURVE",
"518 -24 LINE"
);
}
);
width = 964;
}
);
note = scedilla;
unicode = 015F;
},
{
glyphname = dmacron;
lastChange = "2017-09-25 17:37:43 +0000";
layers = (
{
layerId = "BBA80624-4CF6-45E1-9846-B55476475641";
paths = (
{
closed = 1;
nodes = (
"587 1619 LINE",
"587 1571 LINE",
"336 1571 LINE",
"336 1399 LINE",
"587 1399 LINE",
"587 1243 LINE",
"519 1315 OFFCURVE",
"435 1351 OFFCURVE",
"336 1351 CURVE SMOOTH",
"271 1351 OFFCURVE",
"216 1335 OFFCURVE",
"169 1303 CURVE SMOOTH",
"76 1238 OFFCURVE",
"60 1177 OFFCURVE",
"60 973 CURVE SMOOTH",
"60 352 LINE SMOOTH",
"60 254 OFFCURVE",
"67 183 OFFCURVE",
"80 140 CURVE SMOOTH",
"106 53 OFFCURVE",
"206 -24 OFFCURVE",
"331 -24 CURVE SMOOTH",
"424 -24 OFFCURVE",
"509 16 OFFCURVE",
"587 96 CURVE",
"587 0 LINE",
"991 0 LINE",
"991 1399 LINE",
"1061 1399 LINE",
"1061 1571 LINE",
"991 1571 LINE",
"991 1619 LINE"
);
},
{
closed = 1;
nodes = (
"587 305 OFFCURVE",
"583 259 OFFCURVE",
"574 240 CURVE SMOOTH",
"565 221 OFFCURVE",
"548 211 OFFCURVE",
"522 211 CURVE SMOOTH",
"499 211 OFFCURVE",
"484 220 OFFCURVE",
"476 237 CURVE SMOOTH",
"468 254 OFFCURVE",
"464 289 OFFCURVE",
"464 343 CURVE SMOOTH",
"464 993 LINE SMOOTH",
"464 1045 OFFCURVE",
"468 1079 OFFCURVE",
"477 1094 CURVE",
"485 1109 OFFCURVE",
"501 1116 OFFCURVE",
"525 1116 CURVE SMOOTH",
"550 1116 OFFCURVE",
"566 1108 OFFCURVE",
"575 1091 CURVE",
"583 1074 OFFCURVE",
"587 1042 OFFCURVE",
"587 993 CURVE SMOOTH",
"587 379 LINE SMOOTH"
);
}
);
width = 1064;
}
);
note = dmacron;
unicode = 0111;
},
{
glyphname = overscore;
lastChange = "2017-09-25 17:37:43 +0000";
layers = (
{
layerId = "BBA80624-4CF6-45E1-9846-B55476475641";
paths = (
{
closed = 1;
nodes = (
"1143 1690 LINE",
"1143 1792 LINE",
"-12 1792 LINE",
"-12 1690 LINE"
);
}
);
width = 1131;
}
);
note = overscore;
unicode = 00AF;
},
{
glyphname = middot;
lastChange = "2017-09-25 17:37:43 +0000";
layers = (
{
layerId = "BBA80624-4CF6-45E1-9846-B55476475641";
paths = (
{
closed = 1;
nodes = (
"639 844 OFFCURVE",
"573 779 OFFCURVE",
"573 698 CURVE SMOOTH",
"573 617 OFFCURVE",
"639 551 OFFCURVE",
"719 551 CURVE SMOOTH",
"800 551 OFFCURVE",
"866 617 OFFCURVE",
"866 698 CURVE SMOOTH",
"866 781 OFFCURVE",
"798 844 OFFCURVE",
"719 844 CURVE SMOOTH"
);
}
);
width = 683;
}
);
note = middot;
unicode = 00B7;
},
{
glyphname = foursuperior;
lastChange = "2017-09-25 17:37:43 +0000";
layers = (
{
layerId = "BBA80624-4CF6-45E1-9846-B55476475641";
paths = (
{
closed = 1;
nodes = (
"12 1082 LINE",
"12 931 LINE",
"310 931 LINE",
"310 783 LINE",
"565 783 LINE",
"565 931 LINE",
"636 931 LINE",
"636 1086 LINE",
"565 1086 LINE",
"565 1636 LINE",
"230 1636 LINE"
);
},
{
closed = 1;
nodes = (
"310 1422 LINE",
"310 1086 LINE",
"183 1086 LINE"
);
}
);
width = 660;
}
);
note = foursuperior;
unicode = F005;
},
{
glyphname = commaaccent1;
lastChange = "2017-09-25 17:37:43 +0000";
layers = (
{
layerId = "BBA80624-4CF6-45E1-9846-B55476475641";
paths = (
{
closed = 1;
nodes = (
"413 -404 OFFCURVE",
"446 -303 OFFCURVE",
"446 -228 CURVE SMOOTH",
"446 -153 OFFCURVE",
"406 -97 OFFCURVE",
"341 -97 CURVE SMOOTH",
"285 -97 OFFCURVE",
"241 -140 OFFCURVE",
"241 -203 CURVE SMOOTH",
"241 -254 OFFCURVE",
"268 -290 OFFCURVE",
"323 -311 CURVE",
"318 -372 OFFCURVE",
"299 -446 OFFCURVE",
"268 -533 CURVE",
"346 -533 LINE"
);
}
);
width = 683;
}
);
note = commaaccent1;
},
{
glyphname = Aogonek;
lastChange = "2017-09-25 17:37:43 +0000";
layers = (
{
layerId = "BBA80624-4CF6-45E1-9846-B55476475641";
paths = (
{
closed = 1;
nodes = (
"811 1620 LINE",
"203 1620 LINE",
"-12 0 LINE",
"424 0 LINE",
"449 291 LINE",
"600 291 LINE",
"621 0 LINE",
"731 0 LINE",
"675 -53 OFFCURVE",
"647 -107 OFFCURVE",
"647 -162 CURVE SMOOTH",
"647 -254 OFFCURVE",
"725 -317 OFFCURVE",
"846 -317 CURVE SMOOTH",
"898 -317 OFFCURVE",
"956 -302 OFFCURVE",
"1020 -272 CURVE",
"979 -172 LINE",
"936 -190 OFFCURVE",
"897 -199 OFFCURVE",
"864 -199 CURVE SMOOTH",
"817 -199 OFFCURVE",
"793 -178 OFFCURVE",
"793 -135 CURVE SMOOTH",
"793 -102 OFFCURVE",
"822 -57 OFFCURVE",
"879 0 CURVE",
"1053 0 LINE"
);
},
{
closed = 1;
nodes = (
"462 771 OFFCURVE",
"489 996 OFFCURVE",
"524 1257 CURVE",
"539 1047 OFFCURVE",
"561 821 OFFCURVE",
"588 580 CURVE",
"444 580 LINE"
);
}
);
width = 1040;
}
);
note = Aogonek;
unicode = 0104;
},
{
glyphname = aogonek;
lastChange = "2017-09-25 17:37:43 +0000";
layers = (
{
layerId = "BBA80624-4CF6-45E1-9846-B55476475641";
paths = (
{
closed = 1;
nodes = (
"967 666 LINE SMOOTH",
"967 807 OFFCURVE",
"966 906 OFFCURVE",
"963 963 CURVE SMOOTH",
"958 1078 OFFCURVE",
"930 1187 OFFCURVE",
"863 1243 CURVE SMOOTH",
"796 1298 OFFCURVE",
"684 1317 OFFCURVE",
"512 1317 CURVE SMOOTH",
"321 1317 OFFCURVE",
"256 1313 OFFCURVE",
"167 1238 CURVE SMOOTH",
"78 1163 OFFCURVE",
"55 1072 OFFCURVE",
"55 901 CURVE SMOOTH",
"55 813 LINE",
"434 813 LINE",
"434 1012 LINE SMOOTH",
"434 1104 OFFCURVE",
"457 1116 OFFCURVE",
"500 1116 CURVE SMOOTH",
"524 1116 OFFCURVE",
"541 1103 OFFCURVE",
"550 1076 CURVE SMOOTH",
"559 1049 OFFCURVE",
"563 1006 OFFCURVE",
"563 948 CURVE SMOOTH",
"563 875 OFFCURVE",
"548 831 OFFCURVE",
"519 814 CURVE SMOOTH",
"489 797 OFFCURVE",
"410 764 OFFCURVE",
"281 713 CURVE SMOOTH",
"86 636 OFFCURVE",
"55 597 OFFCURVE",
"55 406 CURVE SMOOTH",
"55 297 LINE SMOOTH",
"55 65 OFFCURVE",
"138 -2 OFFCURVE",
"338 -2 CURVE SMOOTH",
"467 -2 OFFCURVE",
"526 32 OFFCURVE",
"573 119 CURVE",
"573 0 LINE",
"690 0 LINE",
"634 -53 OFFCURVE",
"606 -107 OFFCURVE",
"606 -162 CURVE SMOOTH",
"606 -254 OFFCURVE",
"684 -317 OFFCURVE",
"805 -317 CURVE SMOOTH",
"857 -317 OFFCURVE",
"915 -302 OFFCURVE",
"979 -272 CURVE",
"938 -172 LINE",
"895 -190 OFFCURVE",
"856 -199 OFFCURVE",
"823 -199 CURVE SMOOTH",
"776 -199 OFFCURVE",
"752 -178 OFFCURVE",
"752 -135 CURVE SMOOTH",
"752 -102 OFFCURVE",
"781 -57 OFFCURVE",
"838 0 CURVE",
"967 0 LINE"
);
},
{
closed = 1;
nodes = (
"563 238 OFFCURVE",
"543 211 OFFCURVE",
"502 211 CURVE SMOOTH",
"480 211 OFFCURVE",
"463 220 OFFCURVE",
"452 237 CURVE",
"440 254 OFFCURVE",
"434 291 OFFCURVE",
"434 350 CURVE SMOOTH",
"434 526 OFFCURVE",
"452 547 OFFCURVE",
"563 631 CURVE",
"563 293 LINE SMOOTH"
);
}
);
width = 1032;
}
);
note = aogonek;
unicode = 0105;
},
{
glyphname = Eogonek;
lastChange = "2017-09-25 17:37:43 +0000";
layers = (
{
layerId = "BBA80624-4CF6-45E1-9846-B55476475641";
paths = (
{
closed = 1;
nodes = (
"515 -53 OFFCURVE",
"487 -107 OFFCURVE",
"487 -162 CURVE SMOOTH",
"487 -254 OFFCURVE",
"565 -317 OFFCURVE",
"686 -317 CURVE SMOOTH",
"738 -317 OFFCURVE",
"796 -302 OFFCURVE",
"860 -272 CURVE",
"819 -172 LINE",
"776 -190 OFFCURVE",
"738 -199 OFFCURVE",
"705 -199 CURVE SMOOTH",
"657 -199 OFFCURVE",
"633 -178 OFFCURVE",
"633 -135 CURVE SMOOTH",
"633 -102 OFFCURVE",
"662 -57 OFFCURVE",
"719 0 CURVE",
"813 0 LINE",
"813 324 LINE",
"506 324 LINE",
"506 680 LINE",
"768 680 LINE",
"768 987 LINE",
"506 987 LINE",
"506 1296 LINE",
"786 1296 LINE",
"786 1620 LINE",
"84 1620 LINE",
"84 0 LINE",
"571 0 LINE"
);
}
);
width = 850;
}
);
note = Eogonek;
unicode = 0118;
},
{
glyphname = eogonek;
lastChange = "2017-09-25 17:37:43 +0000";
layers = (
{
layerId = "BBA80624-4CF6-45E1-9846-B55476475641";
paths = (
{
closed = 1;
nodes = (
"751 8 OFFCURVE",
"842 47 OFFCURVE",
"910 142 CURVE SMOOTH",
"977 237 OFFCURVE",
"985 310 OFFCURVE",
"985 457 CURVE SMOOTH",
"985 555 LINE",
"604 555 LINE",
"604 350 LINE SMOOTH",
"604 246 OFFCURVE",
"581 211 OFFCURVE",
"526 211 CURVE SMOOTH",
"505 211 OFFCURVE",
"490 219 OFFCURVE",
"479 234 CURVE SMOOTH",
"468 249 OFFCURVE",
"463 289 OFFCURVE",
"463 352 CURVE SMOOTH",
"463 639 LINE",
"985 639 LINE",
"985 815 LINE SMOOTH",
"985 932 OFFCURVE",
"973 1026 OFFCURVE",
"950 1099 CURVE SMOOTH",
"903 1244 OFFCURVE",
"757 1327 OFFCURVE",
"506 1327 CURVE SMOOTH",
"341 1327 OFFCURVE",
"218 1288 OFFCURVE",
"147 1204 CURVE SMOOTH",
"75 1119 OFFCURVE",
"59 1012 OFFCURVE",
"59 868 CURVE SMOOTH",
"59 481 LINE SMOOTH",
"59 326 OFFCURVE",
"67 242 OFFCURVE",
"131 151 CURVE SMOOTH",
"195 60 OFFCURVE",
"310 11 OFFCURVE",
"467 0 CURVE",
"411 -53 OFFCURVE",
"383 -107 OFFCURVE",
"383 -162 CURVE SMOOTH",
"383 -254 OFFCURVE",
"461 -317 OFFCURVE",
"582 -317 CURVE SMOOTH",
"634 -317 OFFCURVE",
"692 -302 OFFCURVE",
"756 -272 CURVE",
"715 -172 LINE",
"672 -190 OFFCURVE",
"633 -199 OFFCURVE",
"600 -199 CURVE SMOOTH",
"552 -199 OFFCURVE",
"528 -178 OFFCURVE",
"528 -135 CURVE SMOOTH",
"528 -100 OFFCURVE",
"557 -55 OFFCURVE",
"614 0 CURVE"
);
},
{
closed = 1;
nodes = (
"463 1095 OFFCURVE",
"483 1114 OFFCURVE",
"524 1114 CURVE SMOOTH",
"550 1114 OFFCURVE",
"566 1103 OFFCURVE",
"573 1080 CURVE",
"579 1057 OFFCURVE",
"582 1015 OFFCURVE",
"582 952 CURVE SMOOTH",
"582 856 LINE",
"463 856 LINE",
"463 1018 LINE SMOOTH"
);
}
);
width = 1047;
}
);
note = eogonek;
unicode = 0119;
},
{
glyphname = Hbar;
lastChange = "2017-09-25 17:37:43 +0000";
layers = (
{
layerId = "BBA80624-4CF6-45E1-9846-B55476475641";
paths = (
{
closed = 1;
nodes = (
"14 1231 LINE",
"84 1231 LINE",
"84 0 LINE",
"506 0 LINE",
"506 680 LINE",
"631 680 LINE",
"631 0 LINE",
"1053 0 LINE",
"1053 1231 LINE",
"1120 1231 LINE",
"1120 1403 LINE",
"1053 1403 LINE",
"1053 1620 LINE",
"631 1620 LINE",
"631 1403 LINE",
"506 1403 LINE",
"506 1620 LINE",
"84 1620 LINE",
"84 1403 LINE",
"14 1403 LINE"
);
},
{
closed = 1;
nodes = (
"631 1040 LINE",
"506 1040 LINE",
"506 1231 LINE",
"631 1231 LINE"
);
}
);
width = 1137;
}
);
note = Hbar;
unicode = 0126;
},
{
glyphname = hbar;
lastChange = "2017-09-25 17:37:43 +0000";
layers = (
{
layerId = "BBA80624-4CF6-45E1-9846-B55476475641";
paths = (
{
closed = 1;
nodes = (
"0 1386 LINE",
"72 1386 LINE",
"72 0 LINE",
"475 0 LINE",
"475 948 LINE SMOOTH",
"475 1015 OFFCURVE",
"480 1059 OFFCURVE",
"489 1081 CURVE SMOOTH",
"498 1103 OFFCURVE",
"515 1114 OFFCURVE",
"539 1114 CURVE SMOOTH",
"568 1114 OFFCURVE",
"585 1102 OFFCURVE",
"592 1077 CURVE SMOOTH",
"599 1052 OFFCURVE",
"602 1005 OFFCURVE",
"602 934 CURVE SMOOTH",
"602 0 LINE",
"1006 0 LINE",
"1006 915 LINE SMOOTH",
"1006 1031 OFFCURVE",
"1001 1115 OFFCURVE",
"990 1167 CURVE SMOOTH",
"969 1271 OFFCURVE",
"870 1327 OFFCURVE",
"717 1327 CURVE SMOOTH",
"606 1327 OFFCURVE",
"526 1303 OFFCURVE",
"475 1255 CURVE",
"475 1386 LINE",
"569 1386 LINE",
"569 1559 LINE",
"475 1559 LINE",
"475 1620 LINE",
"72 1620 LINE",
"72 1559 LINE",
"0 1559 LINE"
);
}
);
width = 1073;
}
);
note = hbar;
unicode = 0127;
},
{
glyphname = Iogonek;
lastChange = "2017-09-25 17:37:43 +0000";
layers = (
{
layerId = "BBA80624-4CF6-45E1-9846-B55476475641";
paths = (
{
closed = 1;
nodes = (
"184 -53 OFFCURVE",
"156 -107 OFFCURVE",
"156 -162 CURVE SMOOTH",
"156 -254 OFFCURVE",
"233 -317 OFFCURVE",
"354 -317 CURVE SMOOTH",
"406 -317 OFFCURVE",
"464 -302 OFFCURVE",
"528 -272 CURVE",
"487 -172 LINE",
"444 -190 OFFCURVE",
"406 -199 OFFCURVE",
"373 -199 CURVE SMOOTH",
"325 -199 OFFCURVE",
"301 -178 OFFCURVE",
"301 -135 CURVE SMOOTH",
"301 -102 OFFCURVE",
"330 -57 OFFCURVE",
"387 0 CURVE",
"506 0 LINE",
"506 1620 LINE",
"84 1620 LINE",
"84 0 LINE",
"240 0 LINE"
);
}
);
width = 590;
}
);
note = Iogonek;
unicode = 012E;
},
{
glyphname = iogonek;
lastChange = "2017-09-25 17:37:43 +0000";
layers = (
{
layerId = "BBA80624-4CF6-45E1-9846-B55476475641";
paths = (
{
closed = 1;
nodes = (
"163 -53 OFFCURVE",
"135 -107 OFFCURVE",
"135 -162 CURVE SMOOTH",
"135 -254 OFFCURVE",
"213 -317 OFFCURVE",
"334 -317 CURVE SMOOTH",
"386 -317 OFFCURVE",
"444 -302 OFFCURVE",
"508 -272 CURVE",
"467 -172 LINE",
"424 -190 OFFCURVE",
"385 -199 OFFCURVE",
"352 -199 CURVE SMOOTH",
"305 -199 OFFCURVE",
"281 -178 OFFCURVE",
"281 -135 CURVE SMOOTH",
"281 -102 OFFCURVE",
"310 -57 OFFCURVE",
"367 0 CURVE",
"487 0 LINE",
"487 1327 LINE",
"72 1327 LINE",
"72 0 LINE",
"219 0 LINE"
);
}
);
width = 561;
}
);
note = iogonek;
unicode = 012F;
},
{
glyphname = IJ;
lastChange = "2017-09-25 17:37:43 +0000";
layers = (
{
layerId = "BBA80624-4CF6-45E1-9846-B55476475641";
paths = (
{
closed = 1;
nodes = (
"506 1620 LINE",
"84 1620 LINE",
"84 0 LINE",
"506 0 LINE"
);
},
{
closed = 1;
nodes = (
"776 315 OFFCURVE",
"744 281 OFFCURVE",
"672 281 CURVE",
"616 283 LINE",
"616 0 LINE",
"827 0 LINE SMOOTH",
"1126 0 OFFCURVE",
"1198 64 OFFCURVE",
"1198 360 CURVE SMOOTH",
"1198 1620 LINE",
"776 1620 LINE",
"776 412 LINE SMOOTH"
);
}
);
width = 1282;
}
);
note = IJ;
unicode = 0132;
},
{
glyphname = ij;
lastChange = "2017-09-25 17:37:43 +0000";
layers = (
{
layerId = "BBA80624-4CF6-45E1-9846-B55476475641";
paths = (
{
closed = 1;
nodes = (
"487 1620 LINE",
"72 1620 LINE",
"72 1411 LINE",
"487 1411 LINE"
);
},
{
closed = 1;
nodes = (
"1061 1620 LINE",
"645 1620 LINE",
"645 1411 LINE",
"1061 1411 LINE"
);
},
{
closed = 1;
nodes = (
"487 1327 LINE",
"72 1327 LINE",
"72 0 LINE",
"487 0 LINE"
);
},
{
closed = 1;
nodes = (
"645 107 OFFCURVE",
"644 75 OFFCURVE",
"642 60 CURVE",
"639 45 OFFCURVE",
"634 35 OFFCURVE",
"625 32 CURVE SMOOTH",
"616 29 OFFCURVE",
"592 27 OFFCURVE",
"555 27 CURVE",
"555 -186 LINE",
"711 -186 LINE SMOOTH",
"968 -186 OFFCURVE",
"1061 -112 OFFCURVE",
"1061 152 CURVE SMOOTH",
"1061 1327 LINE",
"645 1327 LINE",
"645 156 LINE SMOOTH"
);
}
);
width = 1133;
}
);
note = ij;
unicode = 0133;
},
{
glyphname = jcircumflex;
lastChange = "2017-09-25 17:37:43 +0000";
layers = (
{
layerId = "BBA80624-4CF6-45E1-9846-B55476475641";
paths = (
{
closed = 1;
nodes = (
"428 1784 LINE",
"147 1784 LINE",
"-111 1501 LINE",
"170 1501 LINE",
"287 1632 LINE",
"397 1501 LINE",
"670 1501 LINE"
);
},
{
closed = 1;
nodes = (
"84 107 OFFCURVE",
"83 75 OFFCURVE",
"81 60 CURVE",
"78 45 OFFCURVE",
"73 35 OFFCURVE",
"64 32 CURVE SMOOTH",
"55 29 OFFCURVE",
"31 27 OFFCURVE",
"-6 27 CURVE",
"-6 -186 LINE",
"150 -186 LINE SMOOTH",
"407 -186 OFFCURVE",
"500 -112 OFFCURVE",
"500 152 CURVE SMOOTH",
"500 1327 LINE",
"84 1327 LINE",
"84 156 LINE SMOOTH"
);
}
);
width = 573;
}
);
note = jcircumflex;
unicode = 0135;
},
{
glyphname = kgreenlandic;
lastChange = "2017-09-25 17:37:43 +0000";
layers = (
{
layerId = "BBA80624-4CF6-45E1-9846-B55476475641";
paths = (
{
closed = 1;
nodes = (
"72 1327 LINE",
"72 0 LINE",
"475 0 LINE",
"475 586 LINE",
"670 0 LINE",
"1063 0 LINE",
"793 748 LINE",
"1042 1327 LINE",
"692 1327 LINE",
"475 817 LINE",
"475 1327 LINE"
);
}
);
width = 1059;
}
);
note = kgreenlandic;
unicode = 0138;
},
{
glyphname = Eng;
lastChange = "2017-09-25 17:37:43 +0000";
layers = (
{
layerId = "BBA80624-4CF6-45E1-9846-B55476475641";
paths = (
{
closed = 1;
nodes = (
"808 0 OFFCURVE",
"916 50 OFFCURVE",
"983 157 CURVE SMOOTH",
"1050 264 OFFCURVE",
"1055 375 OFFCURVE",
"1055 672 CURVE SMOOTH",
"1055 948 LINE SMOOTH",
"1055 1183 OFFCURVE",
"1043 1332 OFFCURVE",
"1019 1393 CURVE SMOOTH",
"971 1515 OFFCURVE",
"901 1616 OFFCURVE",
"698 1616 CURVE SMOOTH",
"626 1616 OFFCURVE",
"534 1573 OFFCURVE",
"506 1536 CURVE",
"506 1620 LINE",
"84 1620 LINE",
"84 0 LINE",
"506 0 LINE",
"506 1311 LINE SMOOTH",
"506 1340 OFFCURVE",
"532 1380 OFFCURVE",
"567 1380 CURVE SMOOTH",
"597 1380 OFFCURVE",
"616 1367 OFFCURVE",
"623 1342 CURVE SMOOTH",
"630 1317 OFFCURVE",
"633 1270 OFFCURVE",
"633 1202 CURVE SMOOTH",
"633 342 LINE SMOOTH",
"633 289 OFFCURVE",
"630 255 OFFCURVE",
"623 239 CURVE SMOOTH",
"616 222 OFFCURVE",
"603 214 OFFCURVE",
"584 213 CURVE",
"584 0 LINE",
"684 0 LINE SMOOTH"
);
}
);
width = 1133;
}
);
note = Eng;
unicode = 014A;
},
{
glyphname = eng;
lastChange = "2017-09-25 17:37:43 +0000";
layers = (
{
layerId = "BBA80624-4CF6-45E1-9846-B55476475641";
paths = (
{
closed = 1;
nodes = (
"892 -252 OFFCURVE",
"1004 -137 OFFCURVE",
"1004 92 CURVE SMOOTH",
"1004 930 LINE SMOOTH",
"1004 1110 OFFCURVE",
"999 1182 OFFCURVE",
"950 1251 CURVE SMOOTH",
"901 1320 OFFCURVE",
"834 1339 OFFCURVE",
"729 1339 CURVE SMOOTH",
"617 1339 OFFCURVE",
"532 1294 OFFCURVE",
"475 1204 CURVE",
"483 1327 LINE",
"72 1327 LINE",
"72 0 LINE",
"475 0 LINE",
"475 897 LINE SMOOTH",
"475 988 OFFCURVE",
"478 1047 OFFCURVE",
"485 1075 CURVE SMOOTH",
"491 1102 OFFCURVE",
"510 1116 OFFCURVE",
"541 1116 CURVE SMOOTH",
"570 1116 OFFCURVE",
"587 1105 OFFCURVE",
"592 1083 CURVE SMOOTH",
"597 1061 OFFCURVE",
"600 1007 OFFCURVE",
"600 920 CURVE SMOOTH",
"600 90 LINE SMOOTH",
"600 -61 OFFCURVE",
"595 -39 OFFCURVE",
"512 -39 CURVE",
"512 -252 LINE",
"668 -252 LINE SMOOTH"
);
}
);
width = 1071;
}
);
note = eng;
unicode = 014B;
},
{
glyphname = Tbar;
lastChange = "2017-09-25 17:37:43 +0000";
layers = (
{
layerId = "BBA80624-4CF6-45E1-9846-B55476475641";
paths = (
{
closed = 1;
nodes = (
"104 739 LINE",
"262 739 LINE",
"262 0 LINE",
"684 0 LINE",
"684 739 LINE",
"844 739 LINE",
"844 911 LINE",
"684 911 LINE",
"684 1296 LINE",
"932 1296 LINE",
"932 1620 LINE",
"12 1620 LINE",
"12 1296 LINE",
"262 1296 LINE",
"262 911 LINE",
"104 911 LINE"
);
}
);
width = 944;
}
);
note = Tbar;
unicode = 0166;
},
{
glyphname = tbar;
lastChange = "2017-09-25 17:37:43 +0000";
layers = (
{
layerId = "BBA80624-4CF6-45E1-9846-B55476475641";
paths = (
{
closed = 1;
nodes = (
"6 739 LINE",
"94 739 LINE",
"94 412 LINE SMOOTH",
"94 297 OFFCURVE",
"97 218 OFFCURVE",
"103 174 CURVE SMOOTH",
"109 129 OFFCURVE",
"128 93 OFFCURVE",
"160 64 CURVE SMOOTH",
"224 6 OFFCURVE",
"292 0 OFFCURVE",
"461 0 CURVE SMOOTH",
"625 0 LINE",
"625 213 LINE",
"574 213 OFFCURVE",
"541 215 OFFCURVE",
"528 220 CURVE",
"515 224 OFFCURVE",
"506 235 OFFCURVE",
"503 254 CURVE SMOOTH",
"500 273 OFFCURVE",
"498 313 OFFCURVE",
"498 375 CURVE SMOOTH",
"498 739 LINE",
"604 739 LINE",
"604 911 LINE",
"498 911 LINE",
"498 1085 LINE",
"606 1085 LINE",
"606 1294 LINE",
"498 1294 LINE",
"498 1505 LINE",
"94 1505 LINE",
"94 1294 LINE",
"6 1294 LINE",
"6 1085 LINE",
"94 1085 LINE",
"94 911 LINE",
"6 911 LINE"
);
}
);
width = 623;
}
);
note = tbar;
unicode = 0167;
},
{
glyphname = Uogonek;
lastChange = "2017-09-25 17:37:43 +0000";
layers = (
{
layerId = "BBA80624-4CF6-45E1-9846-B55476475641";
paths = (
{
closed = 1;
nodes = (
"438 -55 OFFCURVE",
"410 -108 OFFCURVE",
"410 -162 CURVE SMOOTH",
"410 -254 OFFCURVE",
"487 -317 OFFCURVE",
"608 -317 CURVE SMOOTH",
"660 -317 OFFCURVE",
"718 -302 OFFCURVE",
"782 -272 CURVE",
"741 -172 LINE",
"698 -190 OFFCURVE",
"660 -199 OFFCURVE",
"627 -199 CURVE SMOOTH",
"579 -199 OFFCURVE",
"555 -178 OFFCURVE",
"555 -135 CURVE SMOOTH",
"555 -102 OFFCURVE",
"582 -58 OFFCURVE",
"637 -2 CURVE",
"778 5 OFFCURVE",
"873 31 OFFCURVE",
"947 112 CURVE SMOOTH",
"1021 193 OFFCURVE",
"1042 292 OFFCURVE",
"1042 463 CURVE SMOOTH",
"1042 1620 LINE",
"621 1620 LINE",
"621 391 LINE SMOOTH",
"621 324 OFFCURVE",
"616 282 OFFCURVE",
"605 265 CURVE SMOOTH",
"594 248 OFFCURVE",
"579 240 OFFCURVE",
"559 240 CURVE SMOOTH",
"540 240 OFFCURVE",
"525 247 OFFCURVE",
"515 261 CURVE SMOOTH",
"505 275 OFFCURVE",
"500 311 OFFCURVE",
"500 369 CURVE SMOOTH",
"500 1620 LINE",
"78 1620 LINE",
"78 537 LINE SMOOTH",
"78 340 OFFCURVE",
"84 251 OFFCURVE",
"140 158 CURVE SMOOTH",
"196 65 OFFCURVE",
"321 11 OFFCURVE",
"494 -2 CURVE"
);
}
);
width = 1120;
}
);
note = Uogonek;
unicode = 0172;
},
{
glyphname = uogonek;
lastChange = "2017-09-25 17:37:43 +0000";
layers = (
{
layerId = "BBA80624-4CF6-45E1-9846-B55476475641";
paths = (
{
closed = 1;
nodes = (
"745 -53 OFFCURVE",
"717 -107 OFFCURVE",
"717 -162 CURVE SMOOTH",
"717 -254 OFFCURVE",
"795 -317 OFFCURVE",
"915 -317 CURVE SMOOTH",
"967 -317 OFFCURVE",
"1025 -302 OFFCURVE",
"1090 -272 CURVE",
"1049 -172 LINE",
"1006 -190 OFFCURVE",
"967 -199 OFFCURVE",
"934 -199 CURVE SMOOTH",
"886 -199 OFFCURVE",
"862 -178 OFFCURVE",
"862 -135 CURVE SMOOTH",
"862 -102 OFFCURVE",
"891 -57 OFFCURVE",
"948 0 CURVE",
"997 0 LINE",
"997 1327 LINE",
"594 1327 LINE",
"594 324 LINE SMOOTH",
"594 277 OFFCURVE",
"589 247 OFFCURVE",
"579 233 CURVE SMOOTH",
"569 218 OFFCURVE",
"553 211 OFFCURVE",
"530 211 CURVE SMOOTH",
"489 211 OFFCURVE",
"469 241 OFFCURVE",
"469 301 CURVE SMOOTH",
"469 1327 LINE",
"66 1327 LINE",
"66 432 LINE SMOOTH",
"66 322 OFFCURVE",
"68 246 OFFCURVE",
"73 204 CURVE SMOOTH",
"77 162 OFFCURVE",
"91 122 OFFCURVE",
"116 85 CURVE SMOOTH",
"164 10 OFFCURVE",
"218 -2 OFFCURVE",
"321 -2 CURVE SMOOTH",
"476 -2 OFFCURVE",
"532 26 OFFCURVE",
"592 111 CURVE",
"586 0 LINE",
"801 0 LINE"
);
}
);
width = 1069;
}
);
note = uogonek;
unicode = 0173;
},
{
glyphname = longs;
lastChange = "2017-09-25 17:37:43 +0000";
layers = (
{
layerId = "BBA80624-4CF6-45E1-9846-B55476475641";
paths = (
{
closed = 1;
nodes = (
"584 1653 LINE",
"559 1653 LINE SMOOTH",
"367 1653 OFFCURVE",
"226 1608 OFFCURVE",
"152 1512 CURVE SMOOTH",
"78 1415 OFFCURVE",
"72 1320 OFFCURVE",
"72 1081 CURVE SMOOTH",
"72 0 LINE",
"475 0 LINE",
"475 1249 LINE SMOOTH",
"475 1361 OFFCURVE",
"503 1417 OFFCURVE",
"559 1417 CURVE SMOOTH",
"584 1417 LINE"
);
}
);
width = 590;
}
);
note = longs;
unicode = 017F;
},
{
glyphname = tonos;
lastChange = "2017-09-25 17:37:43 +0000";
layers = (
{
layerId = "BBA80624-4CF6-45E1-9846-B55476475641";
paths = (
{
closed = 1;
nodes = (
"399 1350 LINE",
"524 1620 LINE",
"250 1620 LINE",
"197 1350 LINE"
);
}
);
width = 682;
}
);
note = tonos;
unicode = 0384;
},
{
glyphname = dieresistonos;
lastChange = "2017-09-25 17:37:43 +0000";
layers = (
{
layerId = "BBA80624-4CF6-45E1-9846-B55476475641";
paths = (
{
closed = 1;
nodes = (
"406 1853 LINE",
"530 2124 LINE",
"256 2124 LINE",
"203 1853 LINE"
);
},
{
closed = 1;
nodes = (
"250 1501 LINE",
"250 1761 LINE",
"-6 1761 LINE",
"-6 1501 LINE"
);
},
{
closed = 1;
nodes = (
"690 1501 LINE",
"690 1761 LINE",
"428 1761 LINE",
"428 1501 LINE"
);
}
);
width = 682;
}
);
note = dieresistonos;
unicode = 0385;
},
{
glyphname = anoteleia;
lastChange = "2017-09-25 17:37:43 +0000";
layers = (
{
layerId = "BBA80624-4CF6-45E1-9846-B55476475641";
paths = (
{
closed = 1;
nodes = (
"72 642 LINE",
"377 642 LINE",
"377 972 LINE",
"72 972 LINE"
);
}
);
width = 450;
}
);
note = anoteleia;
unicode = 0387;
},
{
glyphname = Alpha;
lastChange = "2017-09-25 17:37:43 +0000";
layers = (
{
layerId = "BBA80624-4CF6-45E1-9846-B55476475641";
paths = (
{
closed = 1;
nodes = (
"-12 0 LINE",
"424 0 LINE",
"449 291 LINE",
"600 291 LINE",
"621 0 LINE",
"1052 0 LINE",
"811 1619 LINE",
"202 1619 LINE"
);
},
{
closed = 1;
nodes = (
"455 721 OFFCURVE",
"481 948 OFFCURVE",
"524 1257 CURVE",
"545 988 OFFCURVE",
"567 761 OFFCURVE",
"588 578 CURVE",
"444 578 LINE"
);
}
);
width = 1040;
}
);
note = Alpha;
unicode = 0391;
},
{
glyphname = Beta;
lastChange = "2017-09-25 17:37:43 +0000";
layers = (
{
layerId = "BBA80624-4CF6-45E1-9846-B55476475641";
paths = (
{
closed = 1;
nodes = (
"571 0 LINE SMOOTH",
"740 0 OFFCURVE",
"852 10 OFFCURVE",
"907 29 CURVE SMOOTH",
"1016 68 OFFCURVE",
"1064 161 OFFCURVE",
"1064 380 CURVE SMOOTH",
"1064 530 LINE SMOOTH",
"1064 741 OFFCURVE",
"1009 830 OFFCURVE",
"814 874 CURVE",
"989 914 OFFCURVE",
"1034 969 OFFCURVE",
"1034 1158 CURVE SMOOTH",
"1034 1298 OFFCURVE",
"1013 1400 OFFCURVE",
"971 1463 CURVE SMOOTH",
"887 1589 OFFCURVE",
"769 1619 OFFCURVE",
"504 1619 CURVE SMOOTH",
"84 1619 LINE",
"84 0 LINE"
);
},
{
closed = 1;
nodes = (
"592 1341 OFFCURVE",
"610 1335 OFFCURVE",
"629 1295 CURVE",
"638 1274 OFFCURVE",
"643 1239 OFFCURVE",
"643 1188 CURVE SMOOTH",
"643 1092 OFFCURVE",
"637 1034 OFFCURVE",
"626 1014 CURVE SMOOTH",
"615 993 OFFCURVE",
"588 983 OFFCURVE",
"547 983 CURVE SMOOTH",
"537 983 OFFCURVE",
"523 983 OFFCURVE",
"505 982 CURVE",
"505 1342 LINE"
);
},
{
closed = 1;
nodes = (
"630 726 OFFCURVE",
"643 718 OFFCURVE",
"643 579 CURVE SMOOTH",
"643 428 LINE SMOOTH",
"643 297 OFFCURVE",
"624 281 OFFCURVE",
"505 277 CURVE",
"505 730 LINE"
);
}
);
width = 1131;
}
);
note = Beta;
unicode = 0392;
},
{
glyphname = Gamma;
lastChange = "2017-09-25 17:37:43 +0000";
layers = (
{
layerId = "BBA80624-4CF6-45E1-9846-B55476475641";
paths = (
{
closed = 1;
nodes = (
"506 1298 LINE",
"760 1298 LINE",
"760 1620 LINE",
"84 1620 LINE",
"84 0 LINE",
"506 0 LINE"
);
}
);
width = 778;
}
);
note = Gamma;
unicode = 0393;
},
{
glyphname = Delta.389;
lastChange = "2017-09-25 17:37:43 +0000";
layers = (
{
layerId = "BBA80624-4CF6-45E1-9846-B55476475641";
paths = (
{
closed = 1;
nodes = (
"1053 0 LINE",
"811 1620 LINE",
"203 1620 LINE",
"-12 0 LINE"
);
},
{
closed = 1;
nodes = (
"444 316 OFFCURVE",
"509 1170 OFFCURVE",
"524 1257 CURVE",
"539 1172 OFFCURVE",
"588 330 OFFCURVE",
"588 289 CURVE",
"444 289 LINE"
);
}
);
width = 1040;
}
);
note = Delta.389;
unicode = 0394;
},
{
glyphname = Epsilon;
lastChange = "2017-09-25 17:37:43 +0000";
layers = (
{
layerId = "BBA80624-4CF6-45E1-9846-B55476475641";
paths = (
{
closed = 1;
nodes = (
"814 0 LINE",
"814 324 LINE",
"505 324 LINE",
"505 680 LINE",
"768 680 LINE",
"768 988 LINE",
"505 988 LINE",
"505 1295 LINE",
"786 1295 LINE",
"786 1619 LINE",
"84 1619 LINE",
"84 0 LINE"
);
}
);
width = 851;
}
);
note = Epsilon;
unicode = 0395;
},
{
glyphname = Zeta;
lastChange = "2017-09-25 17:37:43 +0000";
layers = (
{
layerId = "BBA80624-4CF6-45E1-9846-B55476475641";
paths = (
{
closed = 1;
nodes = (
"50 1295 LINE",
"336 1295 LINE",
"12 235 LINE",
"12 0 LINE",
"788 0 LINE",
"788 324 LINE",
"474 324 LINE",
"788 1295 LINE",
"788 1619 LINE",
"50 1619 LINE"
);
}
);
width = 813;
}
);
note = Zeta;
unicode = 0396;
},
{
glyphname = Eta;
lastChange = "2017-09-25 17:37:43 +0000";
layers = (
{
layerId = "BBA80624-4CF6-45E1-9846-B55476475641";
paths = (
{
closed = 1;
nodes = (
"631 1040 LINE",
"505 1040 LINE",
"505 1619 LINE",
"84 1619 LINE",
"84 0 LINE",
"505 0 LINE",
"505 680 LINE",
"631 680 LINE",
"631 0 LINE",
"1052 0 LINE",
"1052 1619 LINE",
"631 1619 LINE"
);
}
);
width = 1137;
}
);
note = Eta;
unicode = 0397;
},
{
glyphname = Theta;
lastChange = "2017-09-25 17:37:43 +0000";
layers = (
{
layerId = "BBA80624-4CF6-45E1-9846-B55476475641";
paths = (
{
closed = 1;
nodes = (
"1047 1137 OFFCURVE",
"1042 1259 OFFCURVE",
"1031 1331 CURVE SMOOTH",
"1020 1403 OFFCURVE",
"993 1462 OFFCURVE",
"951 1508 CURVE SMOOTH",
"867 1599 OFFCURVE",
"739 1632 OFFCURVE",
"559 1632 CURVE SMOOTH",
"469 1632 OFFCURVE",
"392 1622 OFFCURVE",
"327 1603 CURVE SMOOTH",
"198 1564 OFFCURVE",
"108 1473 OFFCURVE",
"88 1331 CURVE SMOOTH",
"77 1260 OFFCURVE",
"72 1138 OFFCURVE",
"72 965 CURVE SMOOTH",
"72 664 LINE SMOOTH",
"72 553 OFFCURVE",
"74 464 OFFCURVE",
"78 397 CURVE SMOOTH",
"86 263 OFFCURVE",
"103 180 OFFCURVE",
"187 101 CURVE SMOOTH",
"270 22 OFFCURVE",
"394 -12 OFFCURVE",
"559 -12 CURVE SMOOTH",
"648 -12 OFFCURVE",
"725 -2 OFFCURVE",
"790 19 CURVE SMOOTH",
"920 59 OFFCURVE",
"1009 155 OFFCURVE",
"1031 296 CURVE SMOOTH",
"1042 367 OFFCURVE",
"1047 489 OFFCURVE",
"1047 664 CURVE SMOOTH",
"1047 965 LINE SMOOTH"
);
},
{
closed = 1;
nodes = (
"494 1219 LINE SMOOTH",
"494 1298 OFFCURVE",
"499 1347 OFFCURVE",
"509 1367 CURVE",
"518 1387 OFFCURVE",
"535 1397 OFFCURVE",
"559 1397 CURVE SMOOTH",
"589 1397 OFFCURVE",
"608 1384 OFFCURVE",
"615 1359 CURVE SMOOTH",
"622 1334 OFFCURVE",
"625 1287 OFFCURVE",
"625 1219 CURVE SMOOTH",
"625 934 LINE",
"494 934 LINE"
);
},
{
closed = 1;
nodes = (
"625 391 LINE SMOOTH",
"625 322 OFFCURVE",
"620 278 OFFCURVE",
"609 259 CURVE SMOOTH",
"598 240 OFFCURVE",
"580 231 OFFCURVE",
"557 231 CURVE SMOOTH",
"504 231 OFFCURVE",
"494 279 OFFCURVE",
"494 362 CURVE SMOOTH",
"494 698 LINE",
"625 698 LINE"
);
}
);
width = 1118;
}
);
note = Theta;
unicode = 0398;
},
{
glyphname = Iota;
lastChange = "2017-09-25 17:37:43 +0000";
layers = (
{
layerId = "BBA80624-4CF6-45E1-9846-B55476475641";
paths = (
{
closed = 1;
nodes = (
"506 1620 LINE",
"84 1620 LINE",
"84 0 LINE",
"506 0 LINE"
);
}
);
width = 590;
}
);
note = Iota;
unicode = 0399;
},
{
glyphname = Kappa;
lastChange = "2017-09-25 17:37:43 +0000";
layers = (
{
layerId = "BBA80624-4CF6-45E1-9846-B55476475641";
paths = (
{
closed = 1;
nodes = (
"505 990 LINE",
"505 1619 LINE",
"84 1619 LINE",
"84 0 LINE",
"505 0 LINE",
"505 694 LINE",
"675 0 LINE",
"1110 0 LINE",
"846 888 LINE",
"1087 1619 LINE",
"692 1619 LINE"
);
}
);
width = 1099;
}
);
note = Kappa;
unicode = 039A;
},
{
glyphname = Lambda;
lastChange = "2017-09-25 17:37:43 +0000";
layers = (
{
layerId = "BBA80624-4CF6-45E1-9846-B55476475641";
paths = (
{
closed = 1;
nodes = (
"203 1620 LINE",
"-10 0 LINE",
"434 0 LINE",
"473 377 OFFCURVE",
"505 755 OFFCURVE",
"532 1133 CURVE",
"561 755 OFFCURVE",
"597 377 OFFCURVE",
"641 0 CURVE",
"1085 0 LINE",
"842 1620 LINE"
);
}
);
width = 1073;
}
);
note = Lambda;
unicode = 039B;
},
{
glyphname = Mu;
lastChange = "2017-09-25 17:37:43 +0000";
layers = (
{
layerId = "BBA80624-4CF6-45E1-9846-B55476475641";
paths = (
{
closed = 1;
nodes = (
"738 863 LINE",
"680 1275 LINE SMOOTH",
"662 1407 OFFCURVE",
"645 1522 OFFCURVE",
"629 1619 CURVE",
"84 1619 LINE",
"84 0 LINE",
"452 0 LINE",
"452 1068 LINE",
"607 0 LINE",
"868 0 LINE",
"1015 1093 LINE",
"1015 0 LINE",
"1383 0 LINE",
"1383 1619 LINE",
"834 1619 LINE"
);
}
);
width = 1468;
}
);
note = Mu;
unicode = 039C;
},
